Asap-Regular Italic.ufo
<glyph name="percent" format="1">
  <advance width="765"/>
  <unicode hex="0025"/>
  <outline>
    <contour>
      <point x="601" y="702" type="line" smooth="yes"/>
      <point x="587" y="702"/>
      <point x="578" y="695"/>
      <point x="570" y="683" type="curve" smooth="yes"/>
      <point x="131" y="17" type="line" smooth="yes"/>
      <point x="128" y="13"/>
      <point x="127" y="9"/>
      <point x="127" y="6" type="curve" smooth="yes"/>
      <point x="127" y="2"/>
      <point x="131" y="-2"/>
      <point x="140" y="-2" type="curve" smooth="yes"/>
      <point x="165" y="-2" type="line" smooth="yes"/>
      <point x="179" y="-2"/>
      <point x="188" y="5"/>
      <point x="196" y="17" type="curve" smooth="yes"/>
      <point x="635" y="683" type="line" smooth="yes"/>
      <point x="638" y="687"/>
      <point x="639" y="691"/>
      <point x="639" y="693" type="curve" smooth="yes"/>
      <point x="639" y="698"/>
      <point x="635" y="702"/>
      <point x="626" y="702" type="curve" smooth="yes"/>
    </contour>
    <contour>
      <point x="167" y="706"/>
      <point x="78" y="672"/>
      <point x="78" y="510" type="curve" smooth="yes"/>
      <point x="78" y="404"/>
      <point x="143" y="381"/>
      <point x="200" y="381" type="curve" smooth="yes"/>
      <point x="312" y="381"/>
      <point x="356" y="473"/>
      <point x="356" y="574" type="curve" smooth="yes"/>
      <point x="356" y="682"/>
      <point x="291" y="706"/>
      <point x="234" y="706" type="curve" smooth="yes"/>
    </contour>
    <contour>
      <point x="281" y="652"/>
      <point x="292" y="614"/>
      <point x="292" y="575" type="curve" smooth="yes"/>
      <point x="292" y="514"/>
      <point x="275" y="436"/>
      <point x="205" y="436" type="curve" smooth="yes"/>
      <point x="155" y="436"/>
      <point x="144" y="471"/>
      <point x="144" y="509" type="curve" smooth="yes"/>
      <point x="144" y="551"/>
      <point x="148" y="652"/>
      <point x="228" y="652" type="curve" smooth="yes"/>
    </contour>
    <contour>
      <point x="497" y="319"/>
      <point x="408" y="285"/>
      <point x="408" y="123" type="curve" smooth="yes"/>
      <point x="408" y="17"/>
      <point x="473" y="-6"/>
      <point x="530" y="-6" type="curve" smooth="yes"/>
      <point x="642" y="-6"/>
      <point x="686" y="86"/>
      <point x="686" y="187" type="curve" smooth="yes"/>
      <point x="686" y="295"/>
      <point x="621" y="319"/>
      <point x="564" y="319" type="curve" smooth="yes"/>
    </contour>
    <contour>
      <point x="611" y="265"/>
      <point x="622" y="227"/>
      <point x="622" y="188" type="curve" smooth="yes"/>
      <point x="622" y="127"/>
      <point x="605" y="49"/>
      <point x="535" y="49" type="curve" smooth="yes"/>
      <point x="485" y="49"/>
      <point x="474" y="84"/>
      <point x="474" y="122" type="curve" smooth="yes"/>
      <point x="474" y="164"/>
      <point x="478" y="265"/>
      <point x="558" y="265" type="curve" smooth="yes"/>
    </contour>
  </outline>
</glyph>
<glyph name="quotesingle" format="1">
  <advance width="183"/>
  <unicode hex="0027"/>
  <outline>
    <contour>
      <point x="102" y="702" type="line" smooth="yes"/>
      <point x="74" y="702"/>
      <point x="60" y="694"/>
      <point x="60" y="680" type="curve" smooth="yes"/>
      <point x="60" y="484" type="line" smooth="yes"/>
      <point x="60" y="475"/>
      <point x="67" y="472"/>
      <point x="81" y="472" type="curve"/>
      <point x="82" y="472" type="line"/>
      <point x="95" y="472"/>
      <point x="104" y="476"/>
      <point x="106" y="484" type="curve"/>
      <point x="120" y="549"/>
      <point x="149" y="675"/>
      <point x="149" y="680" type="curve" smooth="yes"/>
      <point x="149" y="701"/>
      <point x="126" y="702"/>
      <point x="112" y="702" type="curve" smooth="yes"/>
    </contour>
  </outline>
</glyph>
<glyph name="parenleft" format="1">
  <advance width="301"/>
  <unicode hex="0028"/>
  <outline>
    <contour>
      <point x="305" y="783"/>
      <point x="297" y="780"/>
      <point x="290" y="773" type="curve"/>
      <point x="150" y="656"/>
      <point x="50" y="437"/>
      <point x="50" y="196" type="curve" smooth="yes"/>
      <point x="50" y="29"/>
      <point x="102" y="-114"/>
      <point x="187" y="-201" type="curve" smooth="yes"/>
      <point x="194" y="-208"/>
      <point x="201" y="-212"/>
      <point x="208" y="-212" type="curve" smooth="yes"/>
      <point x="226" y="-212"/>
      <point x="239" y="-190"/>
      <point x="239" y="-181" type="curve" smooth="yes"/>
      <point x="239" y="-176"/>
      <point x="237" y="-170"/>
      <point x="232" y="-164" type="curve" smooth="yes"/>
      <point x="168" y="-77"/>
      <point x="131" y="49"/>
      <point x="131" y="192" type="curve" smooth="yes"/>
      <point x="131" y="410"/>
      <point x="211" y="613"/>
      <point x="328" y="736" type="curve" smooth="yes"/>
      <point x="335" y="744"/>
      <point x="339" y="753"/>
      <point x="339" y="760" type="curve" smooth="yes"/>
      <point x="339" y="773"/>
      <point x="323" y="783"/>
      <point x="312" y="783" type="curve" smooth="yes"/>
    </contour>
  </outline>
</glyph>
<glyph name="asterisk" format="1">
  <advance width="373"/>
  <unicode hex="002A"/>
  <outline>
    <contour>
      <point x="182" y="709"/>
      <point x="175" y="703"/>
      <point x="174" y="689" type="curve" smooth="yes"/>
      <point x="163" y="584" type="line"/>
      <point x="67" y="616" type="line" smooth="yes"/>
      <point x="64" y="617"/>
      <point x="61" y="617"/>
      <point x="58" y="617" type="curve" smooth="yes"/>
      <point x="49" y="617"/>
      <point x="38" y="607"/>
      <point x="38" y="591" type="curve" smooth="yes"/>
      <point x="38" y="585"/>
      <point x="42" y="581"/>
      <point x="50" y="578" type="curve" smooth="yes"/>
      <point x="145" y="546" type="line"/>
      <point x="63" y="447" type="line" smooth="yes"/>
      <point x="58" y="441"/>
      <point x="57" y="436"/>
      <point x="57" y="432" type="curve" smooth="yes"/>
      <point x="57" y="424"/>
      <point x="69" y="414"/>
      <point x="77" y="414" type="curve" smooth="yes"/>
      <point x="82" y="414"/>
      <point x="87" y="417"/>
      <point x="93" y="423" type="curve"/>
      <point x="177" y="524" type="line"/>
      <point x="239" y="423" type="line" smooth="yes"/>
      <point x="242" y="417"/>
      <point x="247" y="414"/>
      <point x="253" y="414" type="curve" smooth="yes"/>
      <point x="263" y="414"/>
      <point x="277" y="427"/>
      <point x="277" y="436" type="curve" smooth="yes"/>
      <point x="277" y="439"/>
      <point x="275" y="443"/>
      <point x="273" y="447" type="curve" smooth="yes"/>
      <point x="212" y="546" type="line"/>
      <point x="314" y="578" type="line"/>
      <point x="326" y="581"/>
      <point x="330" y="587"/>
      <point x="330" y="596" type="curve" smooth="yes"/>
      <point x="330" y="610"/>
      <point x="321" y="617"/>
      <point x="314" y="617" type="curve" smooth="yes"/>
      <point x="311" y="617"/>
      <point x="308" y="617"/>
      <point x="305" y="616" type="curve" smooth="yes"/>
      <point x="203" y="584" type="line"/>
      <point x="214" y="689" type="line"/>
      <point x="214" y="703"/>
      <point x="210" y="709"/>
      <point x="196" y="709" type="curve" smooth="yes"/>
    </contour>
  </outline>
</glyph>
<glyph name="zero" format="1">
  <advance width="535"/>
  <unicode hex="0030"/>
  <outline>
    <contour>
      <point x="176" y="706"/>
      <point x="34" y="576"/>
      <point x="34" y="269" type="curve" smooth="yes"/>
      <point x="34" y="78"/>
      <point x="122" y="-6"/>
      <point x="228" y="-6" type="curve" smooth="yes"/>
      <point x="355" y="-6"/>
      <point x="499" y="123"/>
      <point x="499" y="427" type="curve" smooth="yes"/>
      <point x="499" y="621"/>
      <point x="410" y="706"/>
      <point x="303" y="706" type="curve" smooth="yes"/>
    </contour>
    <contour>
      <point x="357" y="634"/>
      <point x="414" y="577"/>
      <point x="414" y="425" type="curve" smooth="yes"/>
      <point x="414" y="159"/>
      <point x="310" y="66"/>
      <point x="236" y="66" type="curve" smooth="yes"/>
      <point x="174" y="66"/>
      <point x="119" y="121"/>
      <point x="119" y="270" type="curve" smooth="yes"/>
      <point x="119" y="540"/>
      <point x="220" y="634"/>
      <point x="295" y="634" type="curve" smooth="yes"/>
    </contour>
  </outline>
</glyph>
<glyph name="four" format="1">
  <advance width="535"/>
  <unicode hex="0034"/>
  <outline>
    <contour>
      <point x="419" y="702" type="line" smooth="yes"/>
      <point x="405" y="702"/>
      <point x="392" y="697"/>
      <point x="384" y="688" type="curve" smooth="yes"/>
      <point x="7" y="229" type="line" smooth="yes"/>
      <point x="5" y="227"/>
      <point x="4" y="220"/>
      <point x="4" y="212" type="curve" smooth="yes"/>
      <point x="4" y="193"/>
      <point x="12" y="167"/>
      <point x="22" y="167" type="curve" smooth="yes"/>
      <point x="326" y="167" type="line"/>
      <point x="311" y="20" type="line"/>
      <point x="311" y="5"/>
      <point x="317" y="-2"/>
      <point x="339" y="-2" type="curve" smooth="yes"/>
      <point x="362" y="-2" type="line" smooth="yes"/>
      <point x="380" y="-2"/>
      <point x="392" y="6"/>
      <point x="394" y="20" type="curve" smooth="yes"/>
      <point x="409" y="167" type="line"/>
      <point x="477" y="167" type="line" smooth="yes"/>
      <point x="501" y="167"/>
      <point x="502" y="201"/>
      <point x="502" y="212" type="curve" smooth="yes"/>
      <point x="502" y="228"/>
      <point x="499" y="239"/>
      <point x="485" y="239" type="curve" smooth="yes"/>
      <point x="417" y="239" type="line"/>
      <point x="463" y="680" type="line"/>
      <point x="463" y="693"/>
      <point x="458" y="702"/>
      <point x="435" y="702" type="curve" smooth="yes"/>
    </contour>
    <contour>
      <point x="367" y="557" type="line"/>
      <point x="334" y="239" type="line"/>
      <point x="105" y="239" type="line"/>
      <point x="363" y="559" type="line"/>
    </contour>
  </outline>
</glyph>
<glyph name="seven" format="1">
  <advance width="535"/>
  <unicode hex="0037"/>
  <outline>
    <contour>
      <point x="111" y="700" type="line" smooth="yes"/>
      <point x="87" y="700"/>
      <point x="86" y="666"/>
      <point x="86" y="655" type="curve" smooth="yes"/>
      <point x="86" y="639"/>
      <point x="89" y="628"/>
      <point x="103" y="628" type="curve" smooth="yes"/>
      <point x="419" y="628" type="line"/>
      <point x="67" y="28" type="line" smooth="yes"/>
      <point x="63" y="21"/>
      <point x="62" y="17"/>
      <point x="62" y="13" type="curve" smooth="yes"/>
      <point x="62" y="1"/>
      <point x="76" y="-2"/>
      <point x="103" y="-2" type="curve" smooth="yes"/>
      <point x="115" y="-2" type="line" smooth="yes"/>
      <point x="135" y="-2"/>
      <point x="150" y="4"/>
      <point x="156" y="14" type="curve" smooth="yes"/>
      <point x="518" y="638" type="line"/>
      <point x="520" y="643"/>
      <point x="521" y="648"/>
      <point x="521" y="655" type="curve" smooth="yes"/>
      <point x="521" y="675"/>
      <point x="513" y="700"/>
      <point x="506" y="700" type="curve" smooth="yes"/>
    </contour>
  </outline>
</glyph>
<glyph name="eight" format="1">
  <advance width="535"/>
  <unicode hex="0038"/>
  <outline>
    <contour>
      <point x="195" y="706"/>
      <point x="97" y="639"/>
      <point x="97" y="510" type="curve" smooth="yes"/>
      <point x="97" y="447"/>
      <point x="126" y="405"/>
      <point x="165" y="380" type="curve"/>
      <point x="75" y="345"/>
      <point x="33" y="265"/>
      <point x="33" y="171" type="curve" smooth="yes"/>
      <point x="33" y="50"/>
      <point x="118" y="-6"/>
      <point x="229" y="-6" type="curve" smooth="yes"/>
      <point x="354" y="-6"/>
      <point x="469" y="68"/>
      <point x="469" y="231" type="curve" smooth="yes"/>
      <point x="469" y="319"/>
      <point x="423" y="355"/>
      <point x="367" y="381" type="curve"/>
      <point x="426" y="407"/>
      <point x="481" y="460"/>
      <point x="481" y="555" type="curve" smooth="yes"/>
      <point x="481" y="655"/>
      <point x="404" y="706"/>
      <point x="306" y="706" type="curve" smooth="yes"/>
    </contour>
    <contour>
      <point x="301" y="321"/>
      <point x="383" y="305"/>
      <point x="383" y="219" type="curve" smooth="yes"/>
      <point x="383" y="116"/>
      <point x="309" y="66"/>
      <point x="237" y="66" type="curve" smooth="yes"/>
      <point x="172" y="66"/>
      <point x="120" y="104"/>
      <point x="120" y="181" type="curve" smooth="yes"/>
      <point x="120" y="262"/>
      <point x="160" y="312"/>
      <point x="229" y="350" type="curve"/>
    </contour>
    <contour>
      <point x="353" y="634"/>
      <point x="397" y="608"/>
      <point x="397" y="547" type="curve" smooth="yes"/>
      <point x="397" y="480"/>
      <point x="351" y="438"/>
      <point x="297" y="408" type="curve"/>
      <point x="235" y="429"/>
      <point x="181" y="450"/>
      <point x="181" y="517" type="curve" smooth="yes"/>
      <point x="181" y="599"/>
      <point x="235" y="634"/>
      <point x="298" y="634" type="curve" smooth="yes"/>
    </contour>
  </outline>
</glyph>
<glyph name="nine" format="1">
  <advance width="535"/>
  <unicode hex="0039"/>
  <outline>
    <contour>
      <point x="179" y="706"/>
      <point x="69" y="614"/>
      <point x="69" y="472" type="curve" smooth="yes"/>
      <point x="69" y="364"/>
      <point x="142" y="296"/>
      <point x="240" y="296" type="curve" smooth="yes"/>
      <point x="301" y="296"/>
      <point x="345" y="311"/>
      <point x="378" y="329" type="curve"/>
      <point x="334" y="217"/>
      <point x="245" y="119"/>
      <point x="103" y="63" type="curve" smooth="yes"/>
      <point x="94" y="59"/>
      <point x="94" y="53"/>
      <point x="94" y="50" type="curve" smooth="yes"/>
      <point x="94" y="35"/>
      <point x="101" y="-1"/>
      <point x="121" y="-1" type="curve" smooth="yes"/>
      <point x="190" y="-1"/>
      <point x="497" y="182"/>
      <point x="497" y="504" type="curve" smooth="yes"/>
      <point x="497" y="632"/>
      <point x="435" y="706"/>
      <point x="308" y="706" type="curve" smooth="yes"/>
    </contour>
    <contour>
      <point x="352" y="634"/>
      <point x="413" y="608"/>
      <point x="413" y="499" type="curve" smooth="yes"/>
      <point x="413" y="460"/>
      <point x="407" y="431"/>
      <point x="401" y="402" type="curve"/>
      <point x="371" y="386"/>
      <point x="325" y="368"/>
      <point x="272" y="368" type="curve" smooth="yes"/>
      <point x="211" y="368"/>
      <point x="154" y="399"/>
      <point x="154" y="482" type="curve" smooth="yes"/>
      <point x="154" y="588"/>
      <point x="237" y="634"/>
      <point x="295" y="634" type="curve" smooth="yes"/>
    </contour>
  </outline>
</glyph>
<glyph name="less" format="1">
  <advance width="560"/>
  <unicode hex="003C"/>
  <outline>
    <contour>
      <point x="510" y="448"/>
      <point x="505" y="447"/>
      <point x="499" y="445" type="curve" smooth="yes"/>
      <point x="70" y="271" type="line" smooth="yes"/>
      <point x="54" y="264"/>
      <point x="40" y="253"/>
      <point x="40" y="215" type="curve" smooth="yes"/>
      <point x="40" y="200"/>
      <point x="46" y="191"/>
      <point x="61" y="184" type="curve" smooth="yes"/>
      <point x="454" y="10" type="line" smooth="yes"/>
      <point x="458" y="8"/>
      <point x="463" y="7"/>
      <point x="468" y="7" type="curve" smooth="yes"/>
      <point x="483" y="7"/>
      <point x="493" y="21"/>
      <point x="493" y="47" type="curve" smooth="yes"/>
      <point x="493" y="66"/>
      <point x="486" y="76"/>
      <point x="473" y="82" type="curve" smooth="yes"/>
      <point x="133" y="228" type="line"/>
      <point x="504" y="373" type="line" smooth="yes"/>
      <point x="521" y="379"/>
      <point x="533" y="389"/>
      <point x="533" y="422" type="curve" smooth="yes"/>
      <point x="533" y="439"/>
      <point x="528" y="448"/>
      <point x="515" y="448" type="curve" smooth="yes"/>
    </contour>
  </outline>
</glyph>
<glyph name="equal" format="1">
  <advance width="560"/>
  <unicode hex="003D"/>
  <outline>
    <contour>
      <point x="79" y="338" type="line" smooth="yes"/>
      <point x="55" y="338"/>
      <point x="54" y="311"/>
      <point x="54" y="300" type="curve" smooth="yes"/>
      <point x="54" y="284"/>
      <point x="57" y="271"/>
      <point x="71" y="271" type="curve" smooth="yes"/>
      <point x="499" y="271" type="line" smooth="yes"/>
      <point x="523" y="271"/>
      <point x="524" y="303"/>
      <point x="524" y="314" type="curve" smooth="yes"/>
      <point x="524" y="330"/>
      <point x="521" y="338"/>
      <point x="507" y="338" type="curve" smooth="yes"/>
    </contour>
    <contour>
      <point x="62" y="175" type="line" smooth="yes"/>
      <point x="38" y="175"/>
      <point x="37" y="148"/>
      <point x="37" y="137" type="curve" smooth="yes"/>
      <point x="37" y="121"/>
      <point x="40" y="108"/>
      <point x="54" y="108" type="curve" smooth="yes"/>
      <point x="482" y="108" type="line" smooth="yes"/>
      <point x="506" y="108"/>
      <point x="507" y="140"/>
      <point x="507" y="151" type="curve" smooth="yes"/>
      <point x="507" y="167"/>
      <point x="504" y="175"/>
      <point x="490" y="175" type="curve" smooth="yes"/>
    </contour>
  </outline>
</glyph>
<glyph name="greater" format="1">
  <advance width="560"/>
  <unicode hex="003E"/>
  <outline>
    <contour>
      <point x="75" y="447"/>
      <point x="65" y="433"/>
      <point x="65" y="407" type="curve" smooth="yes"/>
      <point x="65" y="388"/>
      <point x="72" y="378"/>
      <point x="85" y="372" type="curve" smooth="yes"/>
      <point x="425" y="226" type="line"/>
      <point x="54" y="81" type="line" smooth="yes"/>
      <point x="37" y="75"/>
      <point x="25" y="65"/>
      <point x="25" y="32" type="curve" smooth="yes"/>
      <point x="25" y="15"/>
      <point x="30" y="6"/>
      <point x="43" y="6" type="curve" smooth="yes"/>
      <point x="48" y="6"/>
      <point x="53" y="7"/>
      <point x="59" y="9" type="curve" smooth="yes"/>
      <point x="488" y="183" type="line" smooth="yes"/>
      <point x="504" y="190"/>
      <point x="518" y="201"/>
      <point x="518" y="239" type="curve" smooth="yes"/>
      <point x="518" y="254"/>
      <point x="512" y="263"/>
      <point x="497" y="270" type="curve" smooth="yes"/>
      <point x="104" y="444" type="line" smooth="yes"/>
      <point x="100" y="446"/>
      <point x="95" y="447"/>
      <point x="90" y="447" type="curve" smooth="yes"/>
    </contour>
  </outline>
</glyph>
<glyph name="A" format="1">
  <advance width="613"/>
  <unicode hex="0041"/>
  <outline>
    <contour>
      <point x="328" y="702" type="line" smooth="yes"/>
      <point x="307" y="702"/>
      <point x="292" y="698"/>
      <point x="287" y="686" type="curve" smooth="yes"/>
      <point x="-18" y="29" type="line" smooth="yes"/>
      <point x="-21" y="23"/>
      <point x="-23" y="18"/>
      <point x="-23" y="14" type="curve" smooth="yes"/>
      <point x="-23" y="3"/>
      <point x="-10" y="-2"/>
      <point x="18" y="-2" type="curve" smooth="yes"/>
      <point x="23" y="-2" type="line" smooth="yes"/>
      <point x="43" y="-2"/>
      <point x="59" y="2"/>
      <point x="64" y="14" type="curve" smooth="yes"/>
      <point x="138" y="178" type="line"/>
      <point x="432" y="178" type="line"/>
      <point x="474" y="14" type="line" smooth="yes"/>
      <point x="477" y="2"/>
      <point x="493" y="-2"/>
      <point x="513" y="-2" type="curve" smooth="yes"/>
      <point x="521" y="-2" type="line" smooth="yes"/>
      <point x="555" y="-2"/>
      <point x="565" y="7"/>
      <point x="565" y="18" type="curve" smooth="yes"/>
      <point x="565" y="21"/>
      <point x="565" y="24"/>
      <point x="564" y="28" type="curve" smooth="yes"/>
      <point x="396" y="686" type="line" smooth="yes"/>
      <point x="393" y="698"/>
      <point x="377" y="702"/>
      <point x="357" y="702" type="curve" smooth="yes"/>
    </contour>
    <contour>
      <point x="334" y="591"/>
      <point x="335" y="571"/>
      <point x="340" y="552" type="curve" smooth="yes"/>
      <point x="413" y="254" type="line"/>
      <point x="174" y="254" type="line"/>
      <point x="311" y="552" type="line" smooth="yes"/>
      <point x="319" y="570"/>
      <point x="326" y="591"/>
      <point x="332" y="610" type="curve"/>
      <point x="334" y="610" type="line"/>
    </contour>
    <contour>
      <point x="539" y="0" type="move" name="ogonek"/>
    </contour>
    <contour>
      <point x="279" y="0" type="move" name="bottom"/>
    </contour>
    <contour>
      <point x="342" y="700" type="move" name="top"/>
    </contour>
  </outline>
</glyph>
<glyph name="D" format="1">
  <advance width="695"/>
  <unicode hex="0044"/>
  <outline>
    <contour>
      <point x="150" y="700" type="line" smooth="yes"/>
      <point x="129" y="700"/>
      <point x="119" y="691"/>
      <point x="117" y="670" type="curve"/>
      <point x="95" y="455"/>
      <point x="50" y="37"/>
      <point x="50" y="24" type="curve" smooth="yes"/>
      <point x="50" y="7"/>
      <point x="58" y="0"/>
      <point x="77" y="0" type="curve" smooth="yes"/>
      <point x="292" y="0" type="line" smooth="yes"/>
      <point x="471" y="0"/>
      <point x="643" y="105"/>
      <point x="643" y="415" type="curve" smooth="yes"/>
      <point x="643" y="624"/>
      <point x="522" y="700"/>
      <point x="365" y="700" type="curve" smooth="yes"/>
    </contour>
    <contour>
      <point x="464" y="624"/>
      <point x="552" y="567"/>
      <point x="552" y="401" type="curve" smooth="yes"/>
      <point x="552" y="163"/>
      <point x="423" y="76"/>
      <point x="293" y="76" type="curve" smooth="yes"/>
      <point x="143" y="76" type="line"/>
      <point x="200" y="624" type="line"/>
      <point x="350" y="624" type="line" smooth="yes"/>
    </contour>
    <contour>
      <point x="348" y="350" type="move" name="center"/>
    </contour>
    <contour>
      <point x="291" y="0" type="move" name="bottom"/>
    </contour>
    <contour>
      <point x="348" y="700" type="move" name="top"/>
    </contour>
  </outline>
</glyph>
<glyph name="F" format="1">
  <advance width="503"/>
  <unicode hex="0046"/>
  <outline>
    <contour>
      <point x="150" y="700" type="line" smooth="yes"/>
      <point x="129" y="700"/>
      <point x="119" y="691"/>
      <point x="117" y="670" type="curve" smooth="yes"/>
      <point x="94" y="453"/>
      <point x="72" y="237"/>
      <point x="49" y="20" type="curve"/>
      <point x="49" y="6"/>
      <point x="57" y="-2"/>
      <point x="87" y="-2" type="curve" smooth="yes"/>
      <point x="95" y="-2" type="line" smooth="yes"/>
      <point x="120" y="-2"/>
      <point x="135" y="6"/>
      <point x="137" y="20" type="curve" smooth="yes"/>
      <point x="168" y="320" type="line"/>
      <point x="419" y="320" type="line" smooth="yes"/>
      <point x="444" y="320"/>
      <point x="444" y="351"/>
      <point x="444" y="374" type="curve" smooth="yes"/>
      <point x="444" y="389"/>
      <point x="439" y="396"/>
      <point x="427" y="396" type="curve" smooth="yes"/>
      <point x="176" y="396" type="line"/>
      <point x="200" y="624" type="line"/>
      <point x="459" y="624" type="line" smooth="yes"/>
      <point x="484" y="624"/>
      <point x="484" y="655"/>
      <point x="484" y="678" type="curve" smooth="yes"/>
      <point x="484" y="693"/>
      <point x="479" y="700"/>
      <point x="467" y="700" type="curve" smooth="yes"/>
    </contour>
  </outline>
</glyph>
<glyph name="G" format="1">
  <advance width="672"/>
  <unicode hex="0047"/>
  <outline>
    <contour>
      <point x="196" y="706"/>
      <point x="52" y="572"/>
      <point x="52" y="275" type="curve" smooth="yes"/>
      <point x="52" y="84"/>
      <point x="149" y="-6"/>
      <point x="328" y="-6" type="curve" smooth="yes"/>
      <point x="442" y="-6"/>
      <point x="553" y="10"/>
      <point x="559" y="66" type="curve"/>
      <point x="568" y="156"/>
      <point x="587" y="322"/>
      <point x="587" y="337" type="curve" smooth="yes"/>
      <point x="587" y="353"/>
      <point x="579" y="361"/>
      <point x="560" y="361" type="curve" smooth="yes"/>
      <point x="384" y="361" type="line" smooth="yes"/>
      <point x="359" y="361"/>
      <point x="359" y="330"/>
      <point x="359" y="307" type="curve" smooth="yes"/>
      <point x="359" y="292"/>
      <point x="364" y="285"/>
      <point x="376" y="285" type="curve" smooth="yes"/>
      <point x="494" y="285" type="line"/>
      <point x="472" y="83" type="line"/>
      <point x="445" y="76"/>
      <point x="394" y="70"/>
      <point x="342" y="70" type="curve" smooth="yes"/>
      <point x="190" y="70"/>
      <point x="144" y="165"/>
      <point x="144" y="288" type="curve" smooth="yes"/>
      <point x="144" y="501"/>
      <point x="228" y="630"/>
      <point x="404" y="630" type="curve" smooth="yes"/>
      <point x="506" y="630"/>
      <point x="551" y="586"/>
      <point x="562" y="586" type="curve" smooth="yes"/>
      <point x="575" y="586"/>
      <point x="602" y="629"/>
      <point x="602" y="645" type="curve" smooth="yes"/>
      <point x="602" y="672"/>
      <point x="515" y="706"/>
      <point x="418" y="706" type="curve" smooth="yes"/>
    </contour>
    <contour>
      <point x="396" y="700" type="move" name="top"/>
    </contour>
    <contour>
      <point x="336" y="0" type="move" name="bottom"/>
    </contour>
  </outline>
</glyph>
<glyph name="H" format="1">
  <advance width="733"/>
  <unicode hex="0048"/>
  <outline>
    <contour>
      <point x="623" y="702" type="line" smooth="yes"/>
      <point x="594" y="702"/>
      <point x="582" y="694"/>
      <point x="581" y="680" type="curve" smooth="yes"/>
      <point x="551" y="397" type="line"/>
      <point x="189" y="397" type="line"/>
      <point x="219" y="680" type="line"/>
      <point x="219" y="694"/>
      <point x="210" y="702"/>
      <point x="181" y="702" type="curve" smooth="yes"/>
      <point x="173" y="702" type="line" smooth="yes"/>
      <point x="145" y="702"/>
      <point x="132" y="694"/>
      <point x="131" y="680" type="curve" smooth="yes"/>
      <point x="62" y="20" type="line"/>
      <point x="62" y="6"/>
      <point x="70" y="-2"/>
      <point x="100" y="-2" type="curve" smooth="yes"/>
      <point x="108" y="-2" type="line" smooth="yes"/>
      <point x="134" y="-2"/>
      <point x="148" y="6"/>
      <point x="150" y="20" type="curve" smooth="yes"/>
      <point x="181" y="321" type="line"/>
      <point x="543" y="321" type="line"/>
      <point x="512" y="20" type="line"/>
      <point x="512" y="6"/>
      <point x="520" y="-2"/>
      <point x="550" y="-2" type="curve" smooth="yes"/>
      <point x="558" y="-2" type="line" smooth="yes"/>
      <point x="584" y="-2"/>
      <point x="598" y="6"/>
      <point x="600" y="20" type="curve" smooth="yes"/>
      <point x="669" y="680" type="line"/>
      <point x="669" y="694"/>
      <point x="660" y="702"/>
      <point x="631" y="702" type="curve" smooth="yes"/>
    </contour>
    <contour>
      <point x="376" y="522" type="move" name="center"/>
    </contour>
    <contour>
      <point x="349" y="2" type="move" name="bottom"/>
    </contour>
    <contour>
      <point x="405" y="700" type="move" name="top"/>
    </contour>
  </outline>
</glyph>
<glyph name="I" format="1">
  <advance width="282"/>
  <unicode hex="0049"/>
  <outline>
    <contour>
      <point x="173" y="702" type="line" smooth="yes"/>
      <point x="145" y="702"/>
      <point x="132" y="694"/>
      <point x="131" y="680" type="curve" smooth="yes"/>
      <point x="62" y="20" type="line"/>
      <point x="62" y="6"/>
      <point x="70" y="-2"/>
      <point x="100" y="-2" type="curve" smooth="yes"/>
      <point x="108" y="-2" type="line" smooth="yes"/>
      <point x="134" y="-2"/>
      <point x="148" y="6"/>
      <point x="150" y="20" type="curve" smooth="yes"/>
      <point x="219" y="680" type="line"/>
      <point x="219" y="694"/>
      <point x="210" y="702"/>
      <point x="181" y="702" type="curve" smooth="yes"/>
    </contour>
    <contour>
      <point x="128" y="0" type="move" name="ogonek"/>
    </contour>
    <contour>
      <point x="101" y="0" type="move" name="bottom"/>
    </contour>
    <contour>
      <point x="180" y="700" type="move" name="top"/>
    </contour>
  </outline>
</glyph>
<glyph name="L" format="1">
  <advance width="484"/>
  <unicode hex="004C"/>
  <outline>
    <contour>
      <point x="160" y="702" type="line" smooth="yes"/>
      <point x="132" y="702"/>
      <point x="119" y="694"/>
      <point x="118" y="680" type="curve" smooth="yes"/>
      <point x="50" y="30" type="line"/>
      <point x="50" y="9"/>
      <point x="55" y="0"/>
      <point x="77" y="0" type="curve" smooth="yes"/>
      <point x="426" y="0" type="line" smooth="yes"/>
      <point x="451" y="0"/>
      <point x="451" y="31"/>
      <point x="451" y="54" type="curve" smooth="yes"/>
      <point x="451" y="69"/>
      <point x="446" y="76"/>
      <point x="434" y="76" type="curve" smooth="yes"/>
      <point x="143" y="76" type="line"/>
      <point x="206" y="680" type="line"/>
      <point x="206" y="694"/>
      <point x="197" y="702"/>
      <point x="168" y="702" type="curve" smooth="yes"/>
    </contour>
    <contour>
      <point x="300" y="335" type="move" name="center"/>
    </contour>
    <contour>
      <point x="292" y="700" type="move" name="caron"/>
    </contour>
    <contour>
      <point x="168" y="702" type="move" name="top"/>
    </contour>
    <contour>
      <point x="242" y="0" type="move" name="bottom"/>
    </contour>
  </outline>
</glyph>
<glyph name="N" format="1">
  <advance width="719"/>
  <unicode hex="004E"/>
  <outline>
    <contour>
      <point x="621" y="702" type="line" smooth="yes"/>
      <point x="593" y="702"/>
      <point x="580" y="694"/>
      <point x="579" y="680" type="curve" smooth="yes"/>
      <point x="523" y="145" type="line"/>
      <point x="499" y="201" type="line"/>
      <point x="224" y="683" type="line" smooth="yes"/>
      <point x="216" y="697"/>
      <point x="206" y="702"/>
      <point x="184" y="702" type="curve" smooth="yes"/>
      <point x="163" y="702" type="line" smooth="yes"/>
      <point x="135" y="702"/>
      <point x="122" y="694"/>
      <point x="121" y="680" type="curve" smooth="yes"/>
      <point x="52" y="20" type="line"/>
      <point x="52" y="6"/>
      <point x="60" y="-2"/>
      <point x="90" y="-2" type="curve" smooth="yes"/>
      <point x="97" y="-2" type="line" smooth="yes"/>
      <point x="123" y="-2"/>
      <point x="137" y="6"/>
      <point x="139" y="20" type="curve" smooth="yes"/>
      <point x="196" y="561" type="line"/>
      <point x="217" y="510" type="line"/>
      <point x="501" y="12" type="line" smooth="yes"/>
      <point x="506" y="3"/>
      <point x="516" y="-2"/>
      <point x="535" y="-2" type="curve" smooth="yes"/>
      <point x="555" y="-2" type="line" smooth="yes"/>
      <point x="581" y="-2"/>
      <point x="595" y="6"/>
      <point x="597" y="20" type="curve" smooth="yes"/>
      <point x="666" y="680" type="line"/>
      <point x="666" y="694"/>
      <point x="657" y="702"/>
      <point x="628" y="702" type="curve" smooth="yes"/>
    </contour>
    <contour>
      <point x="391" y="700" type="move" name="top"/>
    </contour>
    <contour>
      <point x="336" y="0" type="move" name="bottom"/>
    </contour>
  </outline>
</glyph>
<glyph name="O" format="1">
  <advance width="731"/>
  <unicode hex="004F"/>
  <outline>
    <contour>
      <point x="139" y="706"/>
      <point x="53" y="492"/>
      <point x="53" y="282" type="curve" smooth="yes"/>
      <point x="53" y="93"/>
      <point x="148" y="-6"/>
      <point x="327" y="-6" type="curve" smooth="yes"/>
      <point x="541" y="-6"/>
      <point x="678" y="142"/>
      <point x="678" y="420" type="curve" smooth="yes"/>
      <point x="678" y="609"/>
      <point x="582" y="706"/>
      <point x="402" y="706" type="curve" smooth="yes"/>
    </contour>
    <contour>
      <point x="519" y="630"/>
      <point x="586" y="556"/>
      <point x="586" y="410" type="curve" smooth="yes"/>
      <point x="586" y="189"/>
      <point x="485" y="70"/>
      <point x="335" y="70" type="curve" smooth="yes"/>
      <point x="210" y="70"/>
      <point x="144" y="146"/>
      <point x="144" y="291" type="curve" smooth="yes"/>
      <point x="144" y="515"/>
      <point x="242" y="630"/>
      <point x="394" y="630" type="curve" smooth="yes"/>
    </contour>
    <contour>
      <point x="403" y="0" type="move" name="ogonek"/>
    </contour>
    <contour>
      <point x="402" y="700" type="move" name="top"/>
    </contour>
    <contour>
      <point x="503" y="682" type="move" name="horn"/>
    </contour>
    <contour>
      <point x="327" y="0" type="move" name="bottom"/>
    </contour>
  </outline>
</glyph>
<glyph name="P" format="1">
  <advance width="570"/>
  <unicode hex="0050"/>
  <outline>
    <contour>
      <point x="151" y="700" type="line" smooth="yes"/>
      <point x="130" y="700"/>
      <point x="120" y="691"/>
      <point x="118" y="670" type="curve" smooth="yes"/>
      <point x="50" y="20" type="line"/>
      <point x="50" y="6"/>
      <point x="58" y="-2"/>
      <point x="88" y="-2" type="curve" smooth="yes"/>
      <point x="96" y="-2" type="line" smooth="yes"/>
      <point x="122" y="-2"/>
      <point x="136" y="6"/>
      <point x="138" y="20" type="curve" smooth="yes"/>
      <point x="167" y="298" type="line"/>
      <point x="322" y="298" type="line" smooth="yes"/>
      <point x="374" y="298"/>
      <point x="559" y="323"/>
      <point x="559" y="533" type="curve" smooth="yes"/>
      <point x="559" y="676"/>
      <point x="435" y="700"/>
      <point x="354" y="700" type="curve" smooth="yes"/>
    </contour>
    <contour>
      <point x="398" y="624"/>
      <point x="467" y="605"/>
      <point x="467" y="521" type="curve" smooth="yes"/>
      <point x="467" y="397"/>
      <point x="370" y="374"/>
      <point x="331" y="374" type="curve" smooth="yes"/>
      <point x="175" y="374" type="line"/>
      <point x="201" y="624" type="line"/>
      <point x="343" y="624" type="line" smooth="yes"/>
    </contour>
  </outline>
</glyph>
<glyph name="S" format="1">
  <advance width="500"/>
  <unicode hex="0053"/>
  <outline>
    <contour>
      <point x="170" y="706"/>
      <point x="67" y="629"/>
      <point x="67" y="506" type="curve" smooth="yes"/>
      <point x="67" y="388"/>
      <point x="163" y="343"/>
      <point x="236" y="311" type="curve" smooth="yes"/>
      <point x="292" y="286"/>
      <point x="359" y="258"/>
      <point x="359" y="186" type="curve" smooth="yes"/>
      <point x="359" y="119"/>
      <point x="302" y="70"/>
      <point x="214" y="70" type="curve" smooth="yes"/>
      <point x="163" y="70"/>
      <point x="116" y="86"/>
      <point x="81" y="108" type="curve" smooth="yes"/>
      <point x="71" y="114"/>
      <point x="62" y="121"/>
      <point x="55" y="121" type="curve" smooth="yes"/>
      <point x="40" y="121"/>
      <point x="36" y="88"/>
      <point x="36" y="74" type="curve" smooth="yes"/>
      <point x="36" y="11"/>
      <point x="123" y="-6"/>
      <point x="197" y="-6" type="curve" smooth="yes"/>
      <point x="372" y="-6"/>
      <point x="450" y="89"/>
      <point x="450" y="194" type="curve" smooth="yes"/>
      <point x="450" y="309"/>
      <point x="356" y="348"/>
      <point x="272" y="386" type="curve" smooth="yes"/>
      <point x="213" y="413"/>
      <point x="157" y="441"/>
      <point x="157" y="513" type="curve" smooth="yes"/>
      <point x="157" y="591"/>
      <point x="224" y="630"/>
      <point x="300" y="630" type="curve" smooth="yes"/>
      <point x="354" y="630"/>
      <point x="389" y="610"/>
      <point x="408" y="599" type="curve" smooth="yes"/>
      <point x="417" y="594"/>
      <point x="421" y="592"/>
      <point x="425" y="592" type="curve" smooth="yes"/>
      <point x="440" y="592"/>
      <point x="464" y="631"/>
      <point x="464" y="647" type="curve" smooth="yes"/>
      <point x="464" y="678"/>
      <point x="379" y="706"/>
      <point x="300" y="706" type="curve" smooth="yes"/>
    </contour>
    <contour>
      <point x="300" y="700" type="move" name="top"/>
    </contour>
    <contour>
      <point x="220" y="0" type="move" name="bottom"/>
    </contour>
  </outline>
</glyph>
<glyph name="T" format="1">
  <advance width="549"/>
  <unicode hex="0054"/>
  <outline>
    <contour>
      <point x="73" y="700" type="line" smooth="yes"/>
      <point x="48" y="700"/>
      <point x="48" y="669"/>
      <point x="48" y="646" type="curve" smooth="yes"/>
      <point x="48" y="631"/>
      <point x="53" y="624"/>
      <point x="65" y="624" type="curve" smooth="yes"/>
      <point x="259" y="624" type="line"/>
      <point x="196" y="20" type="line"/>
      <point x="196" y="6"/>
      <point x="204" y="-2"/>
      <point x="234" y="-2" type="curve" smooth="yes"/>
      <point x="242" y="-2" type="line" smooth="yes"/>
      <point x="267" y="-2"/>
      <point x="282" y="6"/>
      <point x="284" y="20" type="curve" smooth="yes"/>
      <point x="347" y="624" type="line"/>
      <point x="537" y="624" type="line" smooth="yes"/>
      <point x="562" y="624"/>
      <point x="562" y="655"/>
      <point x="562" y="678" type="curve" smooth="yes"/>
      <point x="562" y="693"/>
      <point x="557" y="700"/>
      <point x="545" y="700" type="curve" smooth="yes"/>
    </contour>
    <contour>
      <point x="275" y="350" type="move" name="center"/>
    </contour>
    <contour>
      <point x="227" y="-2" type="move" name="bottom"/>
    </contour>
    <contour>
      <point x="305" y="700" type="move" name="top"/>
    </contour>
  </outline>
</glyph>
<glyph name="U" format="1">
  <advance width="712"/>
  <unicode hex="0055"/>
  <outline>
    <contour>
      <point x="615" y="702" type="line" smooth="yes"/>
      <point x="587" y="702"/>
      <point x="573" y="694"/>
      <point x="572" y="680" type="curve" smooth="yes"/>
      <point x="524" y="221" type="line" smooth="yes"/>
      <point x="515" y="133"/>
      <point x="430" y="70"/>
      <point x="323" y="70" type="curve" smooth="yes"/>
      <point x="211" y="70"/>
      <point x="153" y="125"/>
      <point x="153" y="206" type="curve" smooth="yes"/>
      <point x="153" y="211"/>
      <point x="153" y="216"/>
      <point x="202" y="680" type="curve"/>
      <point x="202" y="694"/>
      <point x="194" y="702"/>
      <point x="165" y="702" type="curve" smooth="yes"/>
      <point x="157" y="702" type="line" smooth="yes"/>
      <point x="129" y="702"/>
      <point x="115" y="694"/>
      <point x="114" y="680" type="curve" smooth="yes"/>
      <point x="65" y="213"/>
      <point x="64" y="203"/>
      <point x="64" y="193" type="curve" smooth="yes"/>
      <point x="64" y="68"/>
      <point x="151" y="-6"/>
      <point x="315" y="-6" type="curve" smooth="yes"/>
      <point x="491" y="-6"/>
      <point x="597" y="80"/>
      <point x="612" y="224" type="curve" smooth="yes"/>
      <point x="660" y="680" type="line"/>
      <point x="660" y="694"/>
      <point x="652" y="702"/>
      <point x="623" y="702" type="curve" smooth="yes"/>
    </contour>
    <contour>
      <point x="400" y="0" type="move" name="ogonek"/>
    </contour>
    <contour>
      <point x="386" y="700" type="move" name="top"/>
    </contour>
    <contour>
      <point x="615" y="702" type="move" name="horn"/>
    </contour>
    <contour>
      <point x="317" y="0" type="move" name="bottom"/>
    </contour>
  </outline>
</glyph>
<glyph name="W" format="1">
  <advance width="882"/>
  <unicode hex="0057"/>
  <outline>
    <contour>
      <point x="854" y="702" type="line" smooth="yes"/>
      <point x="834" y="702"/>
      <point x="817" y="698"/>
      <point x="813" y="686" type="curve" smooth="yes"/>
      <point x="641" y="201" type="line"/>
      <point x="606" y="101" type="line"/>
      <point x="606" y="101"/>
      <point x="604" y="158"/>
      <point x="599" y="193" type="curve" smooth="yes"/>
      <point x="527" y="685" type="line" smooth="yes"/>
      <point x="525" y="698"/>
      <point x="509" y="702"/>
      <point x="489" y="702" type="curve" smooth="yes"/>
      <point x="473" y="702" type="line" smooth="yes"/>
      <point x="448" y="702"/>
      <point x="437" y="698"/>
      <point x="433" y="685" type="curve" smooth="yes"/>
      <point x="261" y="199" type="line"/>
      <point x="226" y="101" type="line"/>
      <point x="226" y="104"/>
      <point x="222" y="167"/>
      <point x="218" y="194" type="curve" smooth="yes"/>
      <point x="142" y="686" type="line" smooth="yes"/>
      <point x="140" y="698"/>
      <point x="123" y="702"/>
      <point x="103" y="702" type="curve" smooth="yes"/>
      <point x="94" y="702" type="line" smooth="yes"/>
      <point x="71" y="702"/>
      <point x="49" y="700"/>
      <point x="49" y="682" type="curve"/>
      <point x="154" y="14" type="line" smooth="yes"/>
      <point x="156" y="2"/>
      <point x="173" y="-2"/>
      <point x="193" y="-2" type="curve" smooth="yes"/>
      <point x="234" y="-2" type="line" smooth="yes"/>
      <point x="252" y="-2"/>
      <point x="270" y="2"/>
      <point x="275" y="14" type="curve" smooth="yes"/>
      <point x="426" y="421" type="line"/>
      <point x="461" y="551" type="line"/>
      <point x="468" y="421" type="line"/>
      <point x="534" y="14" type="line" smooth="yes"/>
      <point x="536" y="2"/>
      <point x="553" y="-2"/>
      <point x="573" y="-2" type="curve" smooth="yes"/>
      <point x="614" y="-2" type="line" smooth="yes"/>
      <point x="634" y="-2"/>
      <point x="651" y="2"/>
      <point x="655" y="14" type="curve" smooth="yes"/>
      <point x="900" y="677"/>
      <point x="902" y="684"/>
      <point x="902" y="686" type="curve" smooth="yes"/>
      <point x="902" y="696"/>
      <point x="889" y="702"/>
      <point x="860" y="702" type="curve" smooth="yes"/>
    </contour>
    <contour>
      <point x="481" y="700" type="move" name="top"/>
    </contour>
  </outline>
</glyph>
<glyph name="Z" format="1">
  <advance width="616"/>
  <unicode hex="005A"/>
  <outline>
    <contour>
      <point x="126" y="700" type="line" smooth="yes"/>
      <point x="101" y="700"/>
      <point x="101" y="669"/>
      <point x="101" y="646" type="curve" smooth="yes"/>
      <point x="101" y="631"/>
      <point x="106" y="624"/>
      <point x="118" y="624" type="curve" smooth="yes"/>
      <point x="479" y="624" type="line"/>
      <point x="11" y="65" type="line" smooth="yes"/>
      <point x="7" y="61"/>
      <point x="6" y="54"/>
      <point x="6" y="48" type="curve" smooth="yes"/>
      <point x="6" y="28"/>
      <point x="16" y="0"/>
      <point x="25" y="0" type="curve" smooth="yes"/>
      <point x="513" y="0" type="line" smooth="yes"/>
      <point x="538" y="0"/>
      <point x="538" y="31"/>
      <point x="538" y="54" type="curve" smooth="yes"/>
      <point x="538" y="69"/>
      <point x="533" y="76"/>
      <point x="521" y="76" type="curve" smooth="yes"/>
      <point x="129" y="76" type="line"/>
      <point x="597" y="635" type="line" smooth="yes"/>
      <point x="601" y="639"/>
      <point x="602" y="645"/>
      <point x="602" y="652" type="curve" smooth="yes"/>
      <point x="602" y="673"/>
      <point x="591" y="700"/>
      <point x="585" y="700" type="curve" smooth="yes"/>
    </contour>
    <contour>
      <point x="338" y="700" type="move" name="top"/>
    </contour>
    <contour>
      <point x="285" y="0" type="move" name="bottom"/>
    </contour>
  </outline>
</glyph>
<glyph name="bracketleft" format="1">
  <advance width="291"/>
  <unicode hex="005B"/>
  <outline>
    <contour>
      <point x="167" y="768" type="line" smooth="yes"/>
      <point x="146" y="768"/>
      <point x="136" y="759"/>
      <point x="134" y="738" type="curve" smooth="yes"/>
      <point x="104" y="456"/>
      <point x="45" y="-86"/>
      <point x="45" y="-108" type="curve" smooth="yes"/>
      <point x="45" y="-129"/>
      <point x="50" y="-138"/>
      <point x="72" y="-138" type="curve" smooth="yes"/>
      <point x="193" y="-138" type="line" smooth="yes"/>
      <point x="214" y="-138"/>
      <point x="217" y="-112"/>
      <point x="217" y="-96" type="curve" smooth="yes"/>
      <point x="217" y="-82"/>
      <point x="211" y="-76"/>
      <point x="199" y="-76" type="curve" smooth="yes"/>
      <point x="122" y="-76" type="line"/>
      <point x="204" y="706" type="line"/>
      <point x="282" y="706" type="line" smooth="yes"/>
      <point x="303" y="706"/>
      <point x="306" y="732"/>
      <point x="306" y="748" type="curve" smooth="yes"/>
      <point x="306" y="762"/>
      <point x="300" y="768"/>
      <point x="288" y="768" type="curve" smooth="yes"/>
    </contour>
  </outline>
</glyph>
<glyph name="bracketright" format="1">
  <advance width="291"/>
  <unicode hex="005D"/>
  <outline>
    <contour>
      <point x="96" y="768" type="line" smooth="yes"/>
      <point x="75" y="768"/>
      <point x="72" y="742"/>
      <point x="72" y="726" type="curve" smooth="yes"/>
      <point x="72" y="712"/>
      <point x="78" y="706"/>
      <point x="90" y="706" type="curve" smooth="yes"/>
      <point x="167" y="706" type="line"/>
      <point x="85" y="-76" type="line"/>
      <point x="7" y="-76" type="line" smooth="yes"/>
      <point x="-14" y="-76"/>
      <point x="-17" y="-102"/>
      <point x="-17" y="-118" type="curve" smooth="yes"/>
      <point x="-17" y="-132"/>
      <point x="-11" y="-138"/>
      <point x="1" y="-138" type="curve" smooth="yes"/>
      <point x="122" y="-138" type="line" smooth="yes"/>
      <point x="143" y="-138"/>
      <point x="153" y="-129"/>
      <point x="155" y="-108" type="curve" smooth="yes"/>
      <point x="185" y="174"/>
      <point x="244" y="728"/>
      <point x="244" y="738" type="curve" smooth="yes"/>
      <point x="244" y="759"/>
      <point x="239" y="768"/>
      <point x="217" y="768" type="curve" smooth="yes"/>
    </contour>
  </outline>
</glyph>
<glyph name="asciicircum" format="1">
  <advance width="450"/>
  <unicode hex="005E"/>
  <outline>
    <contour>
      <point x="234" y="684" type="line" smooth="yes"/>
      <point x="216" y="684"/>
      <point x="206" y="679"/>
      <point x="198" y="664" type="curve" smooth="yes"/>
      <point x="40" y="355" type="line" smooth="yes"/>
      <point x="37" y="348"/>
      <point x="36" y="343"/>
      <point x="36" y="337" type="curve" smooth="yes"/>
      <point x="36" y="326"/>
      <point x="44" y="320"/>
      <point x="60" y="320" type="curve" smooth="yes"/>
      <point x="64" y="320" type="line" smooth="yes"/>
      <point x="80" y="320"/>
      <point x="92" y="327"/>
      <point x="101" y="343" type="curve" smooth="yes"/>
      <point x="235" y="604" type="line"/>
      <point x="314" y="343" type="line" smooth="yes"/>
      <point x="319" y="327"/>
      <point x="328" y="320"/>
      <point x="346" y="320" type="curve" smooth="yes"/>
      <point x="350" y="320" type="line" smooth="yes"/>
      <point x="367" y="320"/>
      <point x="378" y="328"/>
      <point x="380" y="341" type="curve" smooth="yes"/>
      <point x="380" y="345"/>
      <point x="380" y="350"/>
      <point x="378" y="355" type="curve" smooth="yes"/>
      <point x="286" y="664" type="line"/>
      <point x="280" y="680"/>
      <point x="271" y="684"/>
      <point x="254" y="684" type="curve" smooth="yes"/>
    </contour>
  </outline>
</glyph>
<glyph name="grave" format="1">
  <advance width="320"/>
  <unicode hex="0060"/>
  <outline>
    <contour>
      <point x="87" y="732"/>
      <point x="71" y="729"/>
      <point x="70" y="720" type="curve"/>
      <point x="70" y="708"/>
      <point x="79" y="700"/>
      <point x="164" y="603" type="curve" smooth="yes"/>
      <point x="174" y="591"/>
      <point x="195" y="585"/>
      <point x="215" y="585" type="curve" smooth="yes"/>
      <point x="230" y="585"/>
      <point x="238" y="588"/>
      <point x="238" y="594" type="curve" smooth="yes"/>
      <point x="238" y="603"/>
      <point x="229" y="622"/>
      <point x="180" y="706" type="curve" smooth="yes"/>
      <point x="169" y="725"/>
      <point x="150" y="732"/>
      <point x="118" y="732" type="curve" smooth="yes"/>
    </contour>
    <contour>
      <point x="210" y="700" type="move" name="top"/>
    </contour>
    <contour>
      <point x="189" y="523" type="move" name="_top"/>
    </contour>
  </outline>
</glyph>
<glyph name="a" format="1">
  <advance width="545"/>
  <unicode hex="0061"/>
  <outline>
    <contour>
      <point x="136" y="529"/>
      <point x="40" y="396"/>
      <point x="40" y="210" type="curve" smooth="yes"/>
      <point x="40" y="36"/>
      <point x="142" y="-6"/>
      <point x="207" y="-6" type="curve" smooth="yes"/>
      <point x="272" y="-6"/>
      <point x="337" y="32"/>
      <point x="378" y="135" type="curve"/>
      <point x="363" y="141" type="line"/>
      <point x="363" y="92" type="line" smooth="yes"/>
      <point x="363" y="24"/>
      <point x="396" y="-6"/>
      <point x="453" y="-6" type="curve" smooth="yes"/>
      <point x="471" y="-6"/>
      <point x="508" y="2"/>
      <point x="513" y="27" type="curve" smooth="yes"/>
      <point x="517" y="49"/>
      <point x="517" y="63"/>
      <point x="517" y="64" type="curve" smooth="yes"/>
      <point x="517" y="70"/>
      <point x="514" y="71"/>
      <point x="511" y="71" type="curve" smooth="yes"/>
      <point x="505" y="71"/>
      <point x="496" y="66"/>
      <point x="484" y="66" type="curve" smooth="yes"/>
      <point x="468" y="66"/>
      <point x="448" y="66"/>
      <point x="448" y="107" type="curve" smooth="yes"/>
      <point x="448" y="134"/>
      <point x="488" y="504"/>
      <point x="488" y="504" type="curve"/>
      <point x="488" y="517"/>
      <point x="483" y="525"/>
      <point x="463" y="525" type="curve" smooth="yes"/>
      <point x="457" y="525" type="line" smooth="yes"/>
      <point x="429" y="525"/>
      <point x="422" y="504"/>
      <point x="412" y="475" type="curve"/>
      <point x="390" y="496"/>
      <point x="347" y="529"/>
      <point x="285" y="529" type="curve" smooth="yes"/>
    </contour>
    <contour>
      <point x="343" y="456"/>
      <point x="378" y="432"/>
      <point x="397" y="417" type="curve"/>
      <point x="394" y="401"/>
      <point x="391" y="385"/>
      <point x="389" y="367" type="curve"/>
      <point x="389" y="367"/>
      <point x="382" y="302"/>
      <point x="376" y="236" type="curve"/>
      <point x="335" y="104"/>
      <point x="270" y="67"/>
      <point x="226" y="67" type="curve" smooth="yes"/>
      <point x="172" y="67"/>
      <point x="127" y="102"/>
      <point x="127" y="216" type="curve" smooth="yes"/>
      <point x="127" y="336"/>
      <point x="160" y="456"/>
      <point x="293" y="456" type="curve" smooth="yes"/>
    </contour>
    <contour>
      <point x="481" y="0" type="move" name="ogonek"/>
    </contour>
    <contour>
      <point x="231" y="0" type="move" name="bottom"/>
    </contour>
    <contour>
      <point x="283" y="523" type="move" name="top"/>
    </contour>
  </outline>
</glyph>
<glyph name="b" format="1">
  <advance width="569"/>
  <unicode hex="0062"/>
  <outline>
    <contour>
      <point x="155" y="752" type="line" smooth="yes"/>
      <point x="129" y="752"/>
      <point x="115" y="746"/>
      <point x="113" y="730" type="curve" smooth="yes"/>
      <point x="38" y="20" type="line"/>
      <point x="38" y="6"/>
      <point x="43" y="-2"/>
      <point x="63" y="-2" type="curve" smooth="yes"/>
      <point x="71" y="-2" type="line" smooth="yes"/>
      <point x="93" y="-2"/>
      <point x="106" y="23"/>
      <point x="113" y="48" type="curve"/>
      <point x="136" y="26"/>
      <point x="182" y="-6"/>
      <point x="246" y="-6" type="curve" smooth="yes"/>
      <point x="407" y="-6"/>
      <point x="511" y="130"/>
      <point x="511" y="316" type="curve" smooth="yes"/>
      <point x="511" y="490"/>
      <point x="397" y="529"/>
      <point x="324" y="529" type="curve" smooth="yes"/>
      <point x="265" y="529"/>
      <point x="207" y="499"/>
      <point x="165" y="425" type="curve"/>
      <point x="197" y="730" type="line"/>
      <point x="197" y="745"/>
      <point x="187" y="752"/>
      <point x="159" y="752" type="curve" smooth="yes"/>
    </contour>
    <contour>
      <point x="371" y="456"/>
      <point x="424" y="424"/>
      <point x="424" y="310" type="curve" smooth="yes"/>
      <point x="424" y="190"/>
      <point x="387" y="67"/>
      <point x="238" y="67" type="curve" smooth="yes"/>
      <point x="185" y="67"/>
      <point x="148" y="90"/>
      <point x="129" y="106" type="curve"/>
      <point x="132" y="121"/>
      <point x="135" y="138"/>
      <point x="137" y="156" type="curve"/>
      <point x="151" y="290" type="line"/>
      <point x="193" y="420"/>
      <point x="260" y="456"/>
      <point x="305" y="456" type="curve" smooth="yes"/>
    </contour>
  </outline>
</glyph>
<glyph name="c" format="1">
  <advance width="485"/>
  <unicode hex="0063"/>
  <outline>
    <contour>
      <point x="119" y="529"/>
      <point x="47" y="376"/>
      <point x="47" y="204" type="curve" smooth="yes"/>
      <point x="47" y="55"/>
      <point x="122" y="-6"/>
      <point x="263" y="-6" type="curve" smooth="yes"/>
      <point x="294" y="-6"/>
      <point x="397" y="0"/>
      <point x="405" y="40" type="curve" smooth="yes"/>
      <point x="409" y="60"/>
      <point x="410" y="83"/>
      <point x="410" y="85" type="curve" smooth="yes"/>
      <point x="410" y="96"/>
      <point x="408" y="97"/>
      <point x="404" y="97" type="curve" smooth="yes"/>
      <point x="400" y="97"/>
      <point x="392" y="93"/>
      <point x="380" y="88" type="curve" smooth="yes"/>
      <point x="358" y="79"/>
      <point x="322" y="66"/>
      <point x="270" y="66" type="curve" smooth="yes"/>
      <point x="176" y="66"/>
      <point x="134" y="110"/>
      <point x="134" y="210" type="curve" smooth="yes"/>
      <point x="134" y="391"/>
      <point x="208" y="457"/>
      <point x="301" y="457" type="curve" smooth="yes"/>
      <point x="347" y="457"/>
      <point x="374" y="447"/>
      <point x="390" y="439" type="curve" smooth="yes"/>
      <point x="402" y="432"/>
      <point x="409" y="427"/>
      <point x="412" y="427" type="curve" smooth="yes"/>
      <point x="429" y="427"/>
      <point x="451" y="464"/>
      <point x="451" y="477" type="curve" smooth="yes"/>
      <point x="451" y="498"/>
      <point x="402" y="529"/>
      <point x="311" y="529" type="curve" smooth="yes"/>
    </contour>
    <contour>
      <point x="293" y="523" type="move" name="top"/>
    </contour>
    <contour>
      <point x="263" y="0" type="move" name="bottom"/>
    </contour>
  </outline>
</glyph>
<glyph name="e" format="1">
  <advance width="539"/>
  <unicode hex="0065"/>
  <outline>
    <contour>
      <point x="125" y="529"/>
      <point x="46" y="380"/>
      <point x="46" y="201" type="curve" smooth="yes"/>
      <point x="46" y="22"/>
      <point x="173" y="-6"/>
      <point x="272" y="-6" type="curve" smooth="yes"/>
      <point x="315" y="-6"/>
      <point x="427" y="11"/>
      <point x="436" y="58" type="curve" smooth="yes"/>
      <point x="440" y="79"/>
      <point x="441" y="100"/>
      <point x="441" y="103" type="curve" smooth="yes"/>
      <point x="441" y="115"/>
      <point x="438" y="115"/>
      <point x="434" y="115" type="curve" smooth="yes"/>
      <point x="420" y="115"/>
      <point x="369" y="66"/>
      <point x="279" y="66" type="curve" smooth="yes"/>
      <point x="191" y="66"/>
      <point x="133" y="99"/>
      <point x="133" y="210" type="curve" smooth="yes"/>
      <point x="133" y="259" type="line"/>
      <point x="116" y="224" type="line"/>
      <point x="138" y="218"/>
      <point x="171" y="213"/>
      <point x="219" y="213" type="curve" smooth="yes"/>
      <point x="355" y="213"/>
      <point x="489" y="257"/>
      <point x="489" y="396" type="curve" smooth="yes"/>
      <point x="489" y="447"/>
      <point x="447" y="529"/>
      <point x="321" y="529" type="curve" smooth="yes"/>
    </contour>
    <contour>
      <point x="369" y="457"/>
      <point x="402" y="425"/>
      <point x="402" y="388" type="curve" smooth="yes"/>
      <point x="402" y="285"/>
      <point x="238" y="285"/>
      <point x="209" y="285" type="curve" smooth="yes"/>
      <point x="138" y="285" type="line"/>
      <point x="151" y="378"/>
      <point x="196" y="457"/>
      <point x="312" y="457" type="curve" smooth="yes"/>
    </contour>
    <contour>
      <point x="351" y="0" type="move" name="ogonek"/>
    </contour>
    <contour>
      <point x="270" y="0" type="move" name="bottom"/>
    </contour>
    <contour>
      <point x="310" y="523" type="move" name="top"/>
    </contour>
  </outline>
</glyph>
<glyph name="k" format="1">
  <advance width="521"/>
  <unicode hex="006B"/>
  <outline>
    <contour>
      <point x="171" y="752" type="line" smooth="yes"/>
      <point x="142" y="752"/>
      <point x="130" y="744"/>
      <point x="129" y="730" type="curve" smooth="yes"/>
      <point x="54" y="20" type="line"/>
      <point x="54" y="6"/>
      <point x="63" y="-2"/>
      <point x="92" y="-2" type="curve" smooth="yes"/>
      <point x="96" y="-2" type="line" smooth="yes"/>
      <point x="124" y="-2"/>
      <point x="136" y="6"/>
      <point x="138" y="20" type="curve" smooth="yes"/>
      <point x="162" y="248" type="line"/>
      <point x="166" y="248" type="line"/>
      <point x="362" y="11" type="line" smooth="yes"/>
      <point x="371" y="-1"/>
      <point x="393" y="-2"/>
      <point x="415" y="-2" type="curve" smooth="yes"/>
      <point x="419" y="-2" type="line" smooth="yes"/>
      <point x="452" y="-2"/>
      <point x="464" y="1"/>
      <point x="464" y="14" type="curve" smooth="yes"/>
      <point x="464" y="17"/>
      <point x="462" y="21"/>
      <point x="457" y="28" type="curve" smooth="yes"/>
      <point x="256" y="272" type="line"/>
      <point x="474" y="492" type="line" smooth="yes"/>
      <point x="482" y="500"/>
      <point x="486" y="508"/>
      <point x="486" y="513" type="curve" smooth="yes"/>
      <point x="486" y="519"/>
      <point x="475" y="525"/>
      <point x="452" y="525" type="curve" smooth="yes"/>
      <point x="448" y="525" type="line" smooth="yes"/>
      <point x="426" y="525"/>
      <point x="404" y="522"/>
      <point x="394" y="511" type="curve" smooth="yes"/>
      <point x="170" y="283" type="line"/>
      <point x="166" y="283" type="line"/>
      <point x="213" y="730" type="line"/>
      <point x="213" y="744"/>
      <point x="204" y="752"/>
      <point x="175" y="752" type="curve" smooth="yes"/>
    </contour>
    <contour>
      <point x="241" y="0" type="move" name="bottom"/>
    </contour>
  </outline>
</glyph>
<glyph name="l" format="1">
  <advance width="297"/>
  <unicode hex="006C"/>
  <outline>
    <contour>
      <point x="183" y="752" type="line" smooth="yes"/>
      <point x="157" y="752"/>
      <point x="143" y="746"/>
      <point x="141" y="730" type="curve" smooth="yes"/>
      <point x="141" y="727"/>
      <point x="76" y="137"/>
      <point x="76" y="92" type="curve" smooth="yes"/>
      <point x="76" y="24"/>
      <point x="109" y="-6"/>
      <point x="166" y="-6" type="curve" smooth="yes"/>
      <point x="184" y="-6"/>
      <point x="221" y="2"/>
      <point x="226" y="27" type="curve" smooth="yes"/>
      <point x="230" y="49"/>
      <point x="230" y="63"/>
      <point x="230" y="64" type="curve" smooth="yes"/>
      <point x="230" y="70"/>
      <point x="227" y="71"/>
      <point x="224" y="71" type="curve" smooth="yes"/>
      <point x="218" y="71"/>
      <point x="209" y="66"/>
      <point x="197" y="66" type="curve" smooth="yes"/>
      <point x="181" y="66"/>
      <point x="161" y="66"/>
      <point x="161" y="107" type="curve" smooth="yes"/>
      <point x="161" y="137"/>
      <point x="225" y="730"/>
      <point x="225" y="730" type="curve"/>
      <point x="225" y="745"/>
      <point x="215" y="752"/>
      <point x="187" y="752" type="curve" smooth="yes"/>
    </contour>
    <contour>
      <point x="279" y="335" type="move" name="center"/>
    </contour>
    <contour>
      <point x="208" y="752" type="move" name="caron"/>
    </contour>
    <contour>
      <point x="184" y="720" type="move" name="top"/>
    </contour>
    <contour>
      <point x="149" y="0" type="move" name="bottom"/>
    </contour>
  </outline>
</glyph>
<glyph name="o" format="1">
  <advance width="569"/>
  <unicode hex="006F"/>
  <outline>
    <contour>
      <point x="121" y="529"/>
      <point x="45" y="375"/>
      <point x="45" y="209" type="curve" smooth="yes"/>
      <point x="45" y="69"/>
      <point x="116" y="-6"/>
      <point x="252" y="-6" type="curve" smooth="yes"/>
      <point x="412" y="-6"/>
      <point x="510" y="105"/>
      <point x="510" y="312" type="curve" smooth="yes"/>
      <point x="510" y="453"/>
      <point x="440" y="529"/>
      <point x="309" y="529" type="curve" smooth="yes"/>
    </contour>
    <contour>
      <point x="383" y="457"/>
      <point x="423" y="410"/>
      <point x="423" y="310" type="curve" smooth="yes"/>
      <point x="423" y="151"/>
      <point x="364" y="66"/>
      <point x="257" y="66" type="curve" smooth="yes"/>
      <point x="172" y="66"/>
      <point x="131" y="113"/>
      <point x="131" y="212" type="curve" smooth="yes"/>
      <point x="131" y="362"/>
      <point x="188" y="457"/>
      <point x="298" y="457" type="curve" smooth="yes"/>
    </contour>
    <contour>
      <point x="313" y="0" type="move" name="ogonek"/>
    </contour>
    <contour>
      <point x="305" y="523" type="move" name="top"/>
    </contour>
    <contour>
      <point x="393" y="505" type="move" name="horn"/>
    </contour>
    <contour>
      <point x="251" y="0" type="move" name="bottom"/>
    </contour>
  </outline>
</glyph>
<glyph name="p" format="1">
  <advance width="573"/>
  <unicode hex="0070"/>
  <outline>
    <contour>
      <point x="260" y="529"/>
      <point x="194" y="492"/>
      <point x="152" y="395" type="curve"/>
      <point x="163" y="378" type="line"/>
      <point x="166" y="393"/>
      <point x="168" y="419"/>
      <point x="168" y="439" type="curve" smooth="yes"/>
      <point x="168" y="511"/>
      <point x="149" y="514"/>
      <point x="142" y="514" type="curve" smooth="yes"/>
      <point x="135" y="514"/>
      <point x="86" y="513"/>
      <point x="86" y="491" type="curve" smooth="yes"/>
      <point x="86" y="485"/>
      <point x="87" y="481"/>
      <point x="87" y="457" type="curve" smooth="yes"/>
      <point x="87" y="448"/>
      <point x="85" y="421"/>
      <point x="81" y="383" type="curve"/>
      <point x="22" y="-187" type="line"/>
      <point x="22" y="-199"/>
      <point x="33" y="-208"/>
      <point x="60" y="-208" type="curve" smooth="yes"/>
      <point x="64" y="-208" type="line" smooth="yes"/>
      <point x="89" y="-208"/>
      <point x="104" y="-200"/>
      <point x="106" y="-186" type="curve" smooth="yes"/>
      <point x="130" y="47" type="line"/>
      <point x="152" y="27"/>
      <point x="198" y="-6"/>
      <point x="265" y="-6" type="curve" smooth="yes"/>
      <point x="418" y="-6"/>
      <point x="516" y="129"/>
      <point x="516" y="318" type="curve" smooth="yes"/>
      <point x="516" y="488"/>
      <point x="402" y="529"/>
      <point x="329" y="529" type="curve" smooth="yes"/>
    </contour>
    <contour>
      <point x="376" y="456"/>
      <point x="429" y="422"/>
      <point x="429" y="312" type="curve" smooth="yes"/>
      <point x="429" y="190"/>
      <point x="394" y="66"/>
      <point x="253" y="66" type="curve" smooth="yes"/>
      <point x="194" y="66"/>
      <point x="153" y="97"/>
      <point x="137" y="111" type="curve"/>
      <point x="143" y="174"/>
      <point x="149" y="236"/>
      <point x="155" y="290" type="curve"/>
      <point x="197" y="419"/>
      <point x="265" y="456"/>
      <point x="310" y="456" type="curve" smooth="yes"/>
    </contour>
  </outline>
</glyph>
<glyph name="q" format="1">
  <advance width="566"/>
  <unicode hex="0071"/>
  <outline>
    <contour>
      <point x="149" y="529"/>
      <point x="45" y="396"/>
      <point x="45" y="210" type="curve" smooth="yes"/>
      <point x="45" y="36"/>
      <point x="159" y="-6"/>
      <point x="232" y="-6" type="curve" smooth="yes"/>
      <point x="291" y="-6"/>
      <point x="349" y="24"/>
      <point x="391" y="98" type="curve"/>
      <point x="362" y="-186" type="line"/>
      <point x="362" y="-201"/>
      <point x="372" y="-208"/>
      <point x="400" y="-208" type="curve" smooth="yes"/>
      <point x="404" y="-208" type="line" smooth="yes"/>
      <point x="430" y="-208"/>
      <point x="444" y="-202"/>
      <point x="446" y="-186" type="curve" smooth="yes"/>
      <point x="518" y="503" type="line"/>
      <point x="518" y="517"/>
      <point x="513" y="525"/>
      <point x="493" y="525" type="curve" smooth="yes"/>
      <point x="485" y="525" type="line" smooth="yes"/>
      <point x="463" y="525"/>
      <point x="450" y="500"/>
      <point x="443" y="475" type="curve"/>
      <point x="420" y="497"/>
      <point x="374" y="529"/>
      <point x="310" y="529" type="curve" smooth="yes"/>
    </contour>
    <contour>
      <point x="383" y="456"/>
      <point x="423" y="422"/>
      <point x="437" y="408" type="curve"/>
      <point x="431" y="438" type="line"/>
      <point x="427" y="419"/>
      <point x="422" y="394"/>
      <point x="419" y="367" type="curve"/>
      <point x="405" y="233" type="line"/>
      <point x="363" y="103"/>
      <point x="296" y="67"/>
      <point x="251" y="67" type="curve" smooth="yes"/>
      <point x="185" y="67"/>
      <point x="132" y="102"/>
      <point x="132" y="216" type="curve" smooth="yes"/>
      <point x="132" y="336"/>
      <point x="169" y="456"/>
      <point x="318" y="456" type="curve" smooth="yes"/>
    </contour>
  </outline>
</glyph>
<glyph name="r" format="1">
  <advance width="366"/>
  <unicode hex="0072"/>
  <outline>
    <contour>
      <point x="260" y="529"/>
      <point x="203" y="479"/>
      <point x="173" y="400" type="curve"/>
      <point x="179" y="387" type="line"/>
      <point x="182" y="404"/>
      <point x="188" y="436"/>
      <point x="188" y="464" type="curve" smooth="yes"/>
      <point x="188" y="491"/>
      <point x="182" y="514"/>
      <point x="161" y="514" type="curve" smooth="yes"/>
      <point x="154" y="514"/>
      <point x="105" y="513"/>
      <point x="105" y="491" type="curve" smooth="yes"/>
      <point x="105" y="482"/>
      <point x="106" y="475"/>
      <point x="106" y="457" type="curve" smooth="yes"/>
      <point x="106" y="433"/>
      <point x="102" y="389"/>
      <point x="100" y="373" type="curve" smooth="yes"/>
      <point x="62" y="19" type="line"/>
      <point x="62" y="7"/>
      <point x="73" y="-2"/>
      <point x="100" y="-2" type="curve" smooth="yes"/>
      <point x="104" y="-2" type="line" smooth="yes"/>
      <point x="130" y="-2"/>
      <point x="144" y="6"/>
      <point x="146" y="20" type="curve"/>
      <point x="146" y="20"/>
      <point x="161" y="160"/>
      <point x="174" y="288" type="curve"/>
      <point x="201" y="387"/>
      <point x="249" y="446"/>
      <point x="301" y="446" type="curve" smooth="yes"/>
      <point x="327" y="446"/>
      <point x="332" y="435"/>
      <point x="340" y="435" type="curve" smooth="yes"/>
      <point x="352" y="435"/>
      <point x="369" y="466"/>
      <point x="369" y="491" type="curve" smooth="yes"/>
      <point x="369" y="522"/>
      <point x="339" y="529"/>
      <point x="319" y="529" type="curve" smooth="yes"/>
    </contour>
    <contour>
      <point x="163" y="523" type="move" name="top"/>
    </contour>
    <contour>
      <point x="103" y="0" type="move" name="bottom"/>
    </contour>
  </outline>
</glyph>
<glyph name="t" format="1">
  <advance width="342"/>
  <unicode hex="0074"/>
  <outline>
    <contour>
      <point x="181" y="650" type="line" smooth="yes"/>
      <point x="155" y="650"/>
      <point x="142" y="644"/>
      <point x="140" y="628" type="curve" smooth="yes"/>
      <point x="128" y="523" type="line"/>
      <point x="78" y="523" type="line" smooth="yes"/>
      <point x="54" y="523"/>
      <point x="53" y="489"/>
      <point x="53" y="478" type="curve" smooth="yes"/>
      <point x="53" y="462"/>
      <point x="56" y="451"/>
      <point x="70" y="451" type="curve" smooth="yes"/>
      <point x="120" y="451" type="line"/>
      <point x="120" y="451"/>
      <point x="85" y="134"/>
      <point x="85" y="104" type="curve" smooth="yes"/>
      <point x="85" y="8"/>
      <point x="152" y="-6"/>
      <point x="197" y="-6" type="curve" smooth="yes"/>
      <point x="226" y="-6"/>
      <point x="259" y="2"/>
      <point x="265" y="27" type="curve" smooth="yes"/>
      <point x="269" y="44"/>
      <point x="270" y="63"/>
      <point x="270" y="64" type="curve" smooth="yes"/>
      <point x="270" y="71"/>
      <point x="266" y="73"/>
      <point x="263" y="73" type="curve" smooth="yes"/>
      <point x="256" y="73"/>
      <point x="249" y="66"/>
      <point x="218" y="66" type="curve" smooth="yes"/>
      <point x="192" y="66"/>
      <point x="170" y="77"/>
      <point x="170" y="123" type="curve" smooth="yes"/>
      <point x="170" y="143"/>
      <point x="204" y="451"/>
      <point x="204" y="451" type="curve"/>
      <point x="268" y="451" type="line" smooth="yes"/>
      <point x="306" y="451"/>
      <point x="313" y="500"/>
      <point x="313" y="504" type="curve" smooth="yes"/>
      <point x="313" y="518"/>
      <point x="309" y="523"/>
      <point x="297" y="523" type="curve" smooth="yes"/>
      <point x="212" y="523" type="line"/>
      <point x="223" y="628" type="line"/>
      <point x="223" y="643"/>
      <point x="213" y="650"/>
      <point x="185" y="650" type="curve" smooth="yes"/>
    </contour>
    <contour>
      <point x="232" y="752" type="move" name="caron"/>
    </contour>
    <contour>
      <point x="161" y="0" type="move" name="bottom"/>
    </contour>
    <contour>
      <point x="173" y="292" type="move" name="center"/>
    </contour>
  </outline>
</glyph>
<glyph name="u" format="1">
  <advance width="557"/>
  <unicode hex="0075"/>
  <outline>
    <contour>
      <point x="449" y="525" type="line" smooth="yes"/>
      <point x="423" y="525"/>
      <point x="409" y="519"/>
      <point x="407" y="503" type="curve"/>
      <point x="407" y="503"/>
      <point x="392" y="363"/>
      <point x="379" y="237" type="curve"/>
      <point x="336" y="100"/>
      <point x="263" y="67"/>
      <point x="219" y="67" type="curve" smooth="yes"/>
      <point x="168" y="67"/>
      <point x="143" y="93"/>
      <point x="143" y="144" type="curve" smooth="yes"/>
      <point x="143" y="158"/>
      <point x="179" y="503"/>
      <point x="179" y="503" type="curve"/>
      <point x="179" y="518"/>
      <point x="169" y="525"/>
      <point x="141" y="525" type="curve" smooth="yes"/>
      <point x="137" y="525" type="line" smooth="yes"/>
      <point x="111" y="525"/>
      <point x="97" y="519"/>
      <point x="95" y="503" type="curve"/>
      <point x="95" y="503"/>
      <point x="57" y="137"/>
      <point x="57" y="124" type="curve" smooth="yes"/>
      <point x="57" y="50"/>
      <point x="92" y="-6"/>
      <point x="189" y="-6" type="curve" smooth="yes"/>
      <point x="257" y="-6"/>
      <point x="329" y="30"/>
      <point x="385" y="132" type="curve"/>
      <point x="367" y="141" type="line"/>
      <point x="367" y="92" type="line" smooth="yes"/>
      <point x="367" y="24"/>
      <point x="400" y="-6"/>
      <point x="457" y="-6" type="curve" smooth="yes"/>
      <point x="475" y="-6"/>
      <point x="512" y="2"/>
      <point x="517" y="27" type="curve" smooth="yes"/>
      <point x="521" y="49"/>
      <point x="521" y="63"/>
      <point x="521" y="64" type="curve" smooth="yes"/>
      <point x="521" y="70"/>
      <point x="518" y="71"/>
      <point x="515" y="71" type="curve" smooth="yes"/>
      <point x="509" y="71"/>
      <point x="500" y="66"/>
      <point x="488" y="66" type="curve" smooth="yes"/>
      <point x="472" y="66"/>
      <point x="452" y="66"/>
      <point x="452" y="107" type="curve" smooth="yes"/>
      <point x="452" y="137"/>
      <point x="491" y="503"/>
      <point x="491" y="503" type="curve"/>
      <point x="491" y="518"/>
      <point x="481" y="525"/>
      <point x="453" y="525" type="curve" smooth="yes"/>
    </contour>
    <contour>
      <point x="487" y="0" type="move" name="ogonek"/>
    </contour>
    <contour>
      <point x="299" y="523" type="move" name="top"/>
    </contour>
    <contour>
      <point x="444" y="525" type="move" name="horn"/>
    </contour>
    <contour>
      <point x="231" y="0" type="move" name="bottom"/>
    </contour>
  </outline>
</glyph>
<glyph name="w" format="1">
  <advance width="747"/>
  <unicode hex="0077"/>
  <outline>
    <contour>
      <point x="674" y="525"/>
      <point x="655" y="521"/>
      <point x="651" y="509" type="curve" smooth="yes"/>
      <point x="505" y="110" type="line"/>
      <point x="441" y="508" type="line" smooth="yes"/>
      <point x="439" y="521"/>
      <point x="424" y="525"/>
      <point x="404" y="525" type="curve" smooth="yes"/>
      <point x="393" y="525" type="line" smooth="yes"/>
      <point x="373" y="525"/>
      <point x="357" y="521"/>
      <point x="352" y="508" type="curve" smooth="yes"/>
      <point x="207" y="110" type="line"/>
      <point x="144" y="509" type="line" smooth="yes"/>
      <point x="142" y="521"/>
      <point x="125" y="525"/>
      <point x="105" y="525" type="curve" smooth="yes"/>
      <point x="96" y="525" type="line" smooth="yes"/>
      <point x="66" y="525"/>
      <point x="52" y="518"/>
      <point x="51" y="508" type="curve" smooth="yes"/>
      <point x="51" y="504"/>
      <point x="52" y="498"/>
      <point x="136" y="14" type="curve" smooth="yes"/>
      <point x="138" y="2"/>
      <point x="155" y="-2"/>
      <point x="175" y="-2" type="curve" smooth="yes"/>
      <point x="208" y="-2" type="line" smooth="yes"/>
      <point x="228" y="-2"/>
      <point x="245" y="2"/>
      <point x="249" y="14" type="curve" smooth="yes"/>
      <point x="382" y="378" type="line"/>
      <point x="435" y="14" type="line" smooth="yes"/>
      <point x="437" y="2"/>
      <point x="453" y="-2"/>
      <point x="473" y="-2" type="curve" smooth="yes"/>
      <point x="506" y="-2" type="line" smooth="yes"/>
      <point x="526" y="-2"/>
      <point x="542" y="2"/>
      <point x="547" y="14" type="curve" smooth="yes"/>
      <point x="732" y="494" type="line" smooth="yes"/>
      <point x="735" y="501"/>
      <point x="736" y="505"/>
      <point x="736" y="510" type="curve" smooth="yes"/>
      <point x="736" y="520"/>
      <point x="722" y="525"/>
      <point x="694" y="525" type="curve" smooth="yes"/>
    </contour>
    <contour>
      <point x="394" y="523" type="move" name="top"/>
    </contour>
  </outline>
</glyph>
<glyph name="exclamdown" format="1">
  <advance width="294"/>
  <unicode hex="00A1"/>
  <outline>
    <contour>
      <point x="155" y="321" type="line" smooth="yes"/>
      <point x="134" y="321"/>
      <point x="124" y="313"/>
      <point x="122" y="299" type="curve" smooth="yes"/>
      <point x="97" y="147"/>
      <point x="47" y="-137"/>
      <point x="47" y="-157" type="curve"/>
      <point x="47" y="-171"/>
      <point x="55" y="-179"/>
      <point x="84" y="-179" type="curve" smooth="yes"/>
      <point x="104" y="-179" type="line" smooth="yes"/>
      <point x="132" y="-179"/>
      <point x="144" y="-171"/>
      <point x="146" y="-157" type="curve" smooth="yes"/>
      <point x="194" y="299" type="line"/>
      <point x="194" y="313"/>
      <point x="187" y="321"/>
      <point x="166" y="321" type="curve" smooth="yes"/>
    </contour>
    <contour>
      <point x="172" y="525" type="line" smooth="yes"/>
      <point x="143" y="525"/>
      <point x="131" y="517"/>
      <point x="130" y="503" type="curve" smooth="yes"/>
      <point x="123" y="437" type="line"/>
      <point x="123" y="423"/>
      <point x="132" y="415"/>
      <point x="161" y="415" type="curve" smooth="yes"/>
      <point x="178" y="415" type="line" smooth="yes"/>
      <point x="205" y="415"/>
      <point x="218" y="423"/>
      <point x="220" y="437" type="curve" smooth="yes"/>
      <point x="227" y="503" type="line"/>
      <point x="227" y="517"/>
      <point x="218" y="525"/>
      <point x="189" y="525" type="curve" smooth="yes"/>
    </contour>
  </outline>
</glyph>
<glyph name="cent" format="1">
  <advance width="486"/>
  <unicode hex="00A2"/>
  <outline>
    <contour>
      <point x="321" y="578" type="line"/>
      <point x="308" y="578"/>
      <point x="302" y="572"/>
      <point x="301" y="558" type="curve" smooth="yes"/>
      <point x="298" y="528" type="line"/>
      <point x="119" y="519"/>
      <point x="51" y="371"/>
      <point x="51" y="204" type="curve" smooth="yes"/>
      <point x="51" y="64"/>
      <point x="117" y="2"/>
      <point x="241" y="-5" type="curve"/>
      <point x="239" y="-20"/>
      <point x="236" y="-49"/>
      <point x="236" y="-51" type="curve" smooth="yes"/>
      <point x="236" y="-65"/>
      <point x="239" y="-71"/>
      <point x="254" y="-71" type="curve"/>
      <point x="256" y="-71" type="line"/>
      <point x="268" y="-71"/>
      <point x="274" y="-64"/>
      <point x="276" y="-51" type="curve" smooth="yes"/>
      <point x="281" y="-6" type="line"/>
      <point x="321" y="-4"/>
      <point x="402" y="4"/>
      <point x="409" y="40" type="curve" smooth="yes"/>
      <point x="413" y="60"/>
      <point x="414" y="83"/>
      <point x="414" y="85" type="curve" smooth="yes"/>
      <point x="414" y="96"/>
      <point x="412" y="97"/>
      <point x="408" y="97" type="curve" smooth="yes"/>
      <point x="398" y="97"/>
      <point x="360" y="69"/>
      <point x="288" y="66" type="curve"/>
      <point x="330" y="455" type="line"/>
      <point x="390" y="450"/>
      <point x="409" y="427"/>
      <point x="416" y="427" type="curve" smooth="yes"/>
      <point x="433" y="427"/>
      <point x="455" y="464"/>
      <point x="455" y="477" type="curve" smooth="yes"/>
      <point x="455" y="496"/>
      <point x="414" y="524"/>
      <point x="338" y="528" type="curve"/>
      <point x="339" y="538"/>
      <point x="341" y="555"/>
      <point x="341" y="558" type="curve" smooth="yes"/>
      <point x="341" y="572"/>
      <point x="337" y="578"/>
      <point x="323" y="578" type="curve"/>
    </contour>
    <contour>
      <point x="248" y="67" type="line"/>
      <point x="172" y="74"/>
      <point x="138" y="119"/>
      <point x="138" y="210" type="curve" smooth="yes"/>
      <point x="138" y="381"/>
      <point x="204" y="449"/>
      <point x="290" y="456" type="curve"/>
    </contour>
  </outline>
</glyph>
<glyph name="sterling" format="1">
  <advance width="491"/>
  <unicode hex="00A3"/>
  <outline>
    <contour>
      <point x="212" y="706"/>
      <point x="147" y="624"/>
      <point x="134" y="498" type="curve" smooth="yes"/>
      <point x="125" y="411" type="line"/>
      <point x="69" y="411" type="line" smooth="yes"/>
      <point x="45" y="411"/>
      <point x="44" y="377"/>
      <point x="44" y="366" type="curve" smooth="yes"/>
      <point x="44" y="350"/>
      <point x="47" y="339"/>
      <point x="61" y="339" type="curve" smooth="yes"/>
      <point x="117" y="339" type="line"/>
      <point x="98" y="159" type="line" smooth="yes"/>
      <point x="89" y="73"/>
      <point x="4" y="89"/>
      <point x="0" y="46" type="curve" smooth="yes"/>
      <point x="-2" y="26"/>
      <point x="-2" y="22"/>
      <point x="-2" y="18" type="curve" smooth="yes"/>
      <point x="-2" y="6"/>
      <point x="3" y="0"/>
      <point x="14" y="0" type="curve" smooth="yes"/>
      <point x="388" y="0" type="line" smooth="yes"/>
      <point x="400" y="0"/>
      <point x="411" y="11"/>
      <point x="412" y="23" type="curve" smooth="yes"/>
      <point x="413" y="33"/>
      <point x="413" y="39"/>
      <point x="413" y="42" type="curve" smooth="yes"/>
      <point x="413" y="62"/>
      <point x="411" y="72"/>
      <point x="396" y="72" type="curve" smooth="yes"/>
      <point x="116" y="72" type="line"/>
      <point x="137" y="85"/>
      <point x="178" y="111"/>
      <point x="192" y="249" type="curve" smooth="yes"/>
      <point x="201" y="339" type="line"/>
      <point x="326" y="339" type="line" smooth="yes"/>
      <point x="364" y="339"/>
      <point x="371" y="388"/>
      <point x="371" y="392" type="curve" smooth="yes"/>
      <point x="371" y="406"/>
      <point x="367" y="411"/>
      <point x="355" y="411" type="curve" smooth="yes"/>
      <point x="209" y="411" type="line"/>
      <point x="218" y="503" type="line" smooth="yes"/>
      <point x="227" y="594"/>
      <point x="274" y="634"/>
      <point x="369" y="634" type="curve" smooth="yes"/>
      <point x="401" y="634"/>
      <point x="423" y="625"/>
      <point x="431" y="625" type="curve" smooth="yes"/>
      <point x="447" y="625"/>
      <point x="458" y="670"/>
      <point x="458" y="674" type="curve" smooth="yes"/>
      <point x="458" y="701"/>
      <point x="401" y="706"/>
      <point x="361" y="706" type="curve" smooth="yes"/>
    </contour>
  </outline>
</glyph>
<glyph name="currency" format="1">
  <advance width="534"/>
  <unicode hex="00A4"/>
  <outline>
    <contour>
      <point x="422" y="500"/>
      <point x="415" y="496"/>
      <point x="408" y="490" type="curve" smooth="yes"/>
      <point x="382" y="466" type="line"/>
      <point x="355" y="487"/>
      <point x="320" y="500"/>
      <point x="281" y="500" type="curve" smooth="yes"/>
      <point x="242" y="500"/>
      <point x="205" y="487"/>
      <point x="173" y="465" type="curve"/>
      <point x="151" y="489" type="line"/>
      <point x="145" y="497"/>
      <point x="137" y="499"/>
      <point x="130" y="499" type="curve" smooth="yes"/>
      <point x="123" y="499"/>
      <point x="116" y="496"/>
      <point x="111" y="491" type="curve" smooth="yes"/>
      <point x="109" y="489" type="line" smooth="yes"/>
      <point x="103" y="483"/>
      <point x="100" y="476"/>
      <point x="100" y="470" type="curve" smooth="yes"/>
      <point x="100" y="463"/>
      <point x="104" y="456"/>
      <point x="109" y="450" type="curve" smooth="yes"/>
      <point x="131" y="427" type="line"/>
      <point x="100" y="391"/>
      <point x="85" y="347"/>
      <point x="85" y="300" type="curve" smooth="yes"/>
      <point x="85" y="269"/>
      <point x="93" y="241"/>
      <point x="108" y="217" type="curve"/>
      <point x="82" y="193" type="line" smooth="yes"/>
      <point x="74" y="185"/>
      <point x="69" y="178"/>
      <point x="69" y="170" type="curve" smooth="yes"/>
      <point x="69" y="165"/>
      <point x="72" y="159"/>
      <point x="75" y="156" type="curve" smooth="yes"/>
      <point x="78" y="153" type="line" smooth="yes"/>
      <point x="83" y="148"/>
      <point x="88" y="143"/>
      <point x="94" y="143" type="curve" smooth="yes"/>
      <point x="101" y="143"/>
      <point x="108" y="146"/>
      <point x="116" y="153" type="curve" smooth="yes"/>
      <point x="143" y="178" type="line"/>
      <point x="170" y="157"/>
      <point x="205" y="145"/>
      <point x="244" y="145" type="curve" smooth="yes"/>
      <point x="283" y="145"/>
      <point x="319" y="157"/>
      <point x="351" y="178" type="curve"/>
      <point x="373" y="154" type="line" smooth="yes"/>
      <point x="379" y="148"/>
      <point x="386" y="143"/>
      <point x="393" y="143" type="curve" smooth="yes"/>
      <point x="401" y="143"/>
      <point x="407" y="146"/>
      <point x="413" y="152" type="curve" smooth="yes"/>
      <point x="417" y="156" type="line" smooth="yes"/>
      <point x="422" y="161"/>
      <point x="425" y="167"/>
      <point x="425" y="172" type="curve" smooth="yes"/>
      <point x="425" y="179"/>
      <point x="422" y="186"/>
      <point x="416" y="193" type="curve" smooth="yes"/>
      <point x="394" y="217" type="line"/>
      <point x="423" y="249"/>
      <point x="442" y="293"/>
      <point x="442" y="339" type="curve" smooth="yes"/>
      <point x="442" y="371"/>
      <point x="432" y="401"/>
      <point x="416" y="426" type="curve"/>
      <point x="443" y="450" type="line" smooth="yes"/>
      <point x="453" y="459"/>
      <point x="456" y="466"/>
      <point x="456" y="474" type="curve" smooth="yes"/>
      <point x="456" y="480"/>
      <point x="454" y="485"/>
      <point x="449" y="490" type="curve" smooth="yes"/>
      <point x="446" y="493" type="line" smooth="yes"/>
      <point x="442" y="497"/>
      <point x="434" y="500"/>
      <point x="429" y="500" type="curve" smooth="yes"/>
    </contour>
    <contour>
      <point x="335" y="439"/>
      <point x="380" y="392"/>
      <point x="380" y="333" type="curve" smooth="yes"/>
      <point x="380" y="264"/>
      <point x="317" y="206"/>
      <point x="250" y="206" type="curve" smooth="yes"/>
      <point x="190" y="206"/>
      <point x="146" y="251"/>
      <point x="146" y="309" type="curve" smooth="yes"/>
      <point x="146" y="379"/>
      <point x="206" y="439"/>
      <point x="275" y="439" type="curve" smooth="yes"/>
    </contour>
  </outline>
</glyph>
<glyph name="yen" format="1">
  <advance width="559"/>
  <unicode hex="00A5"/>
  <outline>
    <contour>
      <point x="494" y="355" type="line"/>
      <point x="516" y="355"/>
      <point x="517" y="387"/>
      <point x="517" y="397" type="curve" smooth="yes"/>
      <point x="517" y="412"/>
      <point x="514" y="422"/>
      <point x="501" y="422" type="curve"/>
      <point x="73" y="422" type="line"/>
      <point x="51" y="422"/>
      <point x="50" y="390"/>
      <point x="50" y="380" type="curve" smooth="yes"/>
      <point x="50" y="365"/>
      <point x="53" y="355"/>
      <point x="66" y="355" type="curve"/>
    </contour>
    <contour>
      <point x="477" y="192" type="line"/>
      <point x="499" y="192"/>
      <point x="500" y="224"/>
      <point x="500" y="234" type="curve" smooth="yes"/>
      <point x="500" y="249"/>
      <point x="497" y="259"/>
      <point x="484" y="259" type="curve"/>
      <point x="56" y="259" type="line"/>
      <point x="34" y="259"/>
      <point x="33" y="227"/>
      <point x="33" y="217" type="curve" smooth="yes"/>
      <point x="33" y="202"/>
      <point x="36" y="192"/>
      <point x="49" y="192" type="curve"/>
    </contour>
    <component base="Y"/>
  </outline>
</glyph>
<glyph name="brokenbar" format="1">
  <advance width="250"/>
  <unicode hex="00A6"/>
  <outline>
    <contour>
      <point x="167" y="770" type="line" smooth="yes"/>
      <point x="150" y="770"/>
      <point x="142" y="762"/>
      <point x="141" y="748" type="curve" smooth="yes"/>
      <point x="130" y="640"/>
      <point x="107" y="438"/>
      <point x="107" y="425" type="curve" smooth="yes"/>
      <point x="107" y="411"/>
      <point x="111" y="403"/>
      <point x="129" y="403" type="curve" smooth="yes"/>
      <point x="139" y="403" type="line" smooth="yes"/>
      <point x="156" y="403"/>
      <point x="163" y="411"/>
      <point x="165" y="425" type="curve" smooth="yes"/>
      <point x="176" y="533"/>
      <point x="199" y="738"/>
      <point x="199" y="748" type="curve" smooth="yes"/>
      <point x="199" y="762"/>
      <point x="194" y="770"/>
      <point x="177" y="770" type="curve" smooth="yes"/>
    </contour>
    <contour>
      <point x="110" y="226" type="line" smooth="yes"/>
      <point x="92" y="226"/>
      <point x="85" y="218"/>
      <point x="84" y="204" type="curve" smooth="yes"/>
      <point x="73" y="97"/>
      <point x="50" y="-104"/>
      <point x="50" y="-118" type="curve" smooth="yes"/>
      <point x="50" y="-132"/>
      <point x="54" y="-140"/>
      <point x="72" y="-140" type="curve" smooth="yes"/>
      <point x="82" y="-140" type="line" smooth="yes"/>
      <point x="99" y="-140"/>
      <point x="106" y="-132"/>
      <point x="108" y="-118" type="curve" smooth="yes"/>
      <point x="119" y="-11"/>
      <point x="142" y="193"/>
      <point x="142" y="204" type="curve" smooth="yes"/>
      <point x="142" y="218"/>
      <point x="137" y="226"/>
      <point x="120" y="226" type="curve" smooth="yes"/>
    </contour>
  </outline>
</glyph>
<glyph name="section" format="1">
  <advance width="429"/>
  <unicode hex="00A7"/>
  <outline>
    <contour>
      <point x="182" y="706"/>
      <point x="86" y="662"/>
      <point x="86" y="549" type="curve" smooth="yes"/>
      <point x="86" y="515"/>
      <point x="98" y="491"/>
      <point x="116" y="474" type="curve"/>
      <point x="78" y="444"/>
      <point x="49" y="398"/>
      <point x="49" y="338" type="curve" smooth="yes"/>
      <point x="49" y="169"/>
      <point x="255" y="224"/>
      <point x="255" y="131" type="curve" smooth="yes"/>
      <point x="255" y="96"/>
      <point x="225" y="66"/>
      <point x="166" y="66" type="curve" smooth="yes"/>
      <point x="113" y="66"/>
      <point x="75" y="95"/>
      <point x="66" y="95" type="curve" smooth="yes"/>
      <point x="57" y="95"/>
      <point x="50" y="73"/>
      <point x="50" y="41" type="curve" smooth="yes"/>
      <point x="50" y="7"/>
      <point x="122" y="-6"/>
      <point x="167" y="-6" type="curve" smooth="yes"/>
      <point x="246" y="-6"/>
      <point x="342" y="38"/>
      <point x="342" y="154" type="curve" smooth="yes"/>
      <point x="342" y="186"/>
      <point x="329" y="210"/>
      <point x="311" y="227" type="curve"/>
      <point x="351" y="257"/>
      <point x="379" y="302"/>
      <point x="379" y="366" type="curve" smooth="yes"/>
      <point x="379" y="532"/>
      <point x="174" y="477"/>
      <point x="174" y="568" type="curve" smooth="yes"/>
      <point x="174" y="605"/>
      <point x="203" y="634"/>
      <point x="262" y="634" type="curve" smooth="yes"/>
      <point x="312" y="634"/>
      <point x="343" y="610"/>
      <point x="349" y="610" type="curve" smooth="yes"/>
      <point x="365" y="610"/>
      <point x="385" y="647"/>
      <point x="385" y="658" type="curve" smooth="yes"/>
      <point x="385" y="694"/>
      <point x="306" y="706"/>
      <point x="262" y="706" type="curve" smooth="yes"/>
    </contour>
    <contour>
      <point x="248" y="420"/>
      <point x="293" y="404"/>
      <point x="293" y="353" type="curve" smooth="yes"/>
      <point x="293" y="297"/>
      <point x="259" y="273"/>
      <point x="229" y="266" type="curve"/>
      <point x="179" y="281"/>
      <point x="134" y="296"/>
      <point x="134" y="349" type="curve" smooth="yes"/>
      <point x="134" y="403"/>
      <point x="170" y="427"/>
      <point x="199" y="435" type="curve"/>
    </contour>
  </outline>
</glyph>
<glyph name="dieresis" format="1">
  <advance width="320"/>
  <unicode hex="00A8"/>
  <outline>
    <contour>
      <point x="207" y="702"/>
      <point x="194" y="693"/>
      <point x="193" y="680" type="curve" smooth="yes"/>
      <point x="188" y="629" type="line"/>
      <point x="188" y="615"/>
      <point x="196" y="607"/>
      <point x="226" y="607" type="curve" smooth="yes"/>
      <point x="256" y="607"/>
      <point x="270" y="616"/>
      <point x="272" y="629" type="curve" smooth="yes"/>
      <point x="277" y="680" type="line"/>
      <point x="277" y="694"/>
      <point x="268" y="702"/>
      <point x="239" y="702" type="curve" smooth="yes"/>
    </contour>
    <contour>
      <point x="63" y="702"/>
      <point x="51" y="693"/>
      <point x="49" y="680" type="curve" smooth="yes"/>
      <point x="44" y="629" type="line"/>
      <point x="44" y="615"/>
      <point x="52" y="607"/>
      <point x="82" y="607" type="curve" smooth="yes"/>
      <point x="112" y="607"/>
      <point x="126" y="616"/>
      <point x="128" y="629" type="curve" smooth="yes"/>
      <point x="133" y="680" type="line"/>
      <point x="133" y="694"/>
      <point x="124" y="702"/>
      <point x="95" y="702" type="curve" smooth="yes"/>
    </contour>
    <contour>
      <point x="170" y="700" type="move" name="top"/>
    </contour>
    <contour>
      <point x="150" y="523" type="move" name="_top"/>
    </contour>
  </outline>
</glyph>
<glyph name="ordfeminine" format="1">
  <advance width="319"/>
  <unicode hex="00AA"/>
  <outline>
    <contour>
      <point x="86" y="706"/>
      <point x="38" y="640"/>
      <point x="38" y="549" type="curve" smooth="yes"/>
      <point x="38" y="463"/>
      <point x="90" y="442"/>
      <point x="123" y="442" type="curve" smooth="yes"/>
      <point x="159" y="442"/>
      <point x="198" y="466"/>
      <point x="215" y="529" type="curve"/>
      <point x="202" y="519" type="line"/>
      <point x="202" y="490" type="line" smooth="yes"/>
      <point x="202" y="457"/>
      <point x="219" y="442"/>
      <point x="247" y="442" type="curve" smooth="yes"/>
      <point x="256" y="442"/>
      <point x="274" y="446"/>
      <point x="276" y="458" type="curve" smooth="yes"/>
      <point x="278" y="469"/>
      <point x="278" y="476"/>
      <point x="278" y="477" type="curve" smooth="yes"/>
      <point x="278" y="480"/>
      <point x="277" y="480"/>
      <point x="275" y="480" type="curve" smooth="yes"/>
      <point x="272" y="480"/>
      <point x="268" y="478"/>
      <point x="262" y="478" type="curve" smooth="yes"/>
      <point x="254" y="478"/>
      <point x="244" y="478"/>
      <point x="244" y="498" type="curve" smooth="yes"/>
      <point x="244" y="511"/>
      <point x="264" y="694"/>
      <point x="264" y="694" type="curve"/>
      <point x="264" y="700"/>
      <point x="262" y="704"/>
      <point x="253" y="704" type="curve" smooth="yes"/>
      <point x="249" y="704" type="line" smooth="yes"/>
      <point x="235" y="704"/>
      <point x="231" y="694"/>
      <point x="227" y="679" type="curve"/>
      <point x="215" y="690"/>
      <point x="193" y="706"/>
      <point x="161" y="706" type="curve" smooth="yes"/>
    </contour>
    <contour>
      <point x="191" y="670"/>
      <point x="209" y="658"/>
      <point x="219" y="651" type="curve"/>
      <point x="217" y="643"/>
      <point x="212" y="600"/>
      <point x="208" y="561" type="curve"/>
      <point x="189" y="496"/>
      <point x="154" y="478"/>
      <point x="132" y="478" type="curve" smooth="yes"/>
      <point x="104" y="478"/>
      <point x="81" y="495"/>
      <point x="81" y="552" type="curve" smooth="yes"/>
      <point x="81" y="611"/>
      <point x="98" y="670"/>
      <point x="165" y="670" type="curve" smooth="yes"/>
    </contour>
  </outline>
</glyph>
<glyph name="guillemotleft" format="1">
  <advance width="471"/>
  <unicode hex="00AB"/>
  <outline>
    <contour>
      <point x="393" y="454"/>
      <point x="386" y="450"/>
      <point x="378" y="442" type="curve" smooth="yes"/>
      <point x="231" y="286" type="line" smooth="yes"/>
      <point x="219" y="273"/>
      <point x="216" y="265"/>
      <point x="216" y="255" type="curve" smooth="yes"/>
      <point x="216" y="247"/>
      <point x="219" y="240"/>
      <point x="226" y="230" type="curve" smooth="yes"/>
      <point x="339" y="74" type="line" smooth="yes"/>
      <point x="345" y="66"/>
      <point x="352" y="61"/>
      <point x="360" y="61" type="curve" smooth="yes"/>
      <point x="379" y="61"/>
      <point x="398" y="86"/>
      <point x="398" y="97" type="curve" smooth="yes"/>
      <point x="398" y="102"/>
      <point x="396" y="107"/>
      <point x="392" y="113" type="curve" smooth="yes"/>
      <point x="297" y="258" type="line"/>
      <point x="423" y="402" type="line"/>
      <point x="428" y="410"/>
      <point x="433" y="418"/>
      <point x="433" y="424" type="curve" smooth="yes"/>
      <point x="433" y="440"/>
      <point x="412" y="454"/>
      <point x="401" y="454" type="curve" smooth="yes"/>
    </contour>
    <contour>
      <point x="221" y="454"/>
      <point x="214" y="450"/>
      <point x="206" y="442" type="curve" smooth="yes"/>
      <point x="59" y="286" type="line" smooth="yes"/>
      <point x="47" y="273"/>
      <point x="44" y="265"/>
      <point x="44" y="255" type="curve" smooth="yes"/>
      <point x="44" y="247"/>
      <point x="47" y="240"/>
      <point x="54" y="230" type="curve" smooth="yes"/>
      <point x="167" y="74" type="line" smooth="yes"/>
      <point x="173" y="66"/>
      <point x="180" y="61"/>
      <point x="188" y="61" type="curve" smooth="yes"/>
      <point x="207" y="61"/>
      <point x="226" y="86"/>
      <point x="226" y="97" type="curve" smooth="yes"/>
      <point x="226" y="102"/>
      <point x="224" y="107"/>
      <point x="220" y="113" type="curve" smooth="yes"/>
      <point x="125" y="258" type="line"/>
      <point x="251" y="402" type="line"/>
      <point x="256" y="410"/>
      <point x="261" y="418"/>
      <point x="261" y="424" type="curve" smooth="yes"/>
      <point x="261" y="440"/>
      <point x="240" y="454"/>
      <point x="229" y="454" type="curve" smooth="yes"/>
    </contour>
  </outline>
</glyph>
<glyph name="logicalnot" format="1">
  <advance width="560"/>
  <unicode hex="00AC"/>
  <outline>
    <contour>
      <point x="71" y="338" type="line" smooth="yes"/>
      <point x="48" y="338"/>
      <point x="46" y="312"/>
      <point x="46" y="285" type="curve" smooth="yes"/>
      <point x="46" y="271"/>
      <point x="52" y="265"/>
      <point x="64" y="265" type="curve" smooth="yes"/>
      <point x="455" y="265" type="line"/>
      <point x="437" y="99" type="line"/>
      <point x="437" y="85"/>
      <point x="443" y="77"/>
      <point x="465" y="77" type="curve" smooth="yes"/>
      <point x="478" y="77" type="line" smooth="yes"/>
      <point x="498" y="77"/>
      <point x="508" y="85"/>
      <point x="510" y="99" type="curve" smooth="yes"/>
      <point x="532" y="308" type="line"/>
      <point x="532" y="328"/>
      <point x="527" y="338"/>
      <point x="505" y="338" type="curve" smooth="yes"/>
    </contour>
  </outline>
</glyph>
<glyph name="uni00AD" format="1">
  <advance width="320"/>
  <unicode hex="00AD"/>
  <outline>
    <contour>
      <point x="65" y="301" type="line" smooth="yes"/>
      <point x="41" y="301"/>
      <point x="40" y="267"/>
      <point x="40" y="256" type="curve" smooth="yes"/>
      <point x="40" y="240"/>
      <point x="43" y="229"/>
      <point x="57" y="229" type="curve" smooth="yes"/>
      <point x="251" y="229" type="line" smooth="yes"/>
      <point x="275" y="229"/>
      <point x="276" y="263"/>
      <point x="276" y="274" type="curve" smooth="yes"/>
      <point x="276" y="290"/>
      <point x="273" y="301"/>
      <point x="259" y="301" type="curve" smooth="yes"/>
    </contour>
  </outline>
</glyph>
<glyph name="registered" format="1">
  <advance width="739"/>
  <unicode hex="00AE"/>
  <outline>
    <contour>
      <point x="170" y="709"/>
      <point x="10" y="552"/>
      <point x="10" y="353" type="curve" smooth="yes"/>
      <point x="10" y="154"/>
      <point x="170" y="-6"/>
      <point x="369" y="-6" type="curve" smooth="yes"/>
      <point x="568" y="-6"/>
      <point x="729" y="154"/>
      <point x="729" y="353" type="curve" smooth="yes"/>
      <point x="729" y="552"/>
      <point x="568" y="709"/>
      <point x="369" y="709" type="curve" smooth="yes"/>
    </contour>
    <contour>
      <point x="541" y="661"/>
      <point x="681" y="525"/>
      <point x="681" y="353" type="curve" smooth="yes"/>
      <point x="681" y="182"/>
      <point x="541" y="42"/>
      <point x="369" y="42" type="curve" smooth="yes"/>
      <point x="198" y="42"/>
      <point x="58" y="182"/>
      <point x="58" y="353" type="curve" smooth="yes"/>
      <point x="58" y="525"/>
      <point x="198" y="661"/>
      <point x="369" y="661" type="curve" smooth="yes"/>
    </contour>
    <contour>
      <point x="267" y="558" type="line" smooth="yes"/>
      <point x="254" y="558"/>
      <point x="249" y="553"/>
      <point x="249" y="540" type="curve" smooth="yes"/>
      <point x="249" y="157" type="line" smooth="yes"/>
      <point x="249" y="149"/>
      <point x="256" y="144"/>
      <point x="273" y="144" type="curve" smooth="yes"/>
      <point x="277" y="144" type="line" smooth="yes"/>
      <point x="294" y="144"/>
      <point x="301" y="149"/>
      <point x="301" y="157" type="curve" smooth="yes"/>
      <point x="301" y="327" type="line"/>
      <point x="354" y="327" type="line" smooth="yes"/>
      <point x="400" y="327"/>
      <point x="424" y="315"/>
      <point x="442" y="269" type="curve" smooth="yes"/>
      <point x="487" y="153" type="line" smooth="yes"/>
      <point x="489" y="148"/>
      <point x="498" y="144"/>
      <point x="510" y="144" type="curve" smooth="yes"/>
      <point x="516" y="144" type="line" smooth="yes"/>
      <point x="533" y="144"/>
      <point x="541" y="148"/>
      <point x="541" y="153" type="curve" smooth="yes"/>
      <point x="541" y="155"/>
      <point x="540" y="158"/>
      <point x="539" y="162" type="curve" smooth="yes"/>
      <point x="493" y="278" type="line" smooth="yes"/>
      <point x="477" y="317"/>
      <point x="465" y="342"/>
      <point x="440" y="351" type="curve"/>
      <point x="440" y="355" type="line"/>
      <point x="481" y="371"/>
      <point x="508" y="403"/>
      <point x="508" y="454" type="curve" smooth="yes"/>
      <point x="508" y="528"/>
      <point x="458" y="558"/>
      <point x="366" y="558" type="curve" smooth="yes"/>
    </contour>
    <contour>
      <point x="422" y="513"/>
      <point x="454" y="492"/>
      <point x="454" y="444" type="curve" smooth="yes"/>
      <point x="454" y="405"/>
      <point x="421" y="372"/>
      <point x="379" y="372" type="curve" smooth="yes"/>
      <point x="301" y="372" type="line"/>
      <point x="301" y="513" type="line"/>
      <point x="375" y="513" type="line" smooth="yes"/>
    </contour>
  </outline>
</glyph>
<glyph name="macron" format="1">
  <advance width="320"/>
  <unicode hex="00AF"/>
  <outline>
    <contour>
      <point x="48" y="683" type="line" smooth="yes"/>
      <point x="24" y="683"/>
      <point x="23" y="650"/>
      <point x="23" y="639" type="curve" smooth="yes"/>
      <point x="23" y="623"/>
      <point x="26" y="612"/>
      <point x="40" y="612" type="curve" smooth="yes"/>
      <point x="266" y="612" type="line" smooth="yes"/>
      <point x="290" y="612"/>
      <point x="291" y="646"/>
      <point x="291" y="657" type="curve" smooth="yes"/>
      <point x="291" y="673"/>
      <point x="288" y="683"/>
      <point x="274" y="683" type="curve" smooth="yes"/>
    </contour>
    <contour>
      <point x="172" y="700" type="move" name="top"/>
    </contour>
    <contour>
      <point x="157" y="523" type="move" name="_top"/>
    </contour>
  </outline>
</glyph>
<glyph name="degree" format="1">
  <advance width="345"/>
  <unicode hex="00B0"/>
  <outline>
    <contour>
      <point x="98" y="706"/>
      <point x="36" y="642"/>
      <point x="36" y="560" type="curve" smooth="yes"/>
      <point x="36" y="493"/>
      <point x="84" y="441"/>
      <point x="156" y="441" type="curve" smooth="yes"/>
      <point x="237" y="441"/>
      <point x="303" y="503"/>
      <point x="303" y="587" type="curve" smooth="yes"/>
      <point x="303" y="654"/>
      <point x="251" y="706"/>
      <point x="183" y="706" type="curve" smooth="yes"/>
    </contour>
    <contour>
      <point x="222" y="661"/>
      <point x="253" y="626"/>
      <point x="253" y="582" type="curve" smooth="yes"/>
      <point x="253" y="526"/>
      <point x="209" y="486"/>
      <point x="160" y="486" type="curve" smooth="yes"/>
      <point x="117" y="486"/>
      <point x="85" y="520"/>
      <point x="85" y="563" type="curve" smooth="yes"/>
      <point x="85" y="614"/>
      <point x="126" y="661"/>
      <point x="179" y="661" type="curve" smooth="yes"/>
    </contour>
  </outline>
</glyph>
<glyph name="acute" format="1">
  <advance width="320"/>
  <unicode hex="00B4"/>
  <outline>
    <contour>
      <point x="169" y="732"/>
      <point x="149" y="725"/>
      <point x="136" y="706" type="curve" smooth="yes"/>
      <point x="79" y="623"/>
      <point x="67" y="603"/>
      <point x="67" y="594" type="curve" smooth="yes"/>
      <point x="67" y="588"/>
      <point x="74" y="585"/>
      <point x="89" y="585" type="curve" smooth="yes"/>
      <point x="109" y="585"/>
      <point x="130" y="591"/>
      <point x="142" y="603" type="curve" smooth="yes"/>
      <point x="237" y="700"/>
      <point x="248" y="709"/>
      <point x="248" y="720" type="curve" smooth="yes"/>
      <point x="248" y="729"/>
      <point x="232" y="732"/>
      <point x="201" y="732" type="curve" smooth="yes"/>
    </contour>
    <contour>
      <point x="150" y="700" type="move" name="top"/>
    </contour>
    <contour>
      <point x="105" y="523" type="move" name="_top"/>
    </contour>
  </outline>
</glyph>
<glyph name="paragraph" format="1">
  <advance width="515"/>
  <unicode hex="00B6"/>
  <outline>
    <contour>
      <point x="313" y="700" type="line" smooth="yes"/>
      <point x="181" y="700"/>
      <point x="61" y="609"/>
      <point x="61" y="450" type="curve" smooth="yes"/>
      <point x="61" y="343"/>
      <point x="136" y="259"/>
      <point x="241" y="247" type="curve"/>
      <point x="199" y="-151" type="line"/>
      <point x="199" y="-165"/>
      <point x="202" y="-173"/>
      <point x="217" y="-173" type="curve" smooth="yes"/>
      <point x="239" y="-173" type="line" smooth="yes"/>
      <point x="251" y="-173"/>
      <point x="259" y="-165"/>
      <point x="261" y="-151" type="curve" smooth="yes"/>
      <point x="344" y="638" type="line"/>
      <point x="422" y="638" type="line"/>
      <point x="339" y="-151" type="line"/>
      <point x="339" y="-165"/>
      <point x="342" y="-173"/>
      <point x="357" y="-173" type="curve" smooth="yes"/>
      <point x="379" y="-173" type="line" smooth="yes"/>
      <point x="391" y="-173"/>
      <point x="399" y="-165"/>
      <point x="401" y="-151" type="curve" smooth="yes"/>
      <point x="484" y="638" type="line"/>
      <point x="520" y="638" type="line" smooth="yes"/>
      <point x="534" y="638"/>
      <point x="541" y="644"/>
      <point x="542" y="658" type="curve" smooth="yes"/>
      <point x="544" y="680" type="line"/>
      <point x="544" y="694"/>
      <point x="542" y="700"/>
      <point x="526" y="700" type="curve" smooth="yes"/>
    </contour>
  </outline>
</glyph>
<glyph name="periodcentered" format="1">
  <advance width="267"/>
  <unicode hex="00B7"/>
  <outline>
    <contour>
      <point x="113" y="412"/>
      <point x="89" y="387"/>
      <point x="89" y="354" type="curve" smooth="yes"/>
      <point x="89" y="328"/>
      <point x="108" y="309"/>
      <point x="135" y="309" type="curve" smooth="yes"/>
      <point x="166" y="309"/>
      <point x="192" y="331"/>
      <point x="192" y="366" type="curve" smooth="yes"/>
      <point x="192" y="392"/>
      <point x="173" y="412"/>
      <point x="146" y="412" type="curve" smooth="yes"/>
    </contour>
    <contour>
      <point x="140" y="335" type="move" name="_center"/>
    </contour>
  </outline>
</glyph>
<glyph name="onequarter" format="1">
  <advance width="671"/>
  <unicode hex="00BC"/>
  <outline>
    <contour>
      <point x="567" y="703" type="line" smooth="yes"/>
      <point x="554" y="703"/>
      <point x="542" y="697"/>
      <point x="535" y="687" type="curve" smooth="yes"/>
      <point x="58" y="14" type="line"/>
      <point x="54" y="10"/>
      <point x="53" y="6"/>
      <point x="53" y="4" type="curve" smooth="yes"/>
      <point x="53" y="0"/>
      <point x="57" y="-2"/>
      <point x="66" y="-2" type="curve" smooth="yes"/>
      <point x="79" y="-2" type="line" smooth="yes"/>
      <point x="92" y="-2"/>
      <point x="103" y="2"/>
      <point x="111" y="14" type="curve" smooth="yes"/>
      <point x="588" y="687" type="line" smooth="yes"/>
      <point x="591" y="691"/>
      <point x="593" y="694"/>
      <point x="593" y="697" type="curve" smooth="yes"/>
      <point x="593" y="701"/>
      <point x="589" y="703"/>
      <point x="580" y="703" type="curve" smooth="yes"/>
    </contour>
    <contour>
      <point x="84" y="673" type="line" smooth="yes"/>
      <point x="74" y="671"/>
      <point x="72" y="667"/>
      <point x="72" y="656" type="curve" smooth="yes"/>
      <point x="72" y="645"/>
      <point x="74" y="633"/>
      <point x="81" y="633" type="curve"/>
      <point x="158" y="650" type="line"/>
      <point x="122" y="309" type="line"/>
      <point x="122" y="302"/>
      <point x="127" y="297"/>
      <point x="143" y="297" type="curve" smooth="yes"/>
      <point x="147" y="297" type="line" smooth="yes"/>
      <point x="162" y="297"/>
      <point x="169" y="301"/>
      <point x="170" y="309" type="curve" smooth="yes"/>
      <point x="210" y="690" type="line"/>
      <point x="210" y="697"/>
      <point x="203" y="702"/>
      <point x="193" y="702" type="curve"/>
    </contour>
    <contour>
      <point x="557" y="404" type="line" smooth="yes"/>
      <point x="549" y="404"/>
      <point x="541" y="401"/>
      <point x="537" y="396" type="curve" smooth="yes"/>
      <point x="318" y="122" type="line" smooth="yes"/>
      <point x="317" y="120"/>
      <point x="316" y="117"/>
      <point x="316" y="112" type="curve" smooth="yes"/>
      <point x="316" y="101"/>
      <point x="321" y="87"/>
      <point x="327" y="87" type="curve" smooth="yes"/>
      <point x="502" y="87" type="line"/>
      <point x="494" y="11" type="line"/>
      <point x="494" y="2"/>
      <point x="498" y="-2"/>
      <point x="511" y="-2" type="curve" smooth="yes"/>
      <point x="524" y="-2" type="line" smooth="yes"/>
      <point x="534" y="-2"/>
      <point x="541" y="3"/>
      <point x="542" y="11" type="curve" smooth="yes"/>
      <point x="550" y="87" type="line"/>
      <point x="588" y="87" type="line" smooth="yes"/>
      <point x="602" y="87"/>
      <point x="603" y="106"/>
      <point x="603" y="112" type="curve" smooth="yes"/>
      <point x="603" y="122"/>
      <point x="601" y="128"/>
      <point x="593" y="128" type="curve" smooth="yes"/>
      <point x="554" y="128" type="line"/>
      <point x="582" y="391" type="line"/>
      <point x="582" y="399"/>
      <point x="579" y="404"/>
      <point x="566" y="404" type="curve" smooth="yes"/>
    </contour>
    <contour>
      <point x="523" y="287" type="line"/>
      <point x="506" y="128" type="line"/>
      <point x="374" y="128" type="line"/>
      <point x="524" y="321" type="line"/>
      <point x="527" y="320" type="line"/>
    </contour>
  </outline>
</glyph>
<glyph name="onehalf" format="1">
  <advance width="746"/>
  <unicode hex="00BD"/>
  <outline>
    <contour>
      <point x="567" y="703" type="line" smooth="yes"/>
      <point x="554" y="703"/>
      <point x="542" y="697"/>
      <point x="535" y="687" type="curve" smooth="yes"/>
      <point x="58" y="14" type="line"/>
      <point x="54" y="10"/>
      <point x="53" y="6"/>
      <point x="53" y="4" type="curve" smooth="yes"/>
      <point x="53" y="0"/>
      <point x="57" y="-2"/>
      <point x="66" y="-2" type="curve" smooth="yes"/>
      <point x="79" y="-2" type="line" smooth="yes"/>
      <point x="92" y="-2"/>
      <point x="103" y="2"/>
      <point x="111" y="14" type="curve" smooth="yes"/>
      <point x="588" y="687" type="line" smooth="yes"/>
      <point x="591" y="691"/>
      <point x="593" y="694"/>
      <point x="593" y="697" type="curve" smooth="yes"/>
      <point x="593" y="701"/>
      <point x="589" y="703"/>
      <point x="580" y="703" type="curve" smooth="yes"/>
    </contour>
    <contour>
      <point x="84" y="673" type="line" smooth="yes"/>
      <point x="74" y="671"/>
      <point x="72" y="667"/>
      <point x="72" y="656" type="curve" smooth="yes"/>
      <point x="72" y="645"/>
      <point x="74" y="633"/>
      <point x="81" y="633" type="curve"/>
      <point x="158" y="650" type="line"/>
      <point x="122" y="309" type="line"/>
      <point x="122" y="302"/>
      <point x="127" y="297"/>
      <point x="143" y="297" type="curve" smooth="yes"/>
      <point x="147" y="297" type="line" smooth="yes"/>
      <point x="162" y="297"/>
      <point x="169" y="301"/>
      <point x="170" y="309" type="curve" smooth="yes"/>
      <point x="210" y="690" type="line"/>
      <point x="210" y="697"/>
      <point x="203" y="702"/>
      <point x="193" y="702" type="curve"/>
    </contour>
    <contour>
      <point x="532" y="407"/>
      <point x="460" y="389"/>
      <point x="460" y="364" type="curve" smooth="yes"/>
      <point x="460" y="355"/>
      <point x="469" y="336"/>
      <point x="475" y="336" type="curve" smooth="yes"/>
      <point x="485" y="336"/>
      <point x="512" y="365"/>
      <point x="565" y="365" type="curve" smooth="yes"/>
      <point x="606" y="365"/>
      <point x="631" y="345"/>
      <point x="631" y="313" type="curve" smooth="yes"/>
      <point x="631" y="290"/>
      <point x="619" y="262"/>
      <point x="592" y="232" type="curve" smooth="yes"/>
      <point x="414" y="35" type="line" smooth="yes"/>
      <point x="413" y="34"/>
      <point x="413" y="32"/>
      <point x="413" y="30" type="curve" smooth="yes"/>
      <point x="413" y="20"/>
      <point x="419" y="0"/>
      <point x="425" y="0" type="curve" smooth="yes"/>
      <point x="640" y="0" type="line" smooth="yes"/>
      <point x="654" y="0"/>
      <point x="655" y="20"/>
      <point x="655" y="26" type="curve" smooth="yes"/>
      <point x="655" y="35"/>
      <point x="653" y="42"/>
      <point x="645" y="42" type="curve" smooth="yes"/>
      <point x="479" y="42" type="line"/>
      <point x="634" y="213" type="line" smooth="yes"/>
      <point x="668" y="250"/>
      <point x="681" y="279"/>
      <point x="681" y="321" type="curve" smooth="yes"/>
      <point x="681" y="372"/>
      <point x="638" y="407"/>
      <point x="568" y="407" type="curve" smooth="yes"/>
    </contour>
  </outline>
</glyph>
<glyph name="threequarters" format="1">
  <advance width="738"/>
  <unicode hex="00BE"/>
  <outline>
    <contour>
      <point x="633" y="703" type="line" smooth="yes"/>
      <point x="620" y="703"/>
      <point x="608" y="697"/>
      <point x="601" y="687" type="curve" smooth="yes"/>
      <point x="124" y="14" type="line"/>
      <point x="120" y="10"/>
      <point x="119" y="6"/>
      <point x="119" y="4" type="curve" smooth="yes"/>
      <point x="119" y="0"/>
      <point x="123" y="-2"/>
      <point x="132" y="-2" type="curve" smooth="yes"/>
      <point x="145" y="-2" type="line" smooth="yes"/>
      <point x="158" y="-2"/>
      <point x="169" y="2"/>
      <point x="177" y="14" type="curve" smooth="yes"/>
      <point x="654" y="687" type="line" smooth="yes"/>
      <point x="657" y="691"/>
      <point x="659" y="694"/>
      <point x="659" y="697" type="curve" smooth="yes"/>
      <point x="659" y="701"/>
      <point x="655" y="703"/>
      <point x="646" y="703" type="curve" smooth="yes"/>
    </contour>
    <contour>
      <point x="156" y="706"/>
      <point x="85" y="692"/>
      <point x="85" y="675" type="curve" smooth="yes"/>
      <point x="85" y="666"/>
      <point x="95" y="646"/>
      <point x="101" y="646" type="curve" smooth="yes"/>
      <point x="111" y="646"/>
      <point x="134" y="665"/>
      <point x="186" y="665" type="curve" smooth="yes"/>
      <point x="237" y="665"/>
      <point x="249" y="637"/>
      <point x="249" y="615" type="curve" smooth="yes"/>
      <point x="249" y="589"/>
      <point x="228" y="534"/>
      <point x="164" y="534" type="curve" smooth="yes"/>
      <point x="148" y="534" type="line" smooth="yes"/>
      <point x="134" y="534"/>
      <point x="133" y="515"/>
      <point x="133" y="508" type="curve" smooth="yes"/>
      <point x="133" y="499"/>
      <point x="135" y="493"/>
      <point x="143" y="493" type="curve" smooth="yes"/>
      <point x="163" y="493" type="line" smooth="yes"/>
      <point x="210" y="493"/>
      <point x="242" y="479"/>
      <point x="242" y="431" type="curve" smooth="yes"/>
      <point x="242" y="356"/>
      <point x="187" y="337"/>
      <point x="150" y="337" type="curve" smooth="yes"/>
      <point x="97" y="337"/>
      <point x="66" y="359"/>
      <point x="62" y="359" type="curve" smooth="yes"/>
      <point x="58" y="359"/>
      <point x="53" y="356"/>
      <point x="53" y="325" type="curve" smooth="yes"/>
      <point x="53" y="299"/>
      <point x="134" y="296"/>
      <point x="150" y="296" type="curve" smooth="yes"/>
      <point x="208" y="296"/>
      <point x="292" y="331"/>
      <point x="292" y="431" type="curve" smooth="yes"/>
      <point x="292" y="483"/>
      <point x="261" y="514"/>
      <point x="229" y="522" type="curve"/>
      <point x="230" y="525" type="line"/>
      <point x="267" y="538"/>
      <point x="298" y="570"/>
      <point x="298" y="619" type="curve" smooth="yes"/>
      <point x="298" y="677"/>
      <point x="255" y="706"/>
      <point x="192" y="706" type="curve" smooth="yes"/>
    </contour>
    <contour>
      <point x="625" y="404" type="line" smooth="yes"/>
      <point x="617" y="404"/>
      <point x="609" y="401"/>
      <point x="605" y="396" type="curve" smooth="yes"/>
      <point x="386" y="122" type="line" smooth="yes"/>
      <point x="385" y="120"/>
      <point x="384" y="117"/>
      <point x="384" y="112" type="curve" smooth="yes"/>
      <point x="384" y="101"/>
      <point x="389" y="87"/>
      <point x="395" y="87" type="curve" smooth="yes"/>
      <point x="570" y="87" type="line"/>
      <point x="562" y="11" type="line"/>
      <point x="562" y="2"/>
      <point x="566" y="-2"/>
      <point x="579" y="-2" type="curve" smooth="yes"/>
      <point x="592" y="-2" type="line" smooth="yes"/>
      <point x="602" y="-2"/>
      <point x="609" y="3"/>
      <point x="610" y="11" type="curve" smooth="yes"/>
      <point x="618" y="87" type="line"/>
      <point x="656" y="87" type="line" smooth="yes"/>
      <point x="670" y="87"/>
      <point x="671" y="106"/>
      <point x="671" y="112" type="curve" smooth="yes"/>
      <point x="671" y="122"/>
      <point x="669" y="128"/>
      <point x="661" y="128" type="curve" smooth="yes"/>
      <point x="622" y="128" type="line"/>
      <point x="650" y="391" type="line"/>
      <point x="650" y="399"/>
      <point x="647" y="404"/>
      <point x="634" y="404" type="curve" smooth="yes"/>
    </contour>
    <contour>
      <point x="591" y="283" type="line"/>
      <point x="574" y="128" type="line"/>
      <point x="442" y="128" type="line"/>
      <point x="592" y="321" type="line"/>
      <point x="595" y="320" type="line"/>
    </contour>
  </outline>
</glyph>
<glyph name="Eth" format="1">
  <advance width="696"/>
  <unicode hex="00D0"/>
  <outline>
    <contour>
      <point x="280" y="320" type="line"/>
      <point x="305" y="320"/>
      <point x="305" y="351"/>
      <point x="305" y="374" type="curve" smooth="yes"/>
      <point x="305" y="389"/>
      <point x="300" y="396"/>
      <point x="288" y="396" type="curve"/>
      <point x="24" y="396" type="line"/>
      <point x="-1" y="396"/>
      <point x="-1" y="365"/>
      <point x="-1" y="342" type="curve" smooth="yes"/>
      <point x="-1" y="327"/>
      <point x="4" y="320"/>
      <point x="16" y="320" type="curve"/>
    </contour>
    <component base="D"/>
  </outline>
</glyph>
<glyph name="germandbls" format="1">
  <advance width="554"/>
  <unicode hex="00DF"/>
  <outline>
    <contour>
      <point x="205" y="706"/>
      <point x="118" y="630"/>
      <point x="107" y="521" type="curve" smooth="yes"/>
      <point x="54" y="20" type="line"/>
      <point x="54" y="6"/>
      <point x="63" y="-2"/>
      <point x="92" y="-2" type="curve" smooth="yes"/>
      <point x="96" y="-2" type="line" smooth="yes"/>
      <point x="124" y="-2"/>
      <point x="136" y="6"/>
      <point x="138" y="20" type="curve" smooth="yes"/>
      <point x="191" y="521" type="line" smooth="yes"/>
      <point x="198" y="591"/>
      <point x="246" y="634"/>
      <point x="314" y="634" type="curve" smooth="yes"/>
      <point x="363" y="634"/>
      <point x="415" y="617"/>
      <point x="415" y="545" type="curve" smooth="yes"/>
      <point x="415" y="472"/>
      <point x="352" y="412"/>
      <point x="283" y="412" type="curve" smooth="yes"/>
      <point x="271" y="412" type="line" smooth="yes"/>
      <point x="247" y="412"/>
      <point x="246" y="378"/>
      <point x="246" y="367" type="curve" smooth="yes"/>
      <point x="246" y="351"/>
      <point x="249" y="340"/>
      <point x="263" y="340" type="curve" smooth="yes"/>
      <point x="298" y="340" type="line" smooth="yes"/>
      <point x="362" y="340"/>
      <point x="411" y="297"/>
      <point x="411" y="225" type="curve" smooth="yes"/>
      <point x="411" y="128"/>
      <point x="344" y="72"/>
      <point x="270" y="72" type="curve" smooth="yes"/>
      <point x="235" y="72" type="line" smooth="yes"/>
      <point x="211" y="72"/>
      <point x="210" y="38"/>
      <point x="210" y="27" type="curve" smooth="yes"/>
      <point x="210" y="11"/>
      <point x="213" y="0"/>
      <point x="227" y="0" type="curve" smooth="yes"/>
      <point x="261" y="0" type="line" smooth="yes"/>
      <point x="385" y="0"/>
      <point x="499" y="81"/>
      <point x="499" y="230" type="curve" smooth="yes"/>
      <point x="499" y="305"/>
      <point x="461" y="366"/>
      <point x="386" y="384" type="curve"/>
      <point x="386" y="387" type="line"/>
      <point x="463" y="418"/>
      <point x="505" y="496"/>
      <point x="505" y="561" type="curve" smooth="yes"/>
      <point x="505" y="669"/>
      <point x="425" y="706"/>
      <point x="324" y="706" type="curve" smooth="yes"/>
    </contour>
  </outline>
</glyph>
<glyph name="eth" format="1">
  <advance width="569"/>
  <unicode hex="00F0"/>
  <outline>
    <contour>
      <point x="337" y="713"/>
      <point x="318" y="710"/>
      <point x="312" y="709" type="curve" smooth="yes"/>
      <point x="304" y="708"/>
      <point x="300" y="704"/>
      <point x="300" y="699" type="curve" smooth="yes"/>
      <point x="300" y="696"/>
      <point x="301" y="693"/>
      <point x="304" y="689" type="curve" smooth="yes"/>
      <point x="312" y="676"/>
      <point x="313" y="675"/>
      <point x="327" y="650" type="curve"/>
      <point x="254" y="640" type="line" smooth="yes"/>
      <point x="242" y="638"/>
      <point x="237" y="633"/>
      <point x="237" y="625" type="curve" smooth="yes"/>
      <point x="237" y="611"/>
      <point x="247" y="595"/>
      <point x="260" y="595" type="curve" smooth="yes"/>
      <point x="262" y="595"/>
      <point x="264" y="596"/>
      <point x="347" y="607" type="curve"/>
      <point x="359" y="581"/>
      <point x="372" y="550"/>
      <point x="384" y="517" type="curve"/>
      <point x="360" y="525"/>
      <point x="334" y="529"/>
      <point x="305" y="529" type="curve" smooth="yes"/>
      <point x="145" y="529"/>
      <point x="42" y="412"/>
      <point x="42" y="207" type="curve" smooth="yes"/>
      <point x="42" y="68"/>
      <point x="114" y="-6"/>
      <point x="249" y="-6" type="curve" smooth="yes"/>
      <point x="410" y="-6"/>
      <point x="507" y="106"/>
      <point x="507" y="315" type="curve" smooth="yes"/>
      <point x="507" y="424"/>
      <point x="475" y="528"/>
      <point x="427" y="618" type="curve"/>
      <point x="488" y="626" type="line" smooth="yes"/>
      <point x="500" y="627"/>
      <point x="504" y="633"/>
      <point x="504" y="641" type="curve" smooth="yes"/>
      <point x="504" y="649"/>
      <point x="500" y="671"/>
      <point x="483" y="671" type="curve" smooth="yes"/>
      <point x="482" y="671"/>
      <point x="481" y="671"/>
      <point x="404" y="660" type="curve"/>
      <point x="378" y="698" type="line" smooth="yes"/>
      <point x="371" y="707"/>
      <point x="363" y="713"/>
      <point x="349" y="713" type="curve" smooth="yes"/>
    </contour>
    <contour>
      <point x="379" y="457"/>
      <point x="420" y="409"/>
      <point x="420" y="310" type="curve" smooth="yes"/>
      <point x="420" y="143"/>
      <point x="358" y="66"/>
      <point x="253" y="66" type="curve" smooth="yes"/>
      <point x="168" y="66"/>
      <point x="128" y="112"/>
      <point x="128" y="211" type="curve" smooth="yes"/>
      <point x="128" y="379"/>
      <point x="190" y="457"/>
      <point x="294" y="457" type="curve" smooth="yes"/>
    </contour>
  </outline>
</glyph>
<glyph name="dotlessi" format="1">
  <advance width="265"/>
  <unicode hex="0131"/>
  <outline>
    <contour>
      <point x="146" y="525" type="line" smooth="yes"/>
      <point x="120" y="525"/>
      <point x="106" y="519"/>
      <point x="104" y="503" type="curve"/>
      <point x="102" y="503"/>
      <point x="63" y="130"/>
      <point x="63" y="89" type="curve" smooth="yes"/>
      <point x="63" y="23"/>
      <point x="96" y="-6"/>
      <point x="152" y="-6" type="curve" smooth="yes"/>
      <point x="170" y="-6"/>
      <point x="207" y="2"/>
      <point x="212" y="27" type="curve" smooth="yes"/>
      <point x="216" y="49"/>
      <point x="216" y="63"/>
      <point x="216" y="64" type="curve" smooth="yes"/>
      <point x="216" y="70"/>
      <point x="213" y="71"/>
      <point x="210" y="71" type="curve" smooth="yes"/>
      <point x="204" y="71"/>
      <point x="195" y="66"/>
      <point x="183" y="66" type="curve" smooth="yes"/>
      <point x="167" y="66"/>
      <point x="148" y="66"/>
      <point x="148" y="107" type="curve" smooth="yes"/>
      <point x="148" y="137"/>
      <point x="188" y="503"/>
      <point x="188" y="503" type="curve"/>
      <point x="188" y="518"/>
      <point x="178" y="525"/>
      <point x="150" y="525" type="curve" smooth="yes"/>
    </contour>
    <contour>
      <point x="200" y="10" type="move" name="ogonek"/>
    </contour>
    <contour>
      <point x="119" y="0" type="move" name="bottom"/>
    </contour>
    <contour>
      <point x="146" y="523" type="move" name="top"/>
    </contour>
  </outline>
</glyph>
<glyph name="Lslash" format="1">
  <advance width="486"/>
  <unicode hex="0141"/>
  <outline>
    <contour>
      <point x="161" y="702" type="line" smooth="yes"/>
      <point x="133" y="702"/>
      <point x="120" y="694"/>
      <point x="119" y="680" type="curve" smooth="yes"/>
      <point x="89" y="394" type="line"/>
      <point x="17" y="354" type="line" smooth="yes"/>
      <point x="5" y="347"/>
      <point x="-5" y="338"/>
      <point x="-5" y="318" type="curve" smooth="yes"/>
      <point x="-5" y="309"/>
      <point x="-3" y="304"/>
      <point x="2" y="304" type="curve" smooth="yes"/>
      <point x="4" y="304"/>
      <point x="8" y="306"/>
      <point x="12" y="308" type="curve" smooth="yes"/>
      <point x="84" y="348" type="line"/>
      <point x="51" y="30" type="line"/>
      <point x="51" y="9"/>
      <point x="56" y="0"/>
      <point x="78" y="0" type="curve" smooth="yes"/>
      <point x="427" y="0" type="line" smooth="yes"/>
      <point x="452" y="0"/>
      <point x="452" y="31"/>
      <point x="452" y="54" type="curve" smooth="yes"/>
      <point x="452" y="69"/>
      <point x="447" y="76"/>
      <point x="435" y="76" type="curve" smooth="yes"/>
      <point x="144" y="76" type="line"/>
      <point x="178" y="401" type="line"/>
      <point x="292" y="465" type="line" smooth="yes"/>
      <point x="305" y="472"/>
      <point x="315" y="481"/>
      <point x="315" y="501" type="curve" smooth="yes"/>
      <point x="315" y="510"/>
      <point x="313" y="515"/>
      <point x="308" y="515" type="curve" smooth="yes"/>
      <point x="305" y="515"/>
      <point x="301" y="513"/>
      <point x="297" y="511" type="curve" smooth="yes"/>
      <point x="183" y="447" type="line"/>
      <point x="207" y="680" type="line"/>
      <point x="207" y="694"/>
      <point x="198" y="702"/>
      <point x="169" y="702" type="curve" smooth="yes"/>
    </contour>
  </outline>
</glyph>
<glyph name="lslash" format="1">
  <advance width="293"/>
  <unicode hex="0142"/>
  <outline>
    <contour>
      <point x="193" y="752" type="line" smooth="yes"/>
      <point x="167" y="752"/>
      <point x="153" y="746"/>
      <point x="151" y="730" type="curve" smooth="yes"/>
      <point x="151" y="728"/>
      <point x="132" y="561"/>
      <point x="115" y="397" type="curve"/>
      <point x="71" y="373" type="line" smooth="yes"/>
      <point x="58" y="366"/>
      <point x="48" y="357"/>
      <point x="48" y="337" type="curve" smooth="yes"/>
      <point x="48" y="328"/>
      <point x="50" y="323"/>
      <point x="55" y="323" type="curve" smooth="yes"/>
      <point x="57" y="323"/>
      <point x="62" y="325"/>
      <point x="66" y="327" type="curve" smooth="yes"/>
      <point x="110" y="351" type="line"/>
      <point x="97" y="225"/>
      <point x="86" y="111"/>
      <point x="86" y="92" type="curve" smooth="yes"/>
      <point x="86" y="24"/>
      <point x="119" y="-6"/>
      <point x="176" y="-6" type="curve" smooth="yes"/>
      <point x="194" y="-6"/>
      <point x="231" y="2"/>
      <point x="236" y="27" type="curve" smooth="yes"/>
      <point x="240" y="49"/>
      <point x="240" y="63"/>
      <point x="240" y="64" type="curve" smooth="yes"/>
      <point x="240" y="70"/>
      <point x="237" y="71"/>
      <point x="234" y="71" type="curve" smooth="yes"/>
      <point x="228" y="71"/>
      <point x="219" y="66"/>
      <point x="207" y="66" type="curve" smooth="yes"/>
      <point x="191" y="66"/>
      <point x="171" y="66"/>
      <point x="171" y="107" type="curve" smooth="yes"/>
      <point x="171" y="121"/>
      <point x="185" y="259"/>
      <point x="200" y="401" type="curve"/>
      <point x="244" y="426" type="line" smooth="yes"/>
      <point x="257" y="433"/>
      <point x="267" y="442"/>
      <point x="267" y="462" type="curve" smooth="yes"/>
      <point x="267" y="471"/>
      <point x="265" y="476"/>
      <point x="260" y="476" type="curve" smooth="yes"/>
      <point x="257" y="476"/>
      <point x="253" y="474"/>
      <point x="249" y="472" type="curve" smooth="yes"/>
      <point x="205" y="447" type="line"/>
      <point x="220" y="593"/>
      <point x="235" y="730"/>
      <point x="235" y="730" type="curve"/>
      <point x="235" y="745"/>
      <point x="225" y="752"/>
      <point x="197" y="752" type="curve" smooth="yes"/>
    </contour>
  </outline>
</glyph>
<glyph name="eng" format="1">
  <advance width="557"/>
  <unicode hex="014B"/>
  <outline>
    <contour>
      <point x="387" y="399" type="line"/>
      <point x="339" y="-66" type="line" smooth="yes"/>
      <point x="333" y="-126"/>
      <point x="310" y="-140"/>
      <point x="279" y="-140" type="curve" smooth="yes"/>
      <point x="244" y="-140"/>
      <point x="231" y="-123"/>
      <point x="223" y="-123" type="curve" smooth="yes"/>
      <point x="218" y="-123"/>
      <point x="212" y="-129"/>
      <point x="212" y="-171" type="curve" smooth="yes"/>
      <point x="212" y="-195"/>
      <point x="244" y="-212"/>
      <point x="290" y="-212" type="curve" smooth="yes"/>
      <point x="341" y="-212"/>
      <point x="410" y="-190"/>
      <point x="422" y="-74" type="curve" smooth="yes"/>
      <point x="471" y="399" type="line"/>
    </contour>
    <contour>
      <point x="271" y="529"/>
      <point x="200" y="495"/>
      <point x="142" y="399" type="curve"/>
      <point x="155" y="377" type="line"/>
      <point x="159" y="392"/>
      <point x="162" y="420"/>
      <point x="162" y="447" type="curve" smooth="yes"/>
      <point x="162" y="482"/>
      <point x="156" y="514"/>
      <point x="136" y="514" type="curve" smooth="yes"/>
      <point x="129" y="514"/>
      <point x="80" y="513"/>
      <point x="80" y="491" type="curve" smooth="yes"/>
      <point x="80" y="485"/>
      <point x="81" y="481"/>
      <point x="81" y="457" type="curve" smooth="yes"/>
      <point x="81" y="410"/>
      <point x="37" y="19"/>
      <point x="37" y="19" type="curve"/>
      <point x="37" y="7"/>
      <point x="48" y="-2"/>
      <point x="75" y="-2" type="curve" smooth="yes"/>
      <point x="79" y="-2" type="line" smooth="yes"/>
      <point x="105" y="-2"/>
      <point x="119" y="6"/>
      <point x="121" y="20" type="curve"/>
      <point x="121" y="20"/>
      <point x="137" y="166"/>
      <point x="150" y="295" type="curve"/>
      <point x="193" y="424"/>
      <point x="265" y="456"/>
      <point x="309" y="456" type="curve" smooth="yes"/>
      <point x="360" y="456"/>
      <point x="385" y="430"/>
      <point x="385" y="379" type="curve"/>
      <point x="471" y="399" type="line"/>
      <point x="471" y="473"/>
      <point x="436" y="529"/>
      <point x="339" y="529" type="curve" smooth="yes"/>
    </contour>
  </outline>
</glyph>
<glyph name="OE" format="1">
  <advance width="1021"/>
  <unicode hex="0152"/>
  <outline>
    <contour>
      <point x="187" y="706"/>
      <point x="53" y="562"/>
      <point x="53" y="282" type="curve" smooth="yes"/>
      <point x="53" y="93"/>
      <point x="148" y="-6"/>
      <point x="327" y="-6" type="curve" smooth="yes"/>
      <point x="419" y="-6"/>
      <point x="499" y="22"/>
      <point x="556" y="73" type="curve"/>
      <point x="551" y="30"/>
      <point x="551" y="25"/>
      <point x="551" y="24" type="curve" smooth="yes"/>
      <point x="551" y="7"/>
      <point x="559" y="0"/>
      <point x="578" y="0" type="curve" smooth="yes"/>
      <point x="932" y="0" type="line" smooth="yes"/>
      <point x="957" y="0"/>
      <point x="957" y="31"/>
      <point x="957" y="54" type="curve" smooth="yes"/>
      <point x="957" y="69"/>
      <point x="952" y="76"/>
      <point x="940" y="76" type="curve" smooth="yes"/>
      <point x="644" y="76" type="line"/>
      <point x="669" y="320" type="line"/>
      <point x="933" y="320" type="line" smooth="yes"/>
      <point x="958" y="320"/>
      <point x="958" y="351"/>
      <point x="958" y="374" type="curve" smooth="yes"/>
      <point x="958" y="389"/>
      <point x="953" y="396"/>
      <point x="941" y="396" type="curve" smooth="yes"/>
      <point x="677" y="396" type="line"/>
      <point x="701" y="624" type="line"/>
      <point x="996" y="624" type="line" smooth="yes"/>
      <point x="1021" y="624"/>
      <point x="1021" y="655"/>
      <point x="1021" y="678" type="curve" smooth="yes"/>
      <point x="1021" y="693"/>
      <point x="1016" y="700"/>
      <point x="1004" y="700" type="curve" smooth="yes"/>
      <point x="651" y="700" type="line" smooth="yes"/>
      <point x="630" y="700"/>
      <point x="620" y="691"/>
      <point x="618" y="670" type="curve" smooth="yes"/>
      <point x="608" y="591" type="line"/>
      <point x="628" y="612" type="line"/>
      <point x="582" y="671"/>
      <point x="503" y="706"/>
      <point x="402" y="706" type="curve" smooth="yes"/>
    </contour>
    <contour>
      <point x="519" y="630"/>
      <point x="586" y="556"/>
      <point x="586" y="410" type="curve" smooth="yes"/>
      <point x="586" y="189"/>
      <point x="485" y="70"/>
      <point x="335" y="70" type="curve" smooth="yes"/>
      <point x="210" y="70"/>
      <point x="144" y="146"/>
      <point x="144" y="291" type="curve" smooth="yes"/>
      <point x="144" y="515"/>
      <point x="242" y="630"/>
      <point x="394" y="630" type="curve" smooth="yes"/>
    </contour>
    <contour>
      <point x="511" y="700" type="move" name="top"/>
    </contour>
  </outline>
</glyph>
<glyph name="oe" format="1">
  <advance width="871"/>
  <unicode hex="0153"/>
  <outline>
    <contour>
      <point x="470" y="468" type="line"/>
      <point x="430" y="510"/>
      <point x="380" y="529"/>
      <point x="315" y="529" type="curve" smooth="yes"/>
      <point x="127" y="529"/>
      <point x="51" y="375"/>
      <point x="51" y="209" type="curve" smooth="yes"/>
      <point x="51" y="69"/>
      <point x="122" y="-6"/>
      <point x="258" y="-6" type="curve" smooth="yes"/>
      <point x="322" y="-6"/>
      <point x="382" y="11"/>
      <point x="425" y="51" type="curve"/>
    </contour>
    <contour>
      <point x="389" y="457"/>
      <point x="429" y="410"/>
      <point x="429" y="310" type="curve" smooth="yes"/>
      <point x="429" y="151"/>
      <point x="370" y="66"/>
      <point x="263" y="66" type="curve" smooth="yes"/>
      <point x="178" y="66"/>
      <point x="137" y="113"/>
      <point x="137" y="212" type="curve" smooth="yes"/>
      <point x="137" y="362"/>
      <point x="194" y="457"/>
      <point x="304" y="457" type="curve" smooth="yes"/>
    </contour>
    <component base="e" xOffset="327"/>
    <contour>
      <point x="436" y="523" type="move" name="top"/>
    </contour>
  </outline>
</glyph>
<glyph name="uni018F" format="1">
  <advance width="672"/>
  <unicode hex="018F"/>
  <outline>
    <contour>
      <point x="285" y="706"/>
      <point x="137" y="683"/>
      <point x="122" y="622" type="curve" smooth="yes"/>
      <point x="118" y="601"/>
      <point x="117" y="580"/>
      <point x="117" y="577" type="curve" smooth="yes"/>
      <point x="117" y="565"/>
      <point x="120" y="565"/>
      <point x="124" y="565" type="curve" smooth="yes"/>
      <point x="144" y="565"/>
      <point x="213" y="634"/>
      <point x="339" y="634" type="curve" smooth="yes"/>
      <point x="453" y="634"/>
      <point x="525" y="593"/>
      <point x="525" y="425" type="curve"/>
      <point x="494" y="429"/>
      <point x="446" y="432"/>
      <point x="389" y="432" type="curve" smooth="yes"/>
      <point x="228" y="432"/>
      <point x="69" y="376"/>
      <point x="69" y="189" type="curve" smooth="yes"/>
      <point x="69" y="114"/>
      <point x="126" y="-4"/>
      <point x="287" y="-4" type="curve" smooth="yes"/>
      <point x="518" y="-4"/>
      <point x="612" y="205"/>
      <point x="612" y="444" type="curve" smooth="yes"/>
      <point x="612" y="673"/>
      <point x="461" y="706"/>
      <point x="346" y="706" type="curve" smooth="yes"/>
    </contour>
    <contour>
      <point x="502" y="207"/>
      <point x="447" y="68"/>
      <point x="296" y="68" type="curve" smooth="yes"/>
      <point x="209" y="68"/>
      <point x="156" y="130"/>
      <point x="156" y="197" type="curve" smooth="yes"/>
      <point x="156" y="360"/>
      <point x="360" y="360"/>
      <point x="399" y="360" type="curve" smooth="yes"/>
      <point x="520" y="360" type="line"/>
    </contour>
  </outline>
</glyph>
<glyph name="Aringacute" format="1">
  <advance width="613"/>
  <unicode hex="01FA"/>
  <outline>
    <contour>
      <point x="409" y="929"/>
      <point x="389" y="923"/>
      <point x="376" y="903" type="curve" smooth="yes"/>
      <point x="362" y="881"/>
      <point x="353" y="868"/>
      <point x="331" y="832" type="curve" smooth="yes"/>
      <point x="331" y="825"/>
      <point x="337" y="822"/>
      <point x="353" y="822" type="curve" smooth="yes"/>
      <point x="374" y="822"/>
      <point x="394" y="828"/>
      <point x="406" y="840" type="curve" smooth="yes"/>
      <point x="477" y="904"/>
      <point x="487" y="909"/>
      <point x="487" y="916" type="curve" smooth="yes"/>
      <point x="488" y="926"/>
      <point x="473" y="929"/>
      <point x="441" y="929" type="curve" smooth="yes"/>
    </contour>
    <contour>
      <point x="326" y="642" type="line"/>
      <point x="287" y="686" type="line"/>
      <point x="-18" y="29" type="line" smooth="yes"/>
      <point x="-21" y="23"/>
      <point x="-23" y="18"/>
      <point x="-23" y="14" type="curve" smooth="yes"/>
      <point x="-23" y="3"/>
      <point x="-10" y="-2"/>
      <point x="18" y="-2" type="curve" smooth="yes"/>
      <point x="23" y="-2" type="line" smooth="yes"/>
      <point x="43" y="-2"/>
      <point x="59" y="2"/>
      <point x="64" y="14" type="curve" smooth="yes"/>
      <point x="138" y="178" type="line"/>
      <point x="432" y="178" type="line"/>
      <point x="474" y="14" type="line" smooth="yes"/>
      <point x="477" y="2"/>
      <point x="493" y="-2"/>
      <point x="513" y="-2" type="curve" smooth="yes"/>
      <point x="521" y="-2" type="line" smooth="yes"/>
      <point x="555" y="-2"/>
      <point x="565" y="7"/>
      <point x="565" y="18" type="curve" smooth="yes"/>
      <point x="565" y="21"/>
      <point x="565" y="24"/>
      <point x="564" y="28" type="curve" smooth="yes"/>
      <point x="396" y="686" type="line"/>
      <point x="355" y="642" type="line"/>
    </contour>
    <contour>
      <point x="334" y="591"/>
      <point x="335" y="571"/>
      <point x="340" y="552" type="curve" smooth="yes"/>
      <point x="413" y="254" type="line"/>
      <point x="174" y="254" type="line"/>
      <point x="311" y="552" type="line" smooth="yes"/>
      <point x="319" y="570"/>
      <point x="326" y="591"/>
      <point x="332" y="610" type="curve"/>
      <point x="334" y="610" type="line"/>
    </contour>
    <component base="ring" xOffset="188" yOffset="60"/>
  </outline>
</glyph>
<glyph name="breve" format="1">
  <advance width="320"/>
  <unicode hex="02D8"/>
  <outline>
    <contour>
      <point x="275" y="715"/>
      <point x="279" y="706"/>
      <point x="269" y="690" type="curve" smooth="yes"/>
      <point x="251" y="662"/>
      <point x="206" y="651"/>
      <point x="158" y="651" type="curve" smooth="yes"/>
      <point x="109" y="651"/>
      <point x="66" y="662"/>
      <point x="54" y="690" type="curve" smooth="yes"/>
      <point x="47" y="706"/>
      <point x="51" y="715"/>
      <point x="34" y="715" type="curve" smooth="yes"/>
      <point x="19" y="715"/>
      <point x="17" y="705"/>
      <point x="17" y="688" type="curve" smooth="yes"/>
      <point x="17" y="619"/>
      <point x="83" y="585"/>
      <point x="151" y="585" type="curve" smooth="yes"/>
      <point x="218" y="585"/>
      <point x="307" y="624"/>
      <point x="307" y="703" type="curve" smooth="yes"/>
      <point x="307" y="711"/>
      <point x="303" y="715"/>
      <point x="293" y="715" type="curve" smooth="yes"/>
    </contour>
    <contour>
      <point x="174" y="776" type="move" name="tilde"/>
    </contour>
    <contour>
      <point x="165" y="671" type="move" name="top"/>
    </contour>
    <contour>
      <point x="146" y="523" type="move" name="_top"/>
    </contour>
  </outline>
</glyph>
<glyph name="ring" format="1">
  <advance width="320"/>
  <unicode hex="02DA"/>
  <outline>
    <contour>
      <point x="119" y="733"/>
      <point x="75" y="691"/>
      <point x="75" y="640" type="curve" smooth="yes"/>
      <point x="75" y="597"/>
      <point x="106" y="564"/>
      <point x="151" y="564" type="curve" smooth="yes"/>
      <point x="201" y="564"/>
      <point x="244" y="606"/>
      <point x="244" y="657" type="curve" smooth="yes"/>
      <point x="244" y="700"/>
      <point x="212" y="733"/>
      <point x="168" y="733" type="curve" smooth="yes"/>
    </contour>
    <contour>
      <point x="191" y="698"/>
      <point x="209" y="679"/>
      <point x="209" y="654" type="curve" smooth="yes"/>
      <point x="209" y="623"/>
      <point x="185" y="599"/>
      <point x="154" y="599" type="curve" smooth="yes"/>
      <point x="127" y="599"/>
      <point x="110" y="618"/>
      <point x="110" y="644" type="curve" smooth="yes"/>
      <point x="110" y="674"/>
      <point x="136" y="698"/>
      <point x="165" y="698" type="curve" smooth="yes"/>
    </contour>
    <contour>
      <point x="180" y="700" type="move" name="top"/>
    </contour>
    <contour>
      <point x="160" y="523" type="move" name="_top"/>
    </contour>
  </outline>
</glyph>
<glyph name="ogonek" format="1">
  <advance width="320"/>
  <unicode hex="02DB"/>
  <outline>
    <contour>
      <point x="67" y="14"/>
      <point x="53" y="-70"/>
      <point x="53" y="-94" type="curve" smooth="yes"/>
      <point x="53" y="-127"/>
      <point x="67" y="-183"/>
      <point x="161" y="-183" type="curve" smooth="yes"/>
      <point x="204" y="-183"/>
      <point x="250" y="-173"/>
      <point x="250" y="-108" type="curve" smooth="yes"/>
      <point x="250" y="-99"/>
      <point x="248" y="-95"/>
      <point x="244" y="-95" type="curve" smooth="yes"/>
      <point x="235" y="-95"/>
      <point x="211" y="-113"/>
      <point x="180" y="-113" type="curve" smooth="yes"/>
      <point x="158" y="-113"/>
      <point x="122" y="-110"/>
      <point x="122" y="-70" type="curve" smooth="yes"/>
      <point x="122" y="-42"/>
      <point x="141" y="-14"/>
      <point x="141" y="2" type="curve" smooth="yes"/>
      <point x="141" y="10"/>
      <point x="137" y="14"/>
      <point x="125" y="14" type="curve" smooth="yes"/>
    </contour>
    <contour>
      <point x="141" y="0" type="move" name="_ogonek"/>
    </contour>
    <contour>
      <point x="106" y="-203" type="move" name="bottom"/>
    </contour>
  </outline>
</glyph>
<glyph name="acutecomb" format="1">
  <advance width="0"/>
  <unicode hex="0301"/>
  <outline>
    <component base="acute" xOffset="-67"/>
    <contour>
      <point x="46" y="700" type="move" name="top"/>
    </contour>
    <contour>
      <point x="29" y="523" type="move" name="_top"/>
    </contour>
  </outline>
</glyph>
<glyph name="uni0308" format="1">
  <advance width="0"/>
  <unicode hex="0308"/>
  <outline>
    <component base="dieresis" xOffset="-117"/>
    <contour>
      <point x="47" y="700" type="move" name="top"/>
    </contour>
    <contour>
      <point x="27" y="523" type="move" name="_top"/>
    </contour>
  </outline>
</glyph>
<glyph name="hookabovecomb" format="1">
  <advance width="300"/>
  <unicode hex="0309"/>
  <outline>
    <contour>
      <point x="72" y="622"/>
      <point x="0" y="607"/>
      <point x="0" y="580" type="curve" smooth="yes"/>
      <point x="0" y="571"/>
      <point x="18" y="563"/>
      <point x="39" y="563" type="curve" smooth="yes"/>
      <point x="49" y="563"/>
      <point x="138" y="610"/>
      <point x="138" y="680" type="curve" smooth="yes"/>
      <point x="138" y="734"/>
      <point x="85" y="750"/>
      <point x="51" y="750" type="curve" smooth="yes"/>
      <point x="16" y="750"/>
      <point x="-30" y="732"/>
      <point x="-30" y="719" type="curve" smooth="yes"/>
      <point x="-30" y="709"/>
      <point x="-18" y="686"/>
      <point x="-10" y="686" type="curve" smooth="yes"/>
      <point x="-5" y="686"/>
      <point x="7" y="699"/>
      <point x="38" y="699" type="curve" smooth="yes"/>
      <point x="58" y="699"/>
      <point x="72" y="690"/>
      <point x="72" y="674" type="curve" smooth="yes"/>
    </contour>
    <contour>
      <point x="47" y="700" type="move" name="top"/>
    </contour>
    <contour>
      <point x="28" y="523" type="move" name="_top"/>
    </contour>
  </outline>
</glyph>
<glyph name="uni0326" format="1">
  <advance width="353"/>
  <unicode hex="0326"/>
  <outline>
    <contour>
      <point x="153" y="-51" type="line" smooth="yes"/>
      <point x="126" y="-51"/>
      <point x="109" y="-64"/>
      <point x="109" y="-83" type="curve" smooth="yes"/>
      <point x="109" y="-147"/>
      <point x="52" y="-189"/>
      <point x="52" y="-220" type="curve" smooth="yes"/>
      <point x="52" y="-232"/>
      <point x="68" y="-235"/>
      <point x="79" y="-235" type="curve" smooth="yes"/>
      <point x="112" y="-235"/>
      <point x="199" y="-137"/>
      <point x="199" y="-79" type="curve" smooth="yes"/>
      <point x="199" y="-62"/>
      <point x="187" y="-51"/>
      <point x="162" y="-51" type="curve" smooth="yes"/>
    </contour>
    <contour>
      <point x="159" y="0" type="move" name="_bottom"/>
    </contour>
    <contour>
      <point x="137" y="-203" type="move" name="bottom"/>
    </contour>
  </outline>
</glyph>
<glyph name="mu" format="1">
  <advance width="566"/>
  <unicode hex="03BC"/>
  <outline>
    <contour>
      <point x="474" y="525" type="line" smooth="yes"/>
      <point x="448" y="525"/>
      <point x="434" y="519"/>
      <point x="432" y="503" type="curve"/>
      <point x="432" y="503"/>
      <point x="417" y="363"/>
      <point x="404" y="237" type="curve"/>
      <point x="361" y="100"/>
      <point x="288" y="67"/>
      <point x="244" y="67" type="curve" smooth="yes"/>
      <point x="193" y="67"/>
      <point x="168" y="93"/>
      <point x="168" y="144" type="curve" smooth="yes"/>
      <point x="168" y="158"/>
      <point x="204" y="503"/>
      <point x="204" y="503" type="curve"/>
      <point x="204" y="518"/>
      <point x="194" y="525"/>
      <point x="166" y="525" type="curve" smooth="yes"/>
      <point x="162" y="525" type="line" smooth="yes"/>
      <point x="136" y="525"/>
      <point x="122" y="519"/>
      <point x="120" y="503" type="curve" smooth="yes"/>
      <point x="49" y="-187" type="line"/>
      <point x="49" y="-199"/>
      <point x="60" y="-208"/>
      <point x="87" y="-208" type="curve" smooth="yes"/>
      <point x="91" y="-208" type="line" smooth="yes"/>
      <point x="115" y="-208"/>
      <point x="131" y="-200"/>
      <point x="133" y="-186" type="curve" smooth="yes"/>
      <point x="157" y="41" type="line"/>
      <point x="133" y="10" type="line"/>
      <point x="154" y="2"/>
      <point x="180" y="-6"/>
      <point x="214" y="-6" type="curve" smooth="yes"/>
      <point x="282" y="-6"/>
      <point x="354" y="30"/>
      <point x="410" y="132" type="curve"/>
      <point x="392" y="141" type="line"/>
      <point x="392" y="92" type="line" smooth="yes"/>
      <point x="392" y="24"/>
      <point x="425" y="-6"/>
      <point x="482" y="-6" type="curve" smooth="yes"/>
      <point x="500" y="-6"/>
      <point x="537" y="2"/>
      <point x="542" y="27" type="curve" smooth="yes"/>
      <point x="546" y="49"/>
      <point x="546" y="63"/>
      <point x="546" y="64" type="curve" smooth="yes"/>
      <point x="546" y="70"/>
      <point x="543" y="71"/>
      <point x="540" y="71" type="curve" smooth="yes"/>
      <point x="534" y="71"/>
      <point x="525" y="66"/>
      <point x="513" y="66" type="curve" smooth="yes"/>
      <point x="497" y="66"/>
      <point x="477" y="66"/>
      <point x="477" y="107" type="curve" smooth="yes"/>
      <point x="477" y="137"/>
      <point x="516" y="503"/>
      <point x="516" y="503" type="curve"/>
      <point x="516" y="518"/>
      <point x="506" y="525"/>
      <point x="478" y="525" type="curve" smooth="yes"/>
    </contour>
  </outline>
</glyph>
<glyph name="pi" format="1">
  <advance width="616"/>
  <unicode hex="03C0"/>
  <outline>
    <contour>
      <point x="189" y="523" type="line" smooth="yes"/>
      <point x="87" y="523"/>
      <point x="35" y="511"/>
      <point x="35" y="468" type="curve" smooth="yes"/>
      <point x="35" y="451"/>
      <point x="40" y="442"/>
      <point x="53" y="442" type="curve" smooth="yes"/>
      <point x="71" y="442"/>
      <point x="82" y="451"/>
      <point x="160" y="451" type="curve"/>
      <point x="140" y="320"/>
      <point x="92" y="140"/>
      <point x="43" y="28" type="curve"/>
      <point x="42" y="24"/>
      <point x="40" y="21"/>
      <point x="40" y="17" type="curve" smooth="yes"/>
      <point x="40" y="6"/>
      <point x="49" y="-2"/>
      <point x="66" y="-2" type="curve" smooth="yes"/>
      <point x="89" y="-2" type="line" smooth="yes"/>
      <point x="105" y="-2"/>
      <point x="119" y="7"/>
      <point x="126" y="23" type="curve" smooth="yes"/>
      <point x="172" y="126"/>
      <point x="223" y="324"/>
      <point x="244" y="451" type="curve"/>
      <point x="438" y="451" type="line"/>
      <point x="404" y="131" type="line"/>
      <point x="401" y="96"/>
      <point x="401" y="82"/>
      <point x="401" y="56" type="curve" smooth="yes"/>
      <point x="401" y="15"/>
      <point x="410" y="-2"/>
      <point x="436" y="-2" type="curve" smooth="yes"/>
      <point x="464" y="-2" type="line" smooth="yes"/>
      <point x="484" y="-2"/>
      <point x="487" y="12"/>
      <point x="487" y="33" type="curve" smooth="yes"/>
      <point x="487" y="49"/>
      <point x="486" y="66"/>
      <point x="486" y="82" type="curve" smooth="yes"/>
      <point x="486" y="135"/>
      <point x="499" y="228"/>
      <point x="522" y="451" type="curve"/>
      <point x="578" y="451" type="line" smooth="yes"/>
      <point x="616" y="451"/>
      <point x="617" y="504"/>
      <point x="617" y="508" type="curve" smooth="yes"/>
      <point x="617" y="513"/>
      <point x="613" y="523"/>
      <point x="595" y="523" type="curve" smooth="yes"/>
    </contour>
  </outline>
</glyph>
<glyph name="uni1E9E" format="1">
  <advance width="700"/>
  <unicode hex="1E9E"/>
  <outline>
    <contour>
      <point x="201" y="706"/>
      <point x="120" y="582"/>
      <point x="105" y="430" type="curve" smooth="yes"/>
      <point x="62" y="20" type="line"/>
      <point x="62" y="6"/>
      <point x="70" y="-2"/>
      <point x="100" y="-2" type="curve" smooth="yes"/>
      <point x="108" y="-2" type="line" smooth="yes"/>
      <point x="134" y="-2"/>
      <point x="149" y="6"/>
      <point x="150" y="20" type="curve" smooth="yes"/>
      <point x="193" y="434" type="line" smooth="yes"/>
      <point x="204" y="546"/>
      <point x="264" y="630"/>
      <point x="397" y="630" type="curve" smooth="yes"/>
      <point x="466" y="630"/>
      <point x="517" y="623"/>
      <point x="552" y="616" type="curve"/>
      <point x="377" y="399" type="line"/>
      <point x="374" y="395"/>
      <point x="372" y="388"/>
      <point x="372" y="382" type="curve" smooth="yes"/>
      <point x="372" y="372"/>
      <point x="382" y="334"/>
      <point x="391" y="334" type="curve" smooth="yes"/>
      <point x="417" y="334" type="line" smooth="yes"/>
      <point x="505" y="334"/>
      <point x="564" y="309"/>
      <point x="564" y="228" type="curve" smooth="yes"/>
      <point x="564" y="99"/>
      <point x="475" y="66"/>
      <point x="415" y="66" type="curve" smooth="yes"/>
      <point x="329" y="66"/>
      <point x="276" y="103"/>
      <point x="272" y="103" type="curve" smooth="yes"/>
      <point x="265" y="103"/>
      <point x="257" y="98"/>
      <point x="257" y="44" type="curve" smooth="yes"/>
      <point x="259" y="0"/>
      <point x="390" y="-6"/>
      <point x="415" y="-6" type="curve" smooth="yes"/>
      <point x="512" y="-6"/>
      <point x="651" y="55"/>
      <point x="651" y="228" type="curve" smooth="yes"/>
      <point x="651" y="320"/>
      <point x="610" y="372"/>
      <point x="485" y="397" type="curve"/>
      <point x="655" y="609" type="line" smooth="yes"/>
      <point x="658" y="613"/>
      <point x="660" y="619"/>
      <point x="660" y="626" type="curve" smooth="yes"/>
      <point x="660" y="637"/>
      <point x="646" y="671"/>
      <point x="640" y="674" type="curve"/>
      <point x="595" y="691"/>
      <point x="521" y="706"/>
      <point x="412" y="706" type="curve" smooth="yes"/>
    </contour>
  </outline>
</glyph>
<glyph name="emdash" format="1">
  <advance width="1000"/>
  <unicode hex="2014"/>
  <outline>
    <contour>
      <point x="24" y="302" type="line" smooth="yes"/>
      <point x="0" y="302"/>
      <point x="-1" y="268"/>
      <point x="-1" y="257" type="curve" smooth="yes"/>
      <point x="-1" y="241"/>
      <point x="2" y="230"/>
      <point x="16" y="230" type="curve" smooth="yes"/>
      <point x="974" y="230" type="line" smooth="yes"/>
      <point x="998" y="230"/>
      <point x="999" y="264"/>
      <point x="999" y="275" type="curve" smooth="yes"/>
      <point x="999" y="291"/>
      <point x="996" y="302"/>
      <point x="982" y="302" type="curve" smooth="yes"/>
    </contour>
  </outline>
</glyph>
<glyph name="quoteright" format="1">
  <advance width="212"/>
  <unicode hex="2019"/>
  <outline>
    <contour>
      <point x="125" y="754" type="line" smooth="yes"/>
      <point x="98" y="754"/>
      <point x="84" y="741"/>
      <point x="82" y="722" type="curve" smooth="yes"/>
      <point x="75" y="656"/>
      <point x="61" y="613"/>
      <point x="28" y="562" type="curve" smooth="yes"/>
      <point x="23" y="554"/>
      <point x="20" y="550"/>
      <point x="20" y="544" type="curve" smooth="yes"/>
      <point x="20" y="533"/>
      <point x="37" y="530"/>
      <point x="48" y="530" type="curve" smooth="yes"/>
      <point x="81" y="530"/>
      <point x="159" y="606"/>
      <point x="171" y="726" type="curve"/>
      <point x="171" y="743"/>
      <point x="160" y="754"/>
      <point x="134" y="754" type="curve" smooth="yes"/>
    </contour>
  </outline>
</glyph>
<glyph name="daggerdbl" format="1">
  <advance width="535"/>
  <unicode hex="2021"/>
  <outline>
    <contour>
      <point x="311" y="702" type="line"/>
      <point x="282" y="702"/>
      <point x="269" y="694"/>
      <point x="268" y="680" type="curve" smooth="yes"/>
      <point x="250" y="502" type="line"/>
      <point x="92" y="502" type="line" smooth="yes"/>
      <point x="68" y="502"/>
      <point x="67" y="464"/>
      <point x="67" y="452" type="curve" smooth="yes"/>
      <point x="67" y="434"/>
      <point x="70" y="422"/>
      <point x="84" y="422" type="curve" smooth="yes"/>
      <point x="241" y="422" type="line"/>
      <point x="212" y="140" type="line"/>
      <point x="54" y="140" type="line" smooth="yes"/>
      <point x="30" y="140"/>
      <point x="29" y="102"/>
      <point x="29" y="90" type="curve" smooth="yes"/>
      <point x="29" y="72"/>
      <point x="32" y="60"/>
      <point x="46" y="60" type="curve" smooth="yes"/>
      <point x="203" y="60" type="line"/>
      <point x="197" y="1"/>
      <point x="185" y="-111"/>
      <point x="185" y="-118" type="curve"/>
      <point x="185" y="-132"/>
      <point x="194" y="-140"/>
      <point x="224" y="-140" type="curve"/>
      <point x="226" y="-140" type="line"/>
      <point x="252" y="-140"/>
      <point x="265" y="-132"/>
      <point x="267" y="-118" type="curve" smooth="yes"/>
      <point x="285" y="60" type="line"/>
      <point x="443" y="60" type="line" smooth="yes"/>
      <point x="467" y="60"/>
      <point x="468" y="98"/>
      <point x="468" y="110" type="curve" smooth="yes"/>
      <point x="468" y="128"/>
      <point x="465" y="140"/>
      <point x="451" y="140" type="curve" smooth="yes"/>
      <point x="294" y="140" type="line"/>
      <point x="323" y="422" type="line"/>
      <point x="481" y="422" type="line" smooth="yes"/>
      <point x="505" y="422"/>
      <point x="506" y="460"/>
      <point x="506" y="472" type="curve" smooth="yes"/>
      <point x="506" y="490"/>
      <point x="503" y="502"/>
      <point x="489" y="502" type="curve" smooth="yes"/>
      <point x="332" y="502" type="line"/>
      <point x="338" y="561"/>
      <point x="350" y="674"/>
      <point x="350" y="680" type="curve" smooth="yes"/>
      <point x="350" y="694"/>
      <point x="342" y="702"/>
      <point x="313" y="702" type="curve"/>
    </contour>
  </outline>
</glyph>
<glyph name="ellipsis" format="1">
  <advance width="617"/>
  <unicode hex="2026"/>
  <outline>
    <contour>
      <point x="513" y="108" type="line" smooth="yes"/>
      <point x="484" y="108"/>
      <point x="472" y="100"/>
      <point x="471" y="86" type="curve" smooth="yes"/>
      <point x="464" y="20" type="line"/>
      <point x="464" y="6"/>
      <point x="473" y="-2"/>
      <point x="502" y="-2" type="curve" smooth="yes"/>
      <point x="519" y="-2" type="line" smooth="yes"/>
      <point x="547" y="-2"/>
      <point x="559" y="6"/>
      <point x="561" y="20" type="curve" smooth="yes"/>
      <point x="568" y="86" type="line"/>
      <point x="568" y="100"/>
      <point x="559" y="108"/>
      <point x="530" y="108" type="curve" smooth="yes"/>
    </contour>
    <contour>
      <point x="96" y="108" type="line" smooth="yes"/>
      <point x="68" y="108"/>
      <point x="55" y="100"/>
      <point x="54" y="86" type="curve" smooth="yes"/>
      <point x="47" y="20" type="line"/>
      <point x="47" y="6"/>
      <point x="56" y="-2"/>
      <point x="85" y="-2" type="curve" smooth="yes"/>
      <point x="102" y="-2" type="line" smooth="yes"/>
      <point x="130" y="-2"/>
      <point x="142" y="6"/>
      <point x="144" y="20" type="curve" smooth="yes"/>
      <point x="151" y="86" type="line"/>
      <point x="151" y="100"/>
      <point x="142" y="108"/>
      <point x="113" y="108" type="curve" smooth="yes"/>
    </contour>
    <contour>
      <point x="305" y="108" type="line" smooth="yes"/>
      <point x="277" y="108"/>
      <point x="264" y="100"/>
      <point x="263" y="86" type="curve" smooth="yes"/>
      <point x="256" y="20" type="line"/>
      <point x="256" y="6"/>
      <point x="265" y="-2"/>
      <point x="294" y="-2" type="curve" smooth="yes"/>
      <point x="311" y="-2" type="line" smooth="yes"/>
      <point x="339" y="-2"/>
      <point x="351" y="6"/>
      <point x="353" y="20" type="curve" smooth="yes"/>
      <point x="360" y="86" type="line"/>
      <point x="360" y="100"/>
      <point x="351" y="108"/>
      <point x="322" y="108" type="curve" smooth="yes"/>
    </contour>
  </outline>
</glyph>
<glyph name="fraction" format="1">
  <advance width="264"/>
  <unicode hex="2044"/>
  <outline>
    <contour>
      <point x="355" y="701" type="line" smooth="yes"/>
      <point x="341" y="701"/>
      <point x="332" y="694"/>
      <point x="324" y="682" type="curve" smooth="yes"/>
      <point x="-115" y="17" type="line" smooth="yes"/>
      <point x="-118" y="13"/>
      <point x="-119" y="9"/>
      <point x="-119" y="6" type="curve" smooth="yes"/>
      <point x="-119" y="2"/>
      <point x="-115" y="-2"/>
      <point x="-106" y="-2" type="curve" smooth="yes"/>
      <point x="-81" y="-2" type="line" smooth="yes"/>
      <point x="-67" y="-2"/>
      <point x="-58" y="5"/>
      <point x="-50" y="17" type="curve" smooth="yes"/>
      <point x="389" y="682" type="line" smooth="yes"/>
      <point x="392" y="686"/>
      <point x="393" y="690"/>
      <point x="393" y="692" type="curve" smooth="yes"/>
      <point x="393" y="697"/>
      <point x="389" y="701"/>
      <point x="380" y="701" type="curve" smooth="yes"/>
    </contour>
  </outline>
</glyph>
<glyph name="uni20B2" format="1">
  <advance width="672"/>
  <unicode hex="20B2"/>
  <outline>
    <contour>
      <point x="388" y="707" type="line"/>
      <point x="391" y="738" type="line" smooth="yes"/>
      <point x="394" y="759"/>
      <point x="386" y="768"/>
      <point x="365" y="768" type="curve" smooth="yes"/>
      <point x="347" y="768"/>
      <point x="337" y="759"/>
      <point x="334" y="738" type="curve" smooth="yes"/>
      <point x="331" y="706" type="line"/>
      <point x="256" y="-7" type="line"/>
      <point x="252" y="-51" type="line" smooth="yes"/>
      <point x="249" y="-72"/>
      <point x="257" y="-81"/>
      <point x="278" y="-81" type="curve" smooth="yes"/>
      <point x="296" y="-81"/>
      <point x="306" y="-72"/>
      <point x="309" y="-51" type="curve" smooth="yes"/>
      <point x="313" y="-6" type="line"/>
    </contour>
    <contour>
      <point x="196" y="706"/>
      <point x="52" y="572"/>
      <point x="52" y="275" type="curve" smooth="yes"/>
      <point x="52" y="84"/>
      <point x="149" y="-6"/>
      <point x="328" y="-6" type="curve" smooth="yes"/>
      <point x="442" y="-6"/>
      <point x="553" y="10"/>
      <point x="559" y="66" type="curve"/>
      <point x="568" y="156"/>
      <point x="587" y="326"/>
      <point x="587" y="337" type="curve"/>
      <point x="587" y="353"/>
      <point x="579" y="361"/>
      <point x="560" y="361" type="curve" smooth="yes"/>
      <point x="424" y="361" type="line" smooth="yes"/>
      <point x="399" y="361"/>
      <point x="399" y="330"/>
      <point x="399" y="307" type="curve" smooth="yes"/>
      <point x="399" y="292"/>
      <point x="404" y="285"/>
      <point x="416" y="285" type="curve" smooth="yes"/>
      <point x="494" y="285" type="line"/>
      <point x="472" y="83" type="line"/>
      <point x="445" y="76"/>
      <point x="394" y="70"/>
      <point x="342" y="70" type="curve" smooth="yes"/>
      <point x="190" y="70"/>
      <point x="144" y="165"/>
      <point x="144" y="288" type="curve" smooth="yes"/>
      <point x="144" y="501"/>
      <point x="228" y="630"/>
      <point x="404" y="630" type="curve" smooth="yes"/>
      <point x="506" y="630"/>
      <point x="551" y="586"/>
      <point x="562" y="586" type="curve" smooth="yes"/>
      <point x="575" y="586"/>
      <point x="602" y="629"/>
      <point x="602" y="645" type="curve" smooth="yes"/>
      <point x="602" y="672"/>
      <point x="515" y="706"/>
      <point x="418" y="706" type="curve" smooth="yes"/>
    </contour>
  </outline>
</glyph>
<glyph name="uni2153" format="1">
  <advance width="746"/>
  <unicode hex="2153"/>
  <outline>
    <contour>
      <point x="567" y="703" type="line" smooth="yes"/>
      <point x="554" y="703"/>
      <point x="542" y="697"/>
      <point x="535" y="687" type="curve" smooth="yes"/>
      <point x="58" y="14" type="line"/>
      <point x="54" y="10"/>
      <point x="53" y="6"/>
      <point x="53" y="4" type="curve" smooth="yes"/>
      <point x="53" y="0"/>
      <point x="57" y="-2"/>
      <point x="66" y="-2" type="curve" smooth="yes"/>
      <point x="79" y="-2" type="line" smooth="yes"/>
      <point x="92" y="-2"/>
      <point x="103" y="2"/>
      <point x="111" y="14" type="curve" smooth="yes"/>
      <point x="588" y="687" type="line" smooth="yes"/>
      <point x="591" y="691"/>
      <point x="593" y="694"/>
      <point x="593" y="697" type="curve" smooth="yes"/>
      <point x="593" y="701"/>
      <point x="589" y="703"/>
      <point x="580" y="703" type="curve" smooth="yes"/>
    </contour>
    <contour>
      <point x="84" y="673" type="line" smooth="yes"/>
      <point x="74" y="671"/>
      <point x="72" y="667"/>
      <point x="72" y="656" type="curve" smooth="yes"/>
      <point x="72" y="645"/>
      <point x="74" y="633"/>
      <point x="81" y="633" type="curve"/>
      <point x="158" y="650" type="line"/>
      <point x="122" y="309" type="line"/>
      <point x="122" y="302"/>
      <point x="127" y="297"/>
      <point x="143" y="297" type="curve" smooth="yes"/>
      <point x="147" y="297" type="line" smooth="yes"/>
      <point x="162" y="297"/>
      <point x="169" y="301"/>
      <point x="170" y="309" type="curve" smooth="yes"/>
      <point x="210" y="690" type="line"/>
      <point x="210" y="697"/>
      <point x="203" y="702"/>
      <point x="193" y="702" type="curve"/>
    </contour>
    <contour>
      <point x="532" y="407"/>
      <point x="461" y="393"/>
      <point x="461" y="376" type="curve" smooth="yes"/>
      <point x="461" y="367"/>
      <point x="471" y="347"/>
      <point x="477" y="347" type="curve" smooth="yes"/>
      <point x="487" y="347"/>
      <point x="510" y="366"/>
      <point x="562" y="366" type="curve" smooth="yes"/>
      <point x="613" y="366"/>
      <point x="625" y="338"/>
      <point x="625" y="316" type="curve" smooth="yes"/>
      <point x="625" y="290"/>
      <point x="604" y="235"/>
      <point x="540" y="235" type="curve" smooth="yes"/>
      <point x="524" y="235" type="line" smooth="yes"/>
      <point x="510" y="235"/>
      <point x="509" y="216"/>
      <point x="509" y="209" type="curve" smooth="yes"/>
      <point x="509" y="200"/>
      <point x="511" y="194"/>
      <point x="519" y="194" type="curve" smooth="yes"/>
      <point x="539" y="194" type="line" smooth="yes"/>
      <point x="586" y="194"/>
      <point x="618" y="180"/>
      <point x="618" y="132" type="curve" smooth="yes"/>
      <point x="618" y="57"/>
      <point x="563" y="38"/>
      <point x="526" y="38" type="curve" smooth="yes"/>
      <point x="473" y="38"/>
      <point x="442" y="60"/>
      <point x="438" y="60" type="curve" smooth="yes"/>
      <point x="434" y="60"/>
      <point x="429" y="57"/>
      <point x="429" y="26" type="curve" smooth="yes"/>
      <point x="429" y="0"/>
      <point x="510" y="-3"/>
      <point x="526" y="-3" type="curve" smooth="yes"/>
      <point x="584" y="-3"/>
      <point x="668" y="32"/>
      <point x="668" y="132" type="curve" smooth="yes"/>
      <point x="668" y="184"/>
      <point x="637" y="215"/>
      <point x="605" y="223" type="curve"/>
      <point x="606" y="226" type="line"/>
      <point x="643" y="239"/>
      <point x="674" y="271"/>
      <point x="674" y="320" type="curve" smooth="yes"/>
      <point x="674" y="378"/>
      <point x="631" y="407"/>
      <point x="568" y="407" type="curve" smooth="yes"/>
    </contour>
  </outline>
</glyph>
<glyph name="oneeighth" format="1">
  <advance width="746"/>
  <unicode hex="215B"/>
  <outline>
    <contour>
      <point x="567" y="703" type="line" smooth="yes"/>
      <point x="554" y="703"/>
      <point x="542" y="697"/>
      <point x="535" y="687" type="curve" smooth="yes"/>
      <point x="58" y="14" type="line"/>
      <point x="54" y="10"/>
      <point x="53" y="6"/>
      <point x="53" y="4" type="curve" smooth="yes"/>
      <point x="53" y="0"/>
      <point x="57" y="-2"/>
      <point x="66" y="-2" type="curve" smooth="yes"/>
      <point x="79" y="-2" type="line" smooth="yes"/>
      <point x="92" y="-2"/>
      <point x="103" y="2"/>
      <point x="111" y="14" type="curve" smooth="yes"/>
      <point x="588" y="687" type="line" smooth="yes"/>
      <point x="591" y="691"/>
      <point x="593" y="694"/>
      <point x="593" y="697" type="curve" smooth="yes"/>
      <point x="593" y="701"/>
      <point x="589" y="703"/>
      <point x="580" y="703" type="curve" smooth="yes"/>
    </contour>
    <contour>
      <point x="84" y="673" type="line" smooth="yes"/>
      <point x="74" y="671"/>
      <point x="72" y="667"/>
      <point x="72" y="656" type="curve" smooth="yes"/>
      <point x="72" y="645"/>
      <point x="74" y="633"/>
      <point x="81" y="633" type="curve"/>
      <point x="158" y="650" type="line"/>
      <point x="122" y="309" type="line"/>
      <point x="122" y="302"/>
      <point x="127" y="297"/>
      <point x="143" y="297" type="curve" smooth="yes"/>
      <point x="147" y="297" type="line" smooth="yes"/>
      <point x="162" y="297"/>
      <point x="169" y="301"/>
      <point x="170" y="309" type="curve" smooth="yes"/>
      <point x="210" y="690" type="line"/>
      <point x="210" y="697"/>
      <point x="203" y="702"/>
      <point x="193" y="702" type="curve"/>
    </contour>
    <component base="eight" xOffset="405" xScale="0.59" yScale="0.59"/>
  </outline>
</glyph>
<glyph name="arrowleft" format="1">
  <advance width="750"/>
  <unicode hex="2190"/>
  <outline>
    <contour>
      <point x="301" y="530" type="line" smooth="yes"/>
      <point x="287" y="530"/>
      <point x="277" y="526"/>
      <point x="266" y="516" type="curve" smooth="yes"/>
      <point x="8" y="284" type="line" smooth="yes"/>
      <point x="2" y="278"/>
      <point x="0" y="274"/>
      <point x="0" y="266" type="curve" smooth="yes"/>
      <point x="0" y="257"/>
      <point x="0" y="253"/>
      <point x="5" y="248" type="curve" smooth="yes"/>
      <point x="214" y="15" type="line" smooth="yes"/>
      <point x="223" y="5"/>
      <point x="233" y="1"/>
      <point x="247" y="1" type="curve" smooth="yes"/>
      <point x="302" y="1" type="line" smooth="yes"/>
      <point x="315" y="1"/>
      <point x="321" y="3"/>
      <point x="321" y="9" type="curve" smooth="yes"/>
      <point x="321" y="12"/>
      <point x="317" y="17"/>
      <point x="313" y="22" type="curve" smooth="yes"/>
      <point x="122" y="231" type="line"/>
      <point x="725" y="231" type="line" smooth="yes"/>
      <point x="739" y="231"/>
      <point x="751" y="240"/>
      <point x="751" y="271" type="curve" smooth="yes"/>
      <point x="751" y="292"/>
      <point x="747" y="301"/>
      <point x="732" y="301" type="curve" smooth="yes"/>
      <point x="129" y="301" type="line"/>
      <point x="363" y="509" type="line" smooth="yes"/>
      <point x="370" y="515"/>
      <point x="374" y="520"/>
      <point x="375" y="523" type="curve"/>
      <point x="375" y="528"/>
      <point x="368" y="530"/>
      <point x="356" y="530" type="curve" smooth="yes"/>
    </contour>
  </outline>
</glyph>
<glyph name="partialdiff" format="1">
  <advance width="514"/>
  <unicode hex="2202"/>
  <outline>
    <contour>
      <point x="190" y="738"/>
      <point x="102" y="709"/>
      <point x="102" y="678" type="curve" smooth="yes"/>
      <point x="102" y="663"/>
      <point x="120" y="635"/>
      <point x="130" y="635" type="curve" smooth="yes"/>
      <point x="141" y="635"/>
      <point x="170" y="665"/>
      <point x="230" y="665" type="curve" smooth="yes"/>
      <point x="316" y="665"/>
      <point x="383" y="573"/>
      <point x="383" y="420" type="curve" smooth="yes"/>
      <point x="383" y="392"/>
      <point x="381" y="363"/>
      <point x="377" y="332" type="curve"/>
      <point x="390" y="345" type="line"/>
      <point x="371" y="375"/>
      <point x="331" y="414"/>
      <point x="250" y="414" type="curve" smooth="yes"/>
      <point x="158" y="414"/>
      <point x="20" y="345"/>
      <point x="20" y="168" type="curve" smooth="yes"/>
      <point x="20" y="31"/>
      <point x="127" y="-6"/>
      <point x="198" y="-6" type="curve" smooth="yes"/>
      <point x="296" y="-6"/>
      <point x="481" y="74"/>
      <point x="481" y="420" type="curve" smooth="yes"/>
      <point x="481" y="627"/>
      <point x="386" y="738"/>
      <point x="251" y="738" type="curve" smooth="yes"/>
    </contour>
    <contour>
      <point x="310" y="344"/>
      <point x="341" y="327"/>
      <point x="371" y="294" type="curve"/>
      <point x="350" y="172"/>
      <point x="292" y="61"/>
      <point x="206" y="61" type="curve" smooth="yes"/>
      <point x="136" y="61"/>
      <point x="112" y="119"/>
      <point x="112" y="172" type="curve" smooth="yes"/>
      <point x="112" y="255"/>
      <point x="174" y="344"/>
      <point x="256" y="344" type="curve" smooth="yes"/>
    </contour>
  </outline>
</glyph>
<glyph name="summation" format="1">
  <advance width="593"/>
  <unicode hex="2211"/>
  <outline>
    <contour>
      <point x="107" y="700" type="line" smooth="yes"/>
      <point x="85" y="700"/>
      <point x="77" y="690"/>
      <point x="75" y="676" type="curve" smooth="yes"/>
      <point x="74" y="667" type="line" smooth="yes"/>
      <point x="73" y="657"/>
      <point x="75" y="647"/>
      <point x="82" y="638" type="curve"/>
      <point x="299" y="300" type="line"/>
      <point x="0" y="-36" type="line"/>
      <point x="-10" y="-50"/>
      <point x="-16" y="-61"/>
      <point x="-16" y="-79" type="curve" smooth="yes"/>
      <point x="-16" y="-94"/>
      <point x="-6" y="-102"/>
      <point x="10" y="-102" type="curve" smooth="yes"/>
      <point x="499" y="-102" type="line" smooth="yes"/>
      <point x="522" y="-102"/>
      <point x="531" y="-96"/>
      <point x="535" y="-47" type="curve"/>
      <point x="535" y="-28"/>
      <point x="529" y="-17"/>
      <point x="508" y="-17" type="curve" smooth="yes"/>
      <point x="112" y="-17" type="line"/>
      <point x="112" y="-13" type="line"/>
      <point x="380" y="290" type="line" smooth="yes"/>
      <point x="386" y="297"/>
      <point x="389" y="304"/>
      <point x="390" y="311" type="curve" smooth="yes"/>
      <point x="390" y="318"/>
      <point x="389" y="325"/>
      <point x="384" y="332" type="curve" smooth="yes"/>
      <point x="200" y="624" type="line"/>
      <point x="200" y="628" type="line"/>
      <point x="558" y="628" type="line" smooth="yes"/>
      <point x="580" y="628"/>
      <point x="592" y="644"/>
      <point x="592" y="670" type="curve" smooth="yes"/>
      <point x="592" y="689"/>
      <point x="587" y="700"/>
      <point x="566" y="700" type="curve" smooth="yes"/>
    </contour>
  </outline>
</glyph>
<glyph name="uni2219" format="1">
  <advance width="259"/>
  <unicode hex="2219"/>
  <outline>
    <contour>
      <point x="113" y="412"/>
      <point x="89" y="387"/>
      <point x="89" y="354" type="curve" smooth="yes"/>
      <point x="89" y="328"/>
      <point x="108" y="309"/>
      <point x="135" y="309" type="curve" smooth="yes"/>
      <point x="166" y="309"/>
      <point x="192" y="331"/>
      <point x="192" y="366" type="curve" smooth="yes"/>
      <point x="192" y="392"/>
      <point x="173" y="412"/>
      <point x="146" y="412" type="curve" smooth="yes"/>
    </contour>
  </outline>
</glyph>
<glyph name="radical" format="1">
  <advance width="618"/>
  <unicode hex="221A"/>
  <outline>
    <contour>
      <point x="633" y="813" type="line" smooth="yes"/>
      <point x="603" y="813"/>
      <point x="596" y="805"/>
      <point x="592" y="792" type="curve" smooth="yes"/>
      <point x="334" y="52" type="line"/>
      <point x="324" y="24"/>
      <point x="315" y="-10"/>
      <point x="305" y="-38" type="curve"/>
      <point x="302" y="-38" type="line"/>
      <point x="299" y="-18"/>
      <point x="295" y="6"/>
      <point x="288" y="34" type="curve"/>
      <point x="205" y="359" type="line"/>
      <point x="202" y="373"/>
      <point x="196" y="380"/>
      <point x="186" y="380" type="curve" smooth="yes"/>
      <point x="176" y="380"/>
      <point x="95" y="348"/>
      <point x="49" y="331" type="curve" smooth="yes"/>
      <point x="37" y="326"/>
      <point x="33" y="319"/>
      <point x="33" y="310" type="curve" smooth="yes"/>
      <point x="33" y="307"/>
      <point x="35" y="300"/>
      <point x="39" y="285" type="curve" smooth="yes"/>
      <point x="41" y="275"/>
      <point x="46" y="272"/>
      <point x="53" y="272" type="curve" smooth="yes"/>
      <point x="60" y="272"/>
      <point x="61" y="273"/>
      <point x="124" y="296" type="curve"/>
      <point x="241" y="-129" type="line" smooth="yes"/>
      <point x="245" y="-143"/>
      <point x="257" y="-150"/>
      <point x="276" y="-150" type="curve" smooth="yes"/>
      <point x="306" y="-150" type="line" smooth="yes"/>
      <point x="323" y="-150"/>
      <point x="338" y="-142"/>
      <point x="343" y="-129" type="curve" smooth="yes"/>
      <point x="669" y="780"/>
      <point x="674" y="794"/>
      <point x="674" y="800" type="curve" smooth="yes"/>
      <point x="674" y="807"/>
      <point x="666" y="813"/>
      <point x="645" y="813" type="curve" smooth="yes"/>
    </contour>
  </outline>
</glyph>
<glyph name="approxequal" format="1">
  <advance width="547"/>
  <unicode hex="2248"/>
  <outline>
    <contour>
      <point x="149" y="363"/>
      <point x="87" y="332"/>
      <point x="87" y="311" type="curve" smooth="yes"/>
      <point x="87" y="298"/>
      <point x="99" y="278"/>
      <point x="116" y="278" type="curve" smooth="yes"/>
      <point x="129" y="278"/>
      <point x="152" y="289"/>
      <point x="178" y="289" type="curve" smooth="yes"/>
      <point x="230" y="289"/>
      <point x="273" y="263"/>
      <point x="349" y="263" type="curve" smooth="yes"/>
      <point x="414" y="263"/>
      <point x="476" y="293"/>
      <point x="476" y="316" type="curve" smooth="yes"/>
      <point x="476" y="336"/>
      <point x="460" y="348"/>
      <point x="447" y="348" type="curve" smooth="yes"/>
      <point x="434" y="348"/>
      <point x="411" y="337"/>
      <point x="385" y="337" type="curve" smooth="yes"/>
      <point x="333" y="337"/>
      <point x="289" y="363"/>
      <point x="214" y="363" type="curve" smooth="yes"/>
    </contour>
    <contour>
      <point x="132" y="199"/>
      <point x="70" y="168"/>
      <point x="70" y="147" type="curve" smooth="yes"/>
      <point x="70" y="134"/>
      <point x="82" y="114"/>
      <point x="99" y="114" type="curve" smooth="yes"/>
      <point x="112" y="114"/>
      <point x="135" y="125"/>
      <point x="161" y="125" type="curve" smooth="yes"/>
      <point x="213" y="125"/>
      <point x="256" y="99"/>
      <point x="332" y="99" type="curve" smooth="yes"/>
      <point x="397" y="99"/>
      <point x="459" y="129"/>
      <point x="459" y="152" type="curve" smooth="yes"/>
      <point x="459" y="172"/>
      <point x="443" y="184"/>
      <point x="430" y="184" type="curve" smooth="yes"/>
      <point x="417" y="184"/>
      <point x="394" y="173"/>
      <point x="368" y="173" type="curve" smooth="yes"/>
      <point x="316" y="173"/>
      <point x="272" y="199"/>
      <point x="197" y="199" type="curve" smooth="yes"/>
    </contour>
  </outline>
</glyph>
<glyph name="notequal" format="1">
  <advance width="560"/>
  <unicode hex="2260"/>
  <outline>
    <contour>
      <point x="453" y="433" type="line" smooth="yes"/>
      <point x="438" y="433"/>
      <point x="429" y="426"/>
      <point x="420" y="416" type="curve" smooth="yes"/>
      <point x="348" y="338" type="line"/>
      <point x="79" y="338" type="line" smooth="yes"/>
      <point x="55" y="338"/>
      <point x="54" y="311"/>
      <point x="54" y="300" type="curve" smooth="yes"/>
      <point x="54" y="284"/>
      <point x="57" y="271"/>
      <point x="71" y="271" type="curve" smooth="yes"/>
      <point x="287" y="271" type="line"/>
      <point x="200" y="175" type="line"/>
      <point x="62" y="175" type="line" smooth="yes"/>
      <point x="38" y="175"/>
      <point x="37" y="148"/>
      <point x="37" y="137" type="curve" smooth="yes"/>
      <point x="37" y="121"/>
      <point x="40" y="108"/>
      <point x="54" y="108" type="curve" smooth="yes"/>
      <point x="139" y="108" type="line"/>
      <point x="63" y="25" type="line" smooth="yes"/>
      <point x="59" y="20"/>
      <point x="57" y="17"/>
      <point x="57" y="15" type="curve" smooth="yes"/>
      <point x="57" y="11"/>
      <point x="61" y="8"/>
      <point x="70" y="8" type="curve" smooth="yes"/>
      <point x="111" y="8" type="line" smooth="yes"/>
      <point x="125" y="8"/>
      <point x="134" y="14"/>
      <point x="144" y="25" type="curve" smooth="yes"/>
      <point x="220" y="108" type="line"/>
      <point x="482" y="108" type="line" smooth="yes"/>
      <point x="506" y="108"/>
      <point x="507" y="140"/>
      <point x="507" y="151" type="curve" smooth="yes"/>
      <point x="507" y="167"/>
      <point x="504" y="175"/>
      <point x="490" y="175" type="curve" smooth="yes"/>
      <point x="281" y="175" type="line"/>
      <point x="369" y="271" type="line"/>
      <point x="499" y="271" type="line" smooth="yes"/>
      <point x="523" y="271"/>
      <point x="524" y="303"/>
      <point x="524" y="314" type="curve" smooth="yes"/>
      <point x="524" y="330"/>
      <point x="521" y="338"/>
      <point x="507" y="338" type="curve" smooth="yes"/>
      <point x="430" y="338" type="line"/>
      <point x="501" y="416" type="line" smooth="yes"/>
      <point x="504" y="420"/>
      <point x="506" y="424"/>
      <point x="506" y="426" type="curve" smooth="yes"/>
      <point x="506" y="429"/>
      <point x="502" y="433"/>
      <point x="494" y="433" type="curve" smooth="yes"/>
    </contour>
  </outline>
</glyph>
<glyph name="greaterequal" format="1">
  <advance width="566"/>
  <unicode hex="2265"/>
  <outline>
    <contour>
      <point x="81" y="552"/>
      <point x="71" y="538"/>
      <point x="71" y="512" type="curve" smooth="yes"/>
      <point x="71" y="493"/>
      <point x="78" y="483"/>
      <point x="91" y="477" type="curve" smooth="yes"/>
      <point x="431" y="331" type="line"/>
      <point x="60" y="186" type="line" smooth="yes"/>
      <point x="43" y="180"/>
      <point x="31" y="170"/>
      <point x="31" y="137" type="curve" smooth="yes"/>
      <point x="31" y="120"/>
      <point x="36" y="111"/>
      <point x="49" y="111" type="curve" smooth="yes"/>
      <point x="54" y="111"/>
      <point x="59" y="112"/>
      <point x="65" y="114" type="curve" smooth="yes"/>
      <point x="494" y="288" type="line" smooth="yes"/>
      <point x="510" y="295"/>
      <point x="524" y="306"/>
      <point x="524" y="344" type="curve" smooth="yes"/>
      <point x="524" y="359"/>
      <point x="518" y="368"/>
      <point x="503" y="375" type="curve" smooth="yes"/>
      <point x="110" y="549" type="line" smooth="yes"/>
      <point x="106" y="551"/>
      <point x="101" y="552"/>
      <point x="96" y="552" type="curve" smooth="yes"/>
    </contour>
    <contour>
      <point x="55" y="73" type="line" smooth="yes"/>
      <point x="33" y="73"/>
      <point x="20" y="60"/>
      <point x="20" y="27" type="curve" smooth="yes"/>
      <point x="20" y="9"/>
      <point x="26" y="0"/>
      <point x="47" y="0" type="curve" smooth="yes"/>
      <point x="460" y="0" type="line" smooth="yes"/>
      <point x="481" y="0"/>
      <point x="495" y="13"/>
      <point x="495" y="46" type="curve" smooth="yes"/>
      <point x="495" y="63"/>
      <point x="489" y="73"/>
      <point x="468" y="73" type="curve" smooth="yes"/>
    </contour>
  </outline>
</glyph>
<glyph name="lozenge" format="1">
  <advance width="558"/>
  <unicode hex="25CA"/>
  <outline>
    <contour>
      <point x="311" y="719" type="line" smooth="yes"/>
      <point x="294" y="719"/>
      <point x="282" y="712"/>
      <point x="273" y="698" type="curve" smooth="yes"/>
      <point x="63" y="367" type="line" smooth="yes"/>
      <point x="57" y="358"/>
      <point x="54" y="351"/>
      <point x="54" y="342" type="curve" smooth="yes"/>
      <point x="54" y="337"/>
      <point x="56" y="332"/>
      <point x="58" y="327" type="curve" smooth="yes"/>
      <point x="200" y="-4" type="line" smooth="yes"/>
      <point x="206" y="-18"/>
      <point x="214" y="-25"/>
      <point x="232" y="-25" type="curve" smooth="yes"/>
      <point x="251" y="-25" type="line" smooth="yes"/>
      <point x="267" y="-25"/>
      <point x="280" y="-19"/>
      <point x="289" y="-4" type="curve" smooth="yes"/>
      <point x="499" y="326" type="line" smooth="yes"/>
      <point x="504" y="334"/>
      <point x="507" y="340"/>
      <point x="508" y="347" type="curve" smooth="yes"/>
      <point x="508" y="354"/>
      <point x="507" y="360"/>
      <point x="504" y="367" type="curve" smooth="yes"/>
      <point x="362" y="698" type="line" smooth="yes"/>
      <point x="356" y="712"/>
      <point x="347" y="719"/>
      <point x="330" y="719" type="curve" smooth="yes"/>
    </contour>
    <contour>
      <point x="436" y="347" type="line"/>
      <point x="249" y="49" type="line"/>
      <point x="127" y="347" type="line"/>
      <point x="312" y="644" type="line"/>
    </contour>
  </outline>
</glyph>
<glyph name="uniFB02" format="1">
  <advance width="591"/>
  <unicode hex="FB02"/>
  <outline>
    <contour>
      <point x="223" y="756"/>
      <point x="144" y="740"/>
      <point x="133" y="624" type="curve" smooth="yes"/>
      <point x="123" y="523" type="line"/>
      <point x="83" y="523" type="line" smooth="yes"/>
      <point x="59" y="523"/>
      <point x="58" y="489"/>
      <point x="58" y="478" type="curve" smooth="yes"/>
      <point x="58" y="462"/>
      <point x="61" y="451"/>
      <point x="75" y="451" type="curve" smooth="yes"/>
      <point x="115" y="451" type="line"/>
      <point x="70" y="20" type="line"/>
      <point x="70" y="5"/>
      <point x="80" y="-2"/>
      <point x="108" y="-2" type="curve" smooth="yes"/>
      <point x="112" y="-2" type="line" smooth="yes"/>
      <point x="138" y="-2"/>
      <point x="152" y="5"/>
      <point x="154" y="20" type="curve" smooth="yes"/>
      <point x="199" y="451" type="line"/>
      <point x="265" y="451" type="line" smooth="yes"/>
      <point x="303" y="451"/>
      <point x="310" y="500"/>
      <point x="310" y="504" type="curve" smooth="yes"/>
      <point x="310" y="518"/>
      <point x="306" y="523"/>
      <point x="294" y="523" type="curve" smooth="yes"/>
      <point x="207" y="523" type="line"/>
      <point x="216" y="614" type="line" smooth="yes"/>
      <point x="222" y="674"/>
      <point x="245" y="684"/>
      <point x="276" y="684" type="curve" smooth="yes"/>
      <point x="306" y="684"/>
      <point x="317" y="677"/>
      <point x="321" y="677" type="curve" smooth="yes"/>
      <point x="333" y="677"/>
      <point x="347" y="714"/>
      <point x="347" y="725" type="curve" smooth="yes"/>
      <point x="347" y="755"/>
      <point x="293" y="756"/>
      <point x="276" y="756" type="curve" smooth="yes"/>
    </contour>
    <contour>
      <point x="486" y="752" type="line" smooth="yes"/>
      <point x="460" y="752"/>
      <point x="446" y="746"/>
      <point x="444" y="730" type="curve" smooth="yes"/>
      <point x="444" y="727"/>
      <point x="379" y="137"/>
      <point x="379" y="92" type="curve" smooth="yes"/>
      <point x="379" y="24"/>
      <point x="412" y="-6"/>
      <point x="469" y="-6" type="curve" smooth="yes"/>
      <point x="487" y="-6"/>
      <point x="524" y="2"/>
      <point x="529" y="27" type="curve" smooth="yes"/>
      <point x="533" y="49"/>
      <point x="533" y="63"/>
      <point x="533" y="64" type="curve" smooth="yes"/>
      <point x="533" y="70"/>
      <point x="530" y="71"/>
      <point x="527" y="71" type="curve" smooth="yes"/>
      <point x="521" y="71"/>
      <point x="512" y="66"/>
      <point x="500" y="66" type="curve" smooth="yes"/>
      <point x="484" y="66"/>
      <point x="464" y="66"/>
      <point x="464" y="107" type="curve" smooth="yes"/>
      <point x="464" y="137"/>
      <point x="528" y="730"/>
      <point x="528" y="730" type="curve"/>
      <point x="528" y="745"/>
      <point x="518" y="752"/>
      <point x="490" y="752" type="curve" smooth="yes"/>
    </contour>
  </outline>
</glyph>
<glyph name="Y.loclGUA" format="1">
  <advance width="559"/>
  <outline>
    <contour>
      <point x="492" y="702" type="line"/>
      <point x="463" y="702"/>
      <point x="450" y="694"/>
      <point x="449" y="680" type="curve" smooth="yes"/>
      <point x="415" y="354" type="line"/>
      <point x="374" y="311"/>
      <point x="320" y="284"/>
      <point x="271" y="284" type="curve" smooth="yes"/>
      <point x="206" y="284"/>
      <point x="169" y="314"/>
      <point x="169" y="367" type="curve" smooth="yes"/>
      <point x="169" y="377"/>
      <point x="169" y="383"/>
      <point x="201" y="680" type="curve" smooth="yes"/>
      <point x="203" y="694"/>
      <point x="191" y="702"/>
      <point x="163" y="702" type="curve" smooth="yes"/>
      <point x="159" y="702" type="line" smooth="yes"/>
      <point x="131" y="702"/>
      <point x="118" y="694"/>
      <point x="117" y="680" type="curve" smooth="yes"/>
      <point x="87" y="395"/>
      <point x="84" y="369"/>
      <point x="84" y="350" type="curve" smooth="yes"/>
      <point x="84" y="263"/>
      <point x="142" y="211"/>
      <point x="241" y="211" type="curve" smooth="yes"/>
      <point x="306" y="211"/>
      <point x="375" y="244"/>
      <point x="427" y="298" type="curve"/>
      <point x="411" y="325" type="line"/>
      <point x="409" y="303" type="line" smooth="yes"/>
      <point x="393" y="130"/>
      <point x="351" y="64"/>
      <point x="258" y="64" type="curve" smooth="yes"/>
      <point x="136" y="64"/>
      <point x="85" y="108"/>
      <point x="70" y="108" type="curve" smooth="yes"/>
      <point x="58" y="108"/>
      <point x="55" y="68"/>
      <point x="55" y="53" type="curve" smooth="yes"/>
      <point x="56" y="27"/>
      <point x="139" y="-8"/>
      <point x="259" y="-8" type="curve" smooth="yes"/>
      <point x="400" y="-8"/>
      <point x="468" y="64"/>
      <point x="493" y="303" type="curve" smooth="yes"/>
      <point x="533" y="680" type="line" smooth="yes"/>
      <point x="534" y="694"/>
      <point x="523" y="702"/>
      <point x="495" y="702" type="curve" smooth="yes"/>
    </contour>
    <contour>
      <point x="309" y="700" type="move" name="top"/>
    </contour>
    <contour>
      <point x="251" y="0" type="move" name="bottom"/>
    </contour>
  </outline>
</glyph>
<glyph name="acute.alt" format="1">
  <advance width="320"/>
  <outline>
    <contour>
      <point x="161" y="697"/>
      <point x="138" y="687"/>
      <point x="128" y="671" type="curve" smooth="yes"/>
      <point x="81" y="596"/>
      <point x="73" y="577"/>
      <point x="73" y="569" type="curve" smooth="yes"/>
      <point x="73" y="563"/>
      <point x="80" y="560"/>
      <point x="95" y="560" type="curve" smooth="yes"/>
      <point x="111" y="560"/>
      <point x="123" y="566"/>
      <point x="133" y="578" type="curve" smooth="yes"/>
      <point x="214" y="667"/>
      <point x="225" y="680"/>
      <point x="225" y="685" type="curve" smooth="yes"/>
      <point x="225" y="694"/>
      <point x="212" y="697"/>
      <point x="193" y="697" type="curve" smooth="yes"/>
    </contour>
    <contour>
      <point x="150" y="700" type="move" name="top"/>
    </contour>
    <contour>
      <point x="109" y="565" type="move" name="_top"/>
    </contour>
  </outline>
</glyph>
<glyph name="acute.loclPLK" format="1">
  <advance width="320"/>
  <outline>
    <contour>
      <point x="149" y="732"/>
      <point x="124" y="727"/>
      <point x="116" y="706" type="curve" smooth="yes"/>
      <point x="85" y="627"/>
      <point x="77" y="603"/>
      <point x="77" y="594" type="curve" smooth="yes"/>
      <point x="77" y="588"/>
      <point x="84" y="585"/>
      <point x="99" y="585" type="curve" smooth="yes"/>
      <point x="119" y="585"/>
      <point x="143" y="590"/>
      <point x="152" y="603" type="curve" smooth="yes"/>
      <point x="211" y="684"/>
      <point x="228" y="709"/>
      <point x="228" y="720" type="curve" smooth="yes"/>
      <point x="228" y="729"/>
      <point x="212" y="732"/>
      <point x="181" y="732" type="curve" smooth="yes"/>
    </contour>
    <contour>
      <point x="111" y="523" type="move" name="_top"/>
    </contour>
  </outline>
</glyph>
<glyph name="circumflex.alt2" format="1">
  <advance width="320"/>
  <outline>
    <contour>
      <point x="154" y="694" type="line" smooth="yes"/>
      <point x="134" y="694"/>
      <point x="121" y="684"/>
      <point x="106" y="672" type="curve" smooth="yes"/>
      <point x="39" y="609" type="line"/>
      <point x="34" y="601"/>
      <point x="32" y="595"/>
      <point x="32" y="589" type="curve" smooth="yes"/>
      <point x="32" y="581"/>
      <point x="39" y="577"/>
      <point x="53" y="577" type="curve" smooth="yes"/>
      <point x="55" y="577" type="line" smooth="yes"/>
      <point x="69" y="577"/>
      <point x="78" y="583"/>
      <point x="90" y="590" type="curve" smooth="yes"/>
      <point x="160" y="639" type="line"/>
      <point x="214" y="590" type="line" smooth="yes"/>
      <point x="223" y="583"/>
      <point x="233" y="577"/>
      <point x="246" y="577" type="curve" smooth="yes"/>
      <point x="248" y="577" type="line" smooth="yes"/>
      <point x="264" y="577"/>
      <point x="273" y="583"/>
      <point x="274" y="592" type="curve" smooth="yes"/>
      <point x="274" y="597"/>
      <point x="273" y="603"/>
      <point x="269" y="609" type="curve" smooth="yes"/>
      <point x="223" y="672" type="line" smooth="yes"/>
      <point x="212" y="684"/>
      <point x="198" y="694"/>
      <point x="179" y="694" type="curve" smooth="yes"/>
    </contour>
    <contour>
      <point x="177" y="721" type="move" name="tilde"/>
    </contour>
    <contour>
      <point x="175" y="700" type="move" name="top"/>
    </contour>
    <contour>
      <point x="151" y="523" type="move" name="_top"/>
    </contour>
  </outline>
</glyph>
<glyph name="grave.alt" format="1">
  <advance width="320"/>
  <outline>
    <contour>
      <point x="125" y="700"/>
      <point x="116" y="697"/>
      <point x="116" y="688" type="curve" smooth="yes"/>
      <point x="117" y="676"/>
      <point x="127" y="659"/>
      <point x="179" y="578" type="curve" smooth="yes"/>
      <point x="186" y="566"/>
      <point x="199" y="560"/>
      <point x="215" y="560" type="curve" smooth="yes"/>
      <point x="230" y="560"/>
      <point x="238" y="563"/>
      <point x="238" y="569" type="curve" smooth="yes"/>
      <point x="238" y="578"/>
      <point x="232" y="599"/>
      <point x="201" y="674" type="curve" smooth="yes"/>
      <point x="193" y="695"/>
      <point x="171" y="700"/>
      <point x="153" y="700" type="curve" smooth="yes"/>
    </contour>
    <contour>
      <point x="200" y="700" type="move" name="top"/>
    </contour>
    <contour>
      <point x="195" y="565" type="move" name="_top"/>
    </contour>
  </outline>
</glyph>
